<svg xmlns="http://www.w3.org/2000/svg" width="250" height="100" viewBox="0 0 250 100" fill="none">
    <g clip-path="url(#clip0_1_1775)">
    <path d="M5 65.6791V35.3918H11.9661L25.5954 53.9968C25.4512 52.7277 25.3214 51.545 25.206 50.4489C25.1194 49.3239 25.0617 48.1269 25.0329 46.8577C25.0041 45.5885 24.9896 44.1174 24.9896 42.4444V35.3918H32.5615V65.6791H25.5088L12.0526 47.4634C12.1968 48.7326 12.2978 49.7999 12.3555 50.6652C12.442 51.5306 12.4997 52.3671 12.5286 53.1748C12.5574 53.9824 12.5718 54.9199 12.5718 55.9872V65.6791H5Z" fill="#973EDF"/>
    <path d="M53.9177 66.1098C51.6389 66.1098 49.5332 65.7204 47.6006 64.9416C45.668 64.1628 43.995 63.0667 42.5816 61.6533C41.1682 60.2399 40.072 58.5813 39.2932 56.6775C38.5144 54.7737 38.125 52.6825 38.125 50.4037C38.125 48.1249 38.5144 46.0337 39.2932 44.1299C40.072 42.1973 41.1682 40.5243 42.5816 39.1109C43.995 37.6974 45.668 36.6013 47.6006 35.8225C49.5332 35.0437 51.6389 34.6543 53.9177 34.6543C56.2253 34.6543 58.3454 35.0437 60.278 35.8225C62.2106 36.6013 63.8836 37.6974 65.2971 39.1109C66.7105 40.5243 67.8066 42.1973 68.5854 44.1299C69.3642 46.0337 69.7536 48.1249 69.7536 50.4037C69.7536 52.6536 69.3642 54.7449 68.5854 56.6775C67.8066 58.5813 66.7105 60.2399 65.2971 61.6533C63.8836 63.0667 62.2106 64.1628 60.278 64.9416C58.3454 65.7204 56.2253 66.1098 53.9177 66.1098ZM53.9177 58.8409C55.4465 58.8409 56.8022 58.4803 57.9848 57.7592C59.1675 57.0092 60.1049 55.9996 60.7972 54.7305C61.4895 53.4613 61.8357 52.019 61.8357 50.4037C61.8357 48.7595 61.4895 47.3028 60.7972 46.0337C60.1049 44.7645 59.1675 43.7693 57.9848 43.0482C56.8022 42.3271 55.4465 41.9665 53.9177 41.9665C52.3889 41.9665 51.0332 42.3271 49.8505 43.0482C48.6679 43.7693 47.7304 44.7645 47.0381 46.0337C46.3747 47.3028 46.043 48.7595 46.043 50.4037C46.043 52.019 46.3747 53.4613 47.0381 54.7305C47.7304 55.9996 48.6679 57.0092 49.8505 57.7592C51.0332 58.4803 52.3889 58.8409 53.9177 58.8409Z" fill="#973EDF"/>
    <path d="M80.4205 65.6791L71.4641 35.3918H79.3821L83.6656 50.8383C83.8675 51.5594 84.0406 52.2806 84.1848 53.0017C84.329 53.7228 84.4588 54.4007 84.5742 55.0353C84.6896 54.343 84.8194 53.6651 84.9636 53.0017C85.1367 52.3094 85.353 51.5739 85.6126 50.795L89.9394 39.1128H96.0834L100.367 50.795C100.626 51.545 100.843 52.2517 101.016 52.9152C101.218 53.5497 101.391 54.1699 101.535 54.7757C101.593 54.2276 101.679 53.6363 101.795 53.0017C101.91 52.3671 102.083 51.6315 102.314 50.795L106.597 35.3918H114.299L105.256 65.6791H99.2852L92.7085 49.6701L86.6943 65.6791H80.4205Z" fill="#973EDF"/>
    <path d="M118.358 65.6791V35.3918H121.473L140.468 60.5303C140.411 59.6649 140.352 58.6409 140.295 57.4583C140.237 56.2468 140.195 54.992 140.165 53.694C140.136 52.396 140.108 51.1268 140.078 49.8864C140.078 48.6172 140.078 47.4779 140.078 46.4683V35.3918H143.497V65.6791H140.339L121.301 40.757C121.416 42.4877 121.503 44.1318 121.56 45.6895C121.647 47.2471 121.704 48.5884 121.734 49.7134C121.762 50.8095 121.776 51.545 121.776 51.92V65.6791H118.358Z" fill="white"/>
    <path d="M161.111 66.1169C158.89 66.1169 156.899 65.6121 155.14 64.6025C153.41 63.5641 152.04 62.1651 151.03 60.4055C150.02 58.6171 149.516 56.5836 149.516 54.3048C149.516 52.0549 150.02 50.0502 151.03 48.2906C152.04 46.5022 153.41 45.1032 155.14 44.0937C156.899 43.0841 158.89 42.5793 161.111 42.5793C163.332 42.5793 165.308 43.0841 167.039 44.0937C168.798 45.1032 170.168 46.5022 171.149 48.2906C172.159 50.0502 172.664 52.0549 172.664 54.3048C172.664 56.5836 172.159 58.6171 171.149 60.4055C170.168 62.1651 168.798 63.5641 167.039 64.6025C165.308 65.6121 163.332 66.1169 161.111 66.1169ZM161.111 63.0016C162.698 63.0016 164.096 62.6266 165.308 61.8766C166.548 61.1267 167.514 60.1027 168.206 58.8046C168.899 57.4778 169.245 55.9778 169.245 54.3048C169.245 52.6318 168.899 51.1607 168.206 49.8915C167.514 48.5935 166.548 47.5695 165.308 46.8195C164.096 46.0695 162.698 45.6946 161.111 45.6946C159.525 45.6946 158.111 46.0695 156.871 46.8195C155.631 47.5695 154.664 48.5935 153.972 49.8915C153.279 51.1895 152.933 52.6606 152.933 54.3048C152.933 55.9778 153.279 57.4778 153.972 58.8046C154.664 60.1027 155.631 61.1267 156.871 61.8766C158.111 62.6266 159.525 63.0016 161.111 63.0016Z" fill="white"/>
    <path d="M186.614 66.1113C184.536 66.1113 182.676 65.6065 181.032 64.5969C179.416 63.5873 178.133 62.2028 177.181 60.4432C176.258 58.6548 175.797 56.6213 175.797 54.3425C175.797 52.0926 176.272 50.0878 177.224 48.3283C178.177 46.5399 179.46 45.1409 181.075 44.1313C182.69 43.0929 184.508 42.5737 186.527 42.5737C188.258 42.5737 189.844 42.9775 191.286 43.7852C192.757 44.564 193.897 45.5303 194.704 46.6841V33.6606H197.993V65.6786H194.748L194.661 61.8711C193.94 63.0537 192.844 64.0633 191.373 64.8998C189.902 65.7075 188.315 66.1113 186.614 66.1113ZM187.046 63.0826C188.546 63.0826 189.887 62.7076 191.07 61.9576C192.252 61.2076 193.176 60.1836 193.839 58.8856C194.532 57.5587 194.877 56.0444 194.877 54.3425C194.877 52.6406 194.532 51.1407 193.839 49.8427C193.176 48.5158 192.252 47.4774 191.07 46.7274C189.887 45.9774 188.546 45.6024 187.046 45.6024C185.517 45.6024 184.162 45.9774 182.979 46.7274C181.796 47.4774 180.873 48.5158 180.209 49.8427C179.547 51.1407 179.214 52.6406 179.214 54.3425C179.214 56.0155 179.547 57.5155 180.209 58.8423C180.873 60.1692 181.796 61.2076 182.979 61.9576C184.162 62.7076 185.517 63.0826 187.046 63.0826Z" fill="white"/>
    <path d="M214.31 66.1169C212.031 66.1169 210.012 65.6265 208.252 64.6458C206.521 63.665 205.166 62.2949 204.186 60.5353C203.204 58.7758 202.714 56.7566 202.714 54.4779C202.714 52.1703 203.191 50.1223 204.142 48.3339C205.094 46.5455 206.421 45.1465 208.123 44.1369C209.825 43.0985 211.772 42.5793 213.964 42.5793C215.983 42.5793 217.757 43.0552 219.285 44.0071C220.844 44.9302 222.04 46.2138 222.877 47.8579C223.714 49.4733 224.103 51.3482 224.045 53.4827L224.002 54.9971H206.089C206.233 57.4489 207.07 59.396 208.599 60.8382C210.127 62.2805 212.161 63.0016 214.699 63.0016C215.796 63.0016 216.863 62.8285 217.902 62.4824C218.969 62.1074 220.137 61.3863 221.406 60.319L223.094 62.6987C222.084 63.6795 220.8 64.5015 219.243 65.165C217.685 65.7996 216.04 66.1169 214.31 66.1169ZM213.921 45.6946C211.844 45.6946 210.127 46.257 208.772 47.382C207.416 48.4781 206.565 50.0934 206.219 52.228H220.714V51.9684C220.656 50.9299 220.354 49.9348 219.805 48.9829C219.257 48.0022 218.479 47.2089 217.469 46.6032C216.488 45.9974 215.306 45.6946 213.921 45.6946Z" fill="white"/>
    <path d="M236.137 66.1169C234.175 66.1169 232.431 65.7707 230.902 65.0784C229.402 64.3573 228.19 63.391 227.267 62.1795L229.604 60.1459C231.248 62.1939 233.513 63.2179 236.397 63.2179C237.781 63.2179 238.907 62.9151 239.772 62.3093C240.665 61.6747 241.113 60.8094 241.113 59.7133C241.113 58.7902 240.709 58.0258 239.901 57.4201C239.526 57.1316 238.993 56.8576 238.3 56.598C237.608 56.3384 236.771 56.0644 235.791 55.7759C234.175 55.3432 232.834 54.8817 231.767 54.3913C230.7 53.901 229.863 53.3385 229.258 52.7039C228.393 51.7232 227.96 50.4973 227.96 49.0262C227.96 47.7858 228.291 46.6897 228.955 45.7378C229.647 44.7571 230.584 43.9927 231.767 43.4446C232.979 42.8677 234.334 42.5793 235.834 42.5793C237.45 42.5793 239.007 42.9254 240.508 43.6177C242.036 44.2811 243.276 45.1465 244.228 46.2138L242.194 48.4204C241.329 47.5262 240.363 46.8051 239.295 46.257C238.258 45.709 237.161 45.4349 236.007 45.4349C234.594 45.4349 233.454 45.7522 232.589 46.3868C231.753 47.0214 231.335 47.8579 231.335 48.8964C231.335 49.7329 231.666 50.4251 232.33 50.9732C232.733 51.2905 233.296 51.5934 234.018 51.8818C234.767 52.1414 235.69 52.4155 236.786 52.7039C238.027 53.05 239.094 53.4106 239.988 53.7856C240.882 54.1317 241.618 54.55 242.194 55.0404C243.637 56.1365 244.358 57.6364 244.358 59.5402C244.358 60.8094 243.997 61.9487 243.276 62.9583C242.555 63.9391 241.575 64.7179 240.334 65.2948C239.094 65.8428 237.695 66.1169 236.137 66.1169Z" fill="white"/>
    </g>
    <defs>
    <clipPath id="clip0_1_1775">
    <rect width="240" height="32.6761" fill="white" transform="translate(5 33.662)"/>
    </clipPath>
    </defs>
    </svg>