<svg xmlns="http://www.w3.org/2000/svg" width="48" height="49" viewBox="0 0 48 49" fill="none">
    <path d="M38.2258 30.081H36.2713V28.1264C36.2713 27.047 35.3962 26.1719 34.3167 26.1719C33.2373 26.1719 32.3622 27.047 32.3622 28.1264V30.081H30.4077C29.3282 30.081 28.4531 30.9561 28.4531 32.0355C28.4531 33.1149 29.3282 33.99 30.4077 33.99H32.3622V35.9446C32.3622 37.024 33.2373 37.8991 34.3167 37.8991C35.3962 37.8991 36.2713 37.024 36.2713 35.9446V33.99H38.2258C39.3053 33.99 40.1804 33.1149 40.1804 32.0355C40.1804 30.9561 39.3053 30.081 38.2258 30.081Z" fill="#4AB3FF"/>
    <path d="M34.3153 18.3438C29.8218 18.3438 25.8274 20.5215 23.3317 23.8768C22.3345 23.667 21.3013 23.5559 20.2426 23.5559C19.1164 23.5559 18.0191 23.6816 16.9636 23.9182C11.9963 25.0314 7.95325 28.6177 6.19977 33.312C5.59139 34.9408 5.25781 36.7025 5.25781 38.5407C5.25781 39.6201 6.13293 40.4952 7.21235 40.4952H23.5779C26.0857 43.6678 29.9666 45.7073 34.3153 45.7073C41.8596 45.7073 47.9971 39.5698 47.9971 32.0255C47.9971 24.4813 41.8596 18.3438 34.3153 18.3438ZM34.3153 41.7982C32.5442 41.7982 30.8833 41.3224 29.4493 40.4952C26.5201 38.8056 24.5426 35.6433 24.5426 32.0255C24.5426 29.4182 25.571 27.0481 27.2409 25.2938C29.0222 23.4228 31.5339 22.2528 34.3153 22.2528C39.704 22.2528 44.088 26.6369 44.088 32.0255C44.088 37.4142 39.704 41.7982 34.3153 41.7982Z" fill="#4AB3FF"/>
    <path d="M4.25 11.47C4.25 14.5537 6.64327 17.0872 9.66981 17.315C8.70792 15.5817 8.15908 13.5888 8.15908 11.47C8.15908 9.35114 8.70792 7.35816 9.66981 5.625C6.64327 5.85264 4.25 8.38624 4.25 11.47Z" fill="#4AB3FF"/>
    <path d="M12.1819 21.4636C11.5082 21.3232 10.816 21.25 10.1144 21.25C4.53727 21.25 0 25.7874 0 31.3645C0 32.4439 0.875113 33.319 1.95454 33.319H2.0881C3.59987 28.0772 7.32536 23.765 12.1819 21.4636Z" fill="#4AB3FF"/>
    <path d="M13.581 6.74729C12.6313 8.08289 12.0703 9.7135 12.0703 11.4735C12.0703 13.2335 12.6313 14.8641 13.581 16.1997C15.0643 18.2853 17.4986 19.6499 20.2469 19.6499C24.7555 19.6499 28.4234 15.982 28.4234 11.4734C28.4234 6.96477 24.7555 3.29688 20.2469 3.29688C17.4985 3.29714 15.0643 4.66167 13.581 6.74729Z" fill="#4AB3FF"/>
    </svg>