<svg xmlns="http://www.w3.org/2000/svg" width="49" height="48" viewBox="0 0 49 48" fill="none">
    <g clip-path="url(#clip0_3941_33994)">
    <path d="M14.7792 29.5391C14.7644 29.786 14.7205 30.0272 14.6484 30.2579L15.8377 31.5292C15.8562 31.5495 17.9995 33.8825 20.4326 33.8825C22.7197 33.8825 24.7506 31.8214 25.004 31.5542L26.1645 30.0707C26.1226 29.8981 26.0955 29.7206 26.0846 29.5399C24.4212 30.5056 22.4904 31.0592 20.4325 31.0592C18.3742 31.0591 16.4428 30.5052 14.7792 29.5391Z" fill="#0094FF"/>
    <path d="M30.1657 32.9713L28.0746 32.2109L27.1601 33.3801L27.1287 33.415C27.0084 33.5496 24.1372 36.7083 20.4304 36.7083C16.81 36.7083 13.9869 33.6951 13.745 33.4293L12.6513 32.26L10.6953 32.9713L14.3388 38.4366L17.4075 39.971L19.4152 48.0015H21.4457L23.4533 39.971L26.522 38.4366L30.1657 32.9713Z" fill="#0094FF"/>
    <path d="M12.4061 40.623L7.96479 33.9609L4.51914 35.445C2.21561 36.2825 0.667969 38.4922 0.667969 40.9432V47.998H16.5056L14.9841 41.912L12.4061 40.623Z" fill="#0094FF"/>
    <path d="M11.9609 14.1154V19.762C11.9609 24.4398 15.753 28.2319 20.4308 28.2319C25.1087 28.2319 28.9008 24.4398 28.9008 19.762V15.1876C28.9008 13.8508 27.892 12.7214 26.5616 12.5903C19.7203 11.9165 16.1959 8.46875 16.1959 8.46875C16.1959 8.46875 11.9609 9.59807 11.9609 14.1154Z" fill="#0094FF"/>
    <path d="M26.8364 9.7857C29.6216 10.06 31.722 12.3845 31.722 15.1927V19.767C31.722 22.6244 30.6547 25.2368 28.8987 27.2279V29.3627C28.8987 29.4442 28.9564 29.5266 29.033 29.5545L33.1365 31.0467C34.8784 29.3006 35.9569 26.8925 35.9569 24.2372V15.5321C35.9569 5.86074 27.1613 -1.50065 17.6055 0.261849V5.88295L18.1602 6.44752C18.395 6.66397 21.296 9.23995 26.8364 9.7857Z" fill="#0094FF"/>
    <path d="M11.8263 29.55C11.9028 29.5221 11.9606 29.4397 11.9606 29.3582V27.2235C10.2045 25.2323 9.1373 22.6199 9.1373 19.7626V14.1159C9.1373 9.33816 12.5165 6.83512 14.7839 5.96545V1.0625C9.00545 3.32604 4.90234 8.95646 4.90234 15.5277V24.2329C4.90234 26.8882 5.98085 29.2963 7.72273 31.0422L11.8263 29.55Z" fill="#0094FF"/>
    <path d="M47.4226 25.2426L45.4262 23.2461C43.7751 21.595 41.0882 21.5951 39.4371 23.2462C37.7858 24.8975 37.7858 27.5841 39.4371 29.2354L41.4335 31.2318C42.2592 32.0573 43.3436 32.4701 44.428 32.4701V45.1771H40.1931V40.9456C40.1931 38.4945 38.6454 36.285 36.3418 35.4473L32.8962 33.9633L28.4549 40.6254L25.8769 41.9143L24.3555 48.0003H47.2513V31.3931C49.0652 29.7713 49.1353 26.9552 47.4226 25.2426Z" fill="#0094FF"/>
    </g>
    <defs>
    <clipPath id="clip0_3941_33994">
    <rect width="48" height="48" fill="white" transform="translate(0.667969)"/>
    </clipPath>
    </defs>
    </svg>