<svg xmlns="http://www.w3.org/2000/svg" width="44" height="36" viewBox="0 0 44 36" fill="none">
    <rect x="0.366453" y="0.545896" width="43.2415" height="34.4466" rx="6.96261" fill="url(#paint0_linear_447_17945)"/>
    <rect x="0.366453" y="0.545896" width="43.2415" height="34.4466" rx="6.96261" stroke="#081871" stroke-width="0.732906"/>
    <path fill-rule="evenodd" clip-rule="evenodd" d="M10.691 13.5394C11.2664 13.5879 11.8418 13.2481 12.2015 12.8174C12.5551 12.3744 12.7889 11.7798 12.7289 11.1731C12.2194 11.1974 11.5901 11.5129 11.2305 11.9558C10.9008 12.338 10.6191 12.9569 10.691 13.5394ZM17.5352 21.3543V11.8953H21.0416C22.8517 11.8953 24.1165 13.1573 24.1165 15.0018C24.1165 16.8463 22.8278 18.1204 20.9936 18.1204H18.9857V21.3543H17.5352ZM12.722 13.6546C12.2151 13.6251 11.7525 13.809 11.3789 13.9575C11.1385 14.053 10.9349 14.134 10.78 14.134C10.6061 14.134 10.3941 14.0487 10.1561 13.953C9.8442 13.8276 9.48761 13.6842 9.11366 13.691C8.25654 13.7032 7.45935 14.1946 7.02179 14.9773C6.12271 16.5427 6.78803 18.8605 7.65715 20.1346C8.08271 20.7656 8.59219 21.4573 9.26351 21.433C9.55885 21.4218 9.7713 21.3305 9.99116 21.2361C10.2443 21.1273 10.5072 21.0144 10.9178 21.0144C11.3142 21.0144 11.5656 21.1244 11.807 21.23C12.0365 21.3304 12.2569 21.4268 12.5841 21.4209C13.2794 21.4088 13.717 20.7899 14.1425 20.1589C14.6018 19.4816 14.8036 18.8207 14.8342 18.7204L14.8378 18.7088C14.8371 18.708 14.8315 18.7054 14.8215 18.7008L14.8215 18.7008L14.8214 18.7008L14.8214 18.7008C14.6679 18.6296 13.4945 18.0858 13.4832 16.6277C13.4719 15.4037 14.4139 14.7836 14.5622 14.686C14.5713 14.6801 14.5773 14.6761 14.5801 14.674C13.9807 13.776 13.0457 13.6789 12.722 13.6546ZM26.7662 21.4272C27.6773 21.4272 28.5224 20.96 28.906 20.2197H28.936V21.3543H30.2787V16.6461C30.2787 15.2809 29.1997 14.4011 27.5394 14.4011C25.999 14.4011 24.8602 15.293 24.8182 16.5186H26.1249C26.2328 15.9362 26.7662 15.5539 27.4975 15.5539C28.3846 15.5539 28.8821 15.9726 28.8821 16.7431V17.2649L27.0719 17.3741C25.3876 17.4773 24.4766 18.175 24.4766 19.3885C24.4766 20.6141 25.4176 21.4272 26.7662 21.4272ZM27.1553 20.3044C26.3821 20.3044 25.8906 19.9283 25.8906 19.3519C25.8906 18.7573 26.3641 18.4114 27.2692 18.3568L28.8816 18.2537V18.7876C28.8816 19.6734 28.1383 20.3044 27.1553 20.3044ZM34.7299 21.7243C34.1485 23.3807 33.4832 23.9267 32.0686 23.9267C31.9607 23.9267 31.6011 23.9146 31.5172 23.8903V22.7557C31.6071 22.7679 31.8288 22.78 31.9427 22.78C32.5841 22.78 32.9437 22.507 33.1655 21.7971L33.2973 21.3784L30.8398 14.4919H32.3563L34.0646 20.08H34.0945L35.8028 14.4919H37.2773L34.7299 21.7243ZM18.9844 13.1326H20.6567C21.9154 13.1326 22.6347 13.8121 22.6347 15.0074C22.6347 16.2027 21.9154 16.8883 20.6507 16.8883H18.9844V13.1326Z" fill="white"/>
    <defs>
    <linearGradient id="paint0_linear_447_17945" x1="21.9872" y1="0.179443" x2="21.9872" y2="35.3589" gradientUnits="userSpaceOnUse">
    <stop stop-color="#020D43"/>
    <stop offset="1" stop-color="#0F2078"/>
    </linearGradient>
    </defs>
    </svg>