<svg xmlns="http://www.w3.org/2000/svg" width="44" height="36" viewBox="0 0 44 36" fill="none">
    <rect x="0.380125" y="0.366453" width="43.2415" height="34.4466" rx="6.96261" fill="url(#paint0_linear_447_17941)"/>
    <rect x="0.380125" y="0.366453" width="43.2415" height="34.4466" rx="6.96261" stroke="#081871" stroke-width="0.732906"/>
    <circle cx="22.2754" cy="17.8633" r="12" fill="#F3BA2F"/>
    <path d="M19.4384 16.5367L22.0004 13.9748L24.5636 16.538L26.0544 15.0473L22.0004 10.9932L17.9477 15.046L19.4384 16.5367ZM15.4043 17.5891L16.8951 16.0983L18.3858 17.589L16.895 19.0798L15.4043 17.5891ZM19.4384 18.6419L22.0004 21.2038L24.5636 18.6407L26.0551 20.1306L26.0544 20.1314L22.0004 24.1855L17.9476 20.1328L17.9455 20.1307L19.4384 18.6419ZM25.6152 17.5899L27.106 16.0992L28.5967 17.5899L27.1059 19.0806L25.6152 17.5899Z" fill="white"/>
    <path d="M23.5118 17.5889H23.5125L21.9998 16.0762L20.8818 17.1941H20.8818L20.7533 17.3226L20.4884 17.5876L20.4863 17.5896L20.4884 17.5918L21.9998 19.1032L23.5125 17.5905L23.5132 17.5896L23.5118 17.5889Z" fill="white"/>
    <defs>
    <linearGradient id="paint0_linear_447_17941" x1="22.0009" y1="0" x2="22.0009" y2="35.1795" gradientUnits="userSpaceOnUse">
    <stop stop-color="#020D43"/>
    <stop offset="1" stop-color="#0F2078"/>
    </linearGradient>
    </defs>
    </svg>