<svg xmlns="http://www.w3.org/2000/svg" width="48" height="48" viewBox="0 0 48 48" fill="none">
    <g clip-path="url(#clip0_1_1110)">
    <path d="M32.539 0H26.7578C19.79 0 14.1211 5.66878 14.1211 12.6368V14.1328H17.0724C17.7218 10.902 20.5809 8.46094 24 8.46094C27.8964 8.46094 31.0664 11.6309 31.0664 15.5273V29.6484C31.0664 33.5384 34.2311 36.7031 38.1211 36.7031C42.0111 36.7031 45.1758 33.5384 45.1758 29.6484V12.6368C45.1758 5.66878 39.5069 0 32.539 0ZM42.3633 29.6484C42.3633 31.9876 40.4603 33.8906 38.1211 33.8906C35.7819 33.8906 33.8789 31.9876 33.8789 29.6484V15.5273C33.8789 10.0801 29.4473 5.64844 24 5.64844C21.9632 5.64844 20.0685 6.26794 18.4943 7.32853C20.2443 4.61381 23.2948 2.8125 26.7578 2.8125H32.539C37.9561 2.8125 42.3633 7.21959 42.3633 12.6368V29.6484Z" fill="#4AB3FF"/>
    <path d="M15.5273 31.0547C13.6809 31.0547 12.1061 32.2405 11.5247 33.8906H19.5301C18.9485 32.2405 17.3737 31.0547 15.5273 31.0547Z" fill="#4AB3FF"/>
    <path d="M15.5273 28.2422C16.3105 28.2422 16.9453 27.6073 16.9453 26.8242C16.9453 26.0411 16.3105 25.4062 15.5273 25.4062C14.7442 25.4062 14.1094 26.0411 14.1094 26.8242C14.1094 27.6073 14.7442 28.2422 15.5273 28.2422Z" fill="#4AB3FF"/>
    <path d="M7.39847 16.9453C4.87622 16.9453 2.82422 18.9973 2.82422 21.5196V43.4258C2.82422 45.9481 4.87622 48.0001 7.39847 48.0001H23.6562C26.1785 48.0001 28.2305 45.9481 28.2305 43.4258V21.5196C28.2305 18.9973 26.1785 16.9453 23.6562 16.9453H7.39847ZM21.1758 42.3516H9.87891C9.10228 42.3516 8.47266 41.7219 8.47266 40.9453C8.47266 40.1687 9.10228 39.5391 9.87891 39.5391H21.1758C21.9524 39.5391 22.582 40.1687 22.582 40.9453C22.582 41.7219 21.9524 42.3516 21.1758 42.3516ZM19.7578 26.8242C19.7578 27.6964 19.4924 28.5077 19.0382 29.1818C21.1538 30.4012 22.582 32.6846 22.582 35.2969C22.582 36.0735 21.9524 36.7031 21.1758 36.7031H9.87891C9.10228 36.7031 8.47266 36.0735 8.47266 35.2969C8.47266 32.6846 9.90094 30.4012 12.0165 29.1818C11.5624 28.5076 11.2969 27.6964 11.2969 26.8242C11.2969 24.4915 13.1947 22.5938 15.5273 22.5938C17.86 22.5938 19.7578 24.4915 19.7578 26.8242Z" fill="#4AB3FF"/>
    </g>
    <defs>
    <clipPath id="clip0_1_1110">
    <rect width="48" height="48" fill="white"/>
    </clipPath>
    </defs>
    </svg>