<svg xmlns="http://www.w3.org/2000/svg" width="48" height="48" viewBox="0 0 48 48" fill="none">
    <g clip-path="url(#clip0_3941_34092)">
    <path d="M4.48608 23.9927V19.5106C4.48608 17.0504 6.48706 15.0483 8.94836 15.0483H39.0516C41.5129 15.0483 43.5139 17.0504 43.5139 19.5106V24.1553C46.1686 22.879 48 20.1661 48 17.0248C48 12.6588 44.4609 9.11975 40.095 9.11975C38.4309 9.11975 36.8881 9.63538 35.6147 10.5128C34.5835 4.80103 29.5876 0.46875 23.5796 0.46875C18.0872 0.46875 13.4403 4.08911 11.8953 9.07288C10.8146 8.56018 9.60571 8.27161 8.32947 8.27161C3.72949 8.27161 0 12.0011 0 16.6014C0 19.8149 1.82043 22.6036 4.48608 23.9927Z" fill="#4AB3FF"/>
    <path d="M40.5393 24.9266V19.5184C40.5393 18.6985 39.8728 18.0312 39.0518 18.0312H8.94849C8.12744 18.0312 7.46094 18.6985 7.46094 19.5184V38.1509H40.5393V24.9266ZM18.8369 32.7764C19.4119 33.3634 19.402 34.3053 18.8149 34.8806C18.2323 35.4512 17.29 35.4486 16.7118 34.8586L11.616 29.6566C11.0447 29.0747 11.0498 28.1416 11.6259 27.5645C14.8049 24.3865 13.6316 25.5598 16.7228 22.4686C17.3029 21.8875 18.2448 21.8875 18.8259 22.4686C19.4071 23.0487 19.4071 23.9906 18.8259 24.5718C17.3508 26.0469 18.6135 24.7845 14.7701 28.6265C17.2845 31.1925 17.2468 31.1541 18.8369 32.7764ZM27.3835 24.0573C26.8628 25.399 23.9976 32.7888 23.3904 34.3551C23.0974 35.1124 22.2434 35.5046 21.4656 35.2047C20.7002 34.9073 20.3201 34.0457 20.6167 33.2803C21.8292 30.1532 23.4178 26.0568 24.6099 22.9821C24.9065 22.2167 25.7682 21.8358 26.5347 22.1335C27.3 22.4298 27.6802 23.2915 27.3835 24.0573ZM36.3744 29.7727L31.2775 34.8696C30.6967 35.4504 29.7544 35.4497 29.1743 34.8696C28.5931 34.2885 28.5931 33.3466 29.1743 32.7654C30.5359 31.4038 29.7046 32.2351 33.2301 28.7107C33.0822 28.5594 29.3105 24.7113 29.1633 24.5608C28.5884 23.9738 28.5983 23.0326 29.1853 22.4576C29.7723 21.8823 30.7135 21.8926 31.2885 22.4785C34.2921 25.5452 33.1649 24.3945 36.3843 27.6805C36.9556 28.2625 36.9504 29.1967 36.3744 29.7727Z" fill="#4AB3FF"/>
    <path d="M27.0616 45.7788H20.9393C18.5652 45.7788 16.4078 43.9133 16.4078 41.125C16.0446 41.125 1.61108 41.125 1.17969 41.125V44.0851C1.17969 45.9443 2.69177 47.4564 4.55103 47.4564H43.45C45.3092 47.4564 46.8213 45.9443 46.8213 44.0851V41.125C46.4968 41.125 31.9183 41.125 31.5931 41.125C31.5931 43.9247 29.4252 45.7788 27.0616 45.7788Z" fill="#4AB3FF"/>
    <path d="M20.9396 42.8041H27.0619C27.8265 42.8041 28.6187 42.2394 28.6187 41.125H19.3828C19.3828 42.2233 20.1614 42.8041 20.9396 42.8041Z" fill="#4AB3FF"/>
    </g>
    <defs>
    <clipPath id="clip0_3941_34092">
    <rect width="48" height="48" fill="white"/>
    </clipPath>
    </defs>
    </svg>