<svg xmlns="http://www.w3.org/2000/svg" width="49" height="48" viewBox="0 0 49 48" fill="none">
    <g clip-path="url(#clip0_338_24824)">
    <path d="M21.6583 0.5C26.963 0.564309 31.4951 1.08948 35.8262 2.78375C38.0017 3.63476 40.0267 4.73791 41.6588 6.45239C42.9308 7.78869 43.7449 9.3381 43.7359 11.2267C43.7271 13.0758 42.9255 14.5965 41.685 15.9116C40.0721 17.6215 38.064 18.7254 35.9089 19.5778C33.1048 20.6869 30.1804 21.2962 27.1861 21.6152C24.239 21.9291 21.2899 21.9704 18.3424 21.6943C13.9645 21.2841 9.71782 20.3815 5.8684 18.1226C4.53522 17.3403 3.3359 16.3906 2.40268 15.1409C0.466746 12.5483 0.538032 9.50274 2.59614 7.00429C4.26882 4.97374 6.48997 3.74915 8.88396 2.79945C11.6878 1.68715 14.6115 1.05959 17.6091 0.7843C19.1861 0.639483 20.7691 0.561015 21.6583 0.5Z" fill="#4AB3FF"/>
    <path d="M46.7812 24.6443C48.3132 26.5165 48.4095 29.3975 47.0267 31.61C45.9347 33.3573 44.3498 34.5589 42.5751 35.534C39.9495 36.9766 37.1104 37.7842 34.1807 38.3156C30.9976 38.893 27.7833 39.0486 24.5612 38.9015C20.0199 38.6941 15.5884 37.9373 11.4578 35.9147C9.58235 34.9963 7.88626 33.8349 6.62416 32.1283C6.56661 32.0505 6.51747 31.9664 6.38672 31.7665C6.63249 31.8373 6.76337 31.8638 6.88576 31.9119C12.3663 34.0656 18.053 34.8956 23.9263 34.6553C27.5034 34.5089 31.0317 34.0985 34.4799 33.1148C37.612 32.2212 40.5577 30.9399 43.1355 28.9044C44.6187 27.7332 45.8462 26.3437 46.7812 24.6443Z" fill="#4AB3FF"/>
    <path d="M5.27344 36.9594C5.80571 37.3593 6.24488 37.7096 6.70418 38.0312C9.65615 40.0982 12.9678 41.3158 16.4508 42.1181C20.3085 43.0069 24.2248 43.326 28.1729 43.1985C33.1163 43.0388 37.9548 42.3053 42.5427 40.3393C44.3593 39.5609 46.0642 38.5941 47.6036 37.3477C47.7039 37.2664 47.8098 37.1921 47.9858 37.0601C47.9661 38.3059 47.5607 39.337 46.9409 40.2927C45.7511 42.1273 44.0287 43.3383 42.1255 44.3219C39.5115 45.6728 36.7098 46.4396 33.8222 46.9196C30.5333 47.4664 27.2202 47.6182 23.8958 47.4113C19.6959 47.15 15.5944 46.4152 11.7545 44.605C9.60342 43.5909 7.65951 42.2906 6.32966 40.2463C5.70109 39.28 5.33993 38.222 5.27344 36.9594Z" fill="#4AB3FF"/>
    <path d="M43.7454 19.9434C43.6349 21.6252 42.991 22.9632 41.9695 24.1332C40.2798 26.0688 38.0971 27.2663 35.7461 28.1797C32.7619 29.339 29.6488 29.9359 26.4658 30.2245C23.3294 30.5089 20.199 30.4793 17.076 30.1023C13.2148 29.6362 9.47467 28.735 6.06246 26.783C4.33346 25.7939 2.81813 24.5574 1.81043 22.7934C1.28748 21.878 1.02272 20.9035 1.06735 20.046C1.32302 20.2496 1.5496 20.4363 1.78262 20.6146C4.48562 22.6832 7.56511 23.9468 10.8294 24.7983C14.3295 25.7113 17.8919 26.1033 21.511 26.1413C25.4979 26.1831 29.4364 25.8793 33.3107 24.9089C36.8299 24.0275 40.1501 22.7047 43.0608 20.4839C43.2579 20.3336 43.45 20.1769 43.7454 19.9434Z" fill="#4AB3FF"/>
    </g>
    <defs>
    <clipPath id="clip0_338_24824">
    <rect width="47" height="47" fill="white" transform="translate(1 0.5)"/>
    </clipPath>
    </defs>
    </svg>