<svg xmlns="http://www.w3.org/2000/svg" width="49" height="48" viewBox="0 0 49 48" fill="none">
    <g clip-path="url(#clip0_338_24837)">
    <g clip-path="url(#clip1_338_24837)">
    <path d="M16.6211 37.7363C16.7165 36.5523 16.6794 35.3401 16.9344 34.19C17.4946 31.6633 19.9261 29.8225 22.5738 29.7834C24.0568 29.7615 25.5406 29.7619 27.0236 29.7844C29.8469 29.8273 32.4319 32.024 32.729 34.7778C32.9004 36.3667 32.8187 37.9825 32.8388 39.5863C32.8513 40.5833 32.8456 40.5955 31.8429 40.9511C29.2337 41.8763 26.5308 42.1225 23.7821 41.9477C21.5045 41.8028 19.2772 41.3715 17.093 40.7193C16.8064 40.6337 16.6944 40.5224 16.7021 40.2207C16.7232 39.3952 16.7094 38.5688 16.7094 37.7428C16.68 37.7406 16.6505 37.7384 16.6211 37.7363Z" fill="#4AB3FF"/>
    <path d="M15.6048 37.1796C14.7367 37.0853 13.9411 37.0549 13.1705 36.9033C11.7083 36.6156 10.2615 36.2539 8.80576 35.9338C8.48055 35.8623 8.37003 35.7129 8.37517 35.3736C8.39741 33.9063 8.37784 32.4385 8.38623 30.9709C8.40501 27.6861 10.9248 25.1125 14.2676 25.0005C15.6704 24.9535 17.0761 24.9855 18.4804 24.9875C18.6871 24.9878 18.9333 24.9389 18.9533 25.2731C19.0381 26.6931 19.6623 27.8767 20.6724 28.9276C16.8668 30.4002 15.2753 33.1959 15.6048 37.1796Z" fill="#4AB3FF"/>
    <path d="M7.24007 32.6505C5.54252 32.6187 3.96211 32.3922 2.42189 31.9244C1.87331 31.7578 1.33345 31.5553 0.809094 31.3263C0.67192 31.2664 0.524646 31.0469 0.52287 30.8991C0.503746 29.3081 0.483864 27.7161 0.52054 26.1257C0.58707 23.2407 3.04256 20.6869 5.9804 20.5093C7.47193 20.4192 8.97382 20.4936 10.5514 20.4936C10.6457 21.9751 11.2117 23.3127 12.3461 24.4273C10.578 25.0367 9.21323 26.0593 8.2442 27.5933C7.26883 29.1374 7.14863 30.839 7.24007 32.6505Z" fill="#4AB3FF"/>
    <path d="M33.9486 37.2135C34.2768 33.2615 32.7282 30.4225 28.9062 28.9444C30.3432 26.9402 30.4086 26.793 30.637 25.03C30.7434 25.0152 30.8608 24.9843 30.9781 24.9846C32.3357 24.9878 33.6942 24.9681 35.0507 25.0083C37.834 25.0909 40.4329 27.4859 40.6093 30.2108C40.7217 31.9471 40.6806 33.6935 40.6782 35.4354C40.678 35.5861 40.4836 35.8046 40.325 35.8764C38.9287 36.5087 37.4471 36.8489 35.9261 37.03C35.2949 37.1051 34.6599 37.1485 33.9486 37.2135Z" fill="#4AB3FF"/>
    <path d="M36.668 24.2588C37.7873 23.1614 38.3486 21.8529 38.4489 20.2859C40.507 20.4696 42.5679 19.9818 44.5542 20.6919C46.8717 21.5203 48.4662 23.7327 48.4886 26.1457C48.5026 27.659 48.4819 29.1727 48.5007 30.6859C48.5045 30.9841 48.3884 31.1208 48.1326 31.2288C46.5014 31.9176 44.7911 32.2828 43.0299 32.4424C42.6314 32.4785 42.2311 32.4972 41.7562 32.5289C42.0791 28.5863 40.5377 25.7604 36.668 24.2588Z" fill="#4AB3FF"/>
    <path d="M19.3984 11.0301C19.3948 8.23902 21.6851 5.99886 24.5411 6C27.3711 6.00114 29.6501 8.22737 29.661 11.0012C29.6719 13.7938 27.3999 16.0468 24.5494 16.0697C21.7337 16.0924 19.4021 13.8112 19.3984 11.0301Z" fill="#4AB3FF"/>
    <path d="M29.5019 24.7962C29.5139 27.3387 27.3872 29.4297 24.7844 29.4345C22.1892 29.4393 20.0423 27.3537 20.0313 24.8174C20.0205 22.3126 22.198 20.1682 24.763 20.1576C27.3312 20.1471 29.49 22.2602 29.5019 24.7962Z" fill="#4AB3FF"/>
    <path d="M11.7423 19.9782C11.7596 17.6253 13.5046 15.7096 15.9892 15.4038C18.0121 15.1547 20.3091 16.43 20.9667 18.664C21.0055 18.7956 21.067 18.9219 21.0944 19.0552C21.2285 19.7062 21.3018 20.2729 20.6377 20.8037C19.7642 21.5019 19.3106 22.5102 19.0484 23.5924C19.0024 23.7822 18.8356 24.0008 18.6618 24.0956C15.573 25.78 11.7166 23.4793 11.7423 19.9782Z" fill="#4AB3FF"/>
    <path d="M8.57393 10.7677C11.0458 10.8697 13.1345 12.7762 13.2839 15.1576C13.2923 15.2918 13.2035 15.4864 13.0942 15.5648C11.7326 16.5408 10.8903 17.8218 10.6127 19.4617C10.5897 19.5978 10.4092 19.7575 10.2639 19.8172C8.56054 20.5161 6.35915 20.0097 5.12318 18.6514C2.93286 16.2444 3.66793 12.6313 6.65643 11.2813C7.24998 11.0132 7.93246 10.934 8.57393 10.7677Z" fill="#4AB3FF"/>
    <path d="M32.5842 24.6559C32.3748 24.6402 32.1413 24.6294 31.9096 24.604C31.0823 24.5133 30.5462 24.2341 30.3758 23.2737C30.1413 21.9525 29.2743 20.9463 28.1765 20.1399C28.0256 20.0291 27.8887 19.7701 27.9034 19.5922C28.0949 17.2752 30.1972 15.3892 32.5743 15.3725C34.4857 15.3591 36.3772 16.6183 37.012 18.3266C37.7443 20.2972 37.1906 22.329 35.5785 23.6075C34.7113 24.2952 33.7198 24.6333 32.5842 24.6559Z" fill="#4AB3FF"/>
    <path d="M45.1408 15.3676C45.1306 18.5051 41.9547 20.7422 38.9187 19.752C38.593 19.6457 38.4057 19.5002 38.3331 19.1049C38.0599 17.6172 37.2848 16.4031 36.0201 15.5218C35.7482 15.3324 35.6838 15.1535 35.7203 14.841C35.9421 12.9427 37.2526 11.4482 39.2329 10.8722C40.913 10.3836 42.9095 11.022 44.0607 12.4158C44.7885 13.2968 45.1443 14.2695 45.1408 15.3676Z" fill="#4AB3FF"/>
    <path d="M19.6404 14.549C19.4713 14.736 19.3175 14.9061 19.1297 15.1138C17.5118 14.2763 15.8435 14.207 14.1324 14.9324C13.9273 13.3668 13.2492 12.1014 12.0305 11.1309C11.5186 10.7232 11.4266 10.2286 11.7545 9.6471C13.163 7.15262 16.4785 6.48458 18.7341 8.25264C18.8362 8.33263 18.915 8.56829 18.8708 8.68117C18.0868 10.6847 18.3207 12.567 19.5256 14.346C19.5597 14.3963 19.5858 14.4519 19.6404 14.549Z" fill="#4AB3FF"/>
    <path d="M34.7072 14.8076C33.3507 14.3765 32.0535 14.2784 30.7442 14.7163C29.9825 14.9711 29.9797 14.9632 29.4727 14.2571C30.1405 13.2311 30.552 12.0987 30.4833 10.8598C30.4484 10.229 30.2444 9.60853 30.1489 8.97873C30.1246 8.81879 30.1661 8.58571 30.2734 8.47957C32.4781 6.30023 36.654 7.19807 37.7492 10.0646C37.8602 10.3554 37.7021 10.4068 37.5271 10.5078C36.1244 11.3175 35.2408 12.5064 34.8476 14.0484C34.7879 14.2823 34.7588 14.5237 34.7072 14.8076Z" fill="#4AB3FF"/>
    <path d="M20.9688 16.5036C23.3908 16.3443 25.6841 16.3356 27.9172 16.4945C27.558 17.5063 27.2198 18.4587 26.8725 19.4369C25.3299 18.8274 23.7008 18.9106 22.0783 19.7119C22.0178 18.5534 21.7051 17.5286 20.9688 16.5036Z" fill="#4AB3FF"/>
    </g>
    </g>
    <defs>
    <clipPath id="clip0_338_24837">
    <rect width="48" height="48" fill="white" transform="translate(0.5)"/>
    </clipPath>
    <clipPath id="clip1_338_24837">
    <rect width="48" height="36" fill="white" transform="translate(0.5 6)"/>
    </clipPath>
    </defs>
    </svg>