<svg xmlns="http://www.w3.org/2000/svg" width="49" height="48" viewBox="0 0 49 48" fill="none">
    <g clip-path="url(#clip0_3941_34004)">
    <path d="M6.05078 18.375V22.5938H20.1133V18.375C20.1133 14.4982 16.9589 11.3438 13.082 11.3438C9.20519 11.3438 6.05078 14.4982 6.05078 18.375Z" fill="#0094FF"/>
    <path d="M28.5508 18.375V22.5938H42.6133V18.375C42.6133 14.4982 39.4589 11.3438 35.582 11.3438C31.7052 11.3438 28.5508 14.4982 28.5508 18.375Z" fill="#0094FF"/>
    <path d="M13.082 11.3438C15.412 11.3438 17.3008 9.45495 17.3008 7.125C17.3008 4.79505 15.412 2.90625 13.082 2.90625C10.7521 2.90625 8.86328 4.79505 8.86328 7.125C8.86328 9.45495 10.7521 11.3438 13.082 11.3438Z" fill="#0094FF"/>
    <path d="M35.582 11.3438C37.912 11.3438 39.8008 9.45495 39.8008 7.125C39.8008 4.79505 37.912 2.90625 35.582 2.90625C33.2521 2.90625 31.3633 4.79505 31.3633 7.125C31.3633 9.45495 33.2521 11.3438 35.582 11.3438Z" fill="#0094FF"/>
    <path d="M0.332031 28.2188H14.4883V33.8438H0.332031V28.2188Z" fill="#0094FF"/>
    <path d="M17.3008 28.2188H22.9258V33.8438H17.3008V28.2188Z" fill="#0094FF"/>
    <path d="M25.7383 28.2188H31.3633V33.8438H25.7383V28.2188Z" fill="#0094FF"/>
    <path d="M34.1758 28.2188H48.332V33.8438H34.1758V28.2188Z" fill="#0094FF"/>
    <path d="M0.332031 39.4688H8.86328V45.0938H0.332031V39.4688Z" fill="#0094FF"/>
    <path d="M11.6758 39.4688H22.9258V45.0938H11.6758V39.4688Z" fill="#0094FF"/>
    <path d="M25.7383 39.4688H39.8945V45.0938H25.7383V39.4688Z" fill="#0094FF"/>
    <path d="M42.707 39.4688H48.332V45.0938H42.707V39.4688Z" fill="#0094FF"/>
    </g>
    <defs>
    <clipPath id="clip0_3941_34004">
    <rect width="48" height="48" fill="white" transform="translate(0.332031)"/>
    </clipPath>
    </defs>
    </svg>