<svg xmlns="http://www.w3.org/2000/svg" width="49" height="49" viewBox="0 0 49 49" fill="none">
    <path d="M23.1899 33.0043C18.6393 31.8166 16.855 28.0806 16.8442 25.199C16.8335 22.3235 18.6033 18.5415 23.2062 17.3408V14.0231C23.0103 14.0231 22.8334 14.0231 22.6564 14.0231C20.7644 14.0231 18.8723 14.0261 16.9802 14.0219C15.8856 14.0195 15.2503 13.4159 15.261 12.4035C15.2713 11.4198 15.9038 10.8353 16.9792 10.8348C22.2073 10.8323 27.4354 10.8323 32.6636 10.8348C33.7583 10.8353 34.3947 11.4406 34.3836 12.4519C34.3728 13.4359 33.74 14.0199 32.6652 14.0219C30.6082 14.0259 28.5511 14.0231 26.4558 14.0231V17.3436C30.9158 18.5084 32.7894 22.1519 32.7975 25.1508C32.8057 28.1385 30.9665 31.8232 26.439 33.0125V37.9206C26.6363 37.9206 26.8135 37.9206 26.9906 37.9206C28.8827 37.9206 30.7748 37.9177 32.6669 37.9217C33.7412 37.924 34.374 38.5084 34.3836 39.4924C34.3934 40.5038 33.7572 41.1083 32.6619 41.1089C27.4338 41.1114 22.2057 41.1115 16.9776 41.1088C15.9032 41.1083 15.2707 40.5219 15.261 39.5376C15.251 38.5257 15.8862 37.9237 16.9818 37.9217C19.0387 37.9179 21.0955 37.9206 23.1899 37.9206V33.0043ZM23.7085 27.6977C23.5628 27.5616 23.4418 27.4546 23.3275 27.341C22.6692 26.6868 22.0196 26.0236 21.3522 25.3788C20.9794 25.0186 20.5198 25.0062 20.2477 25.3121C19.9873 25.6048 20.0026 26.2468 20.284 26.5292C21.1848 27.4332 22.0852 28.3376 22.9918 29.2357C23.6286 29.8665 24.3864 29.7699 24.8458 29.0055C26.3126 26.5643 27.7778 24.1221 29.2428 21.6799C29.3109 21.5666 29.3846 21.4542 29.434 21.3325C29.5953 20.9357 29.4627 20.4483 29.1538 20.2665C28.8328 20.0775 28.2868 20.2018 28.0344 20.5309C27.9442 20.6484 27.8764 20.7832 27.7997 20.9109C26.5385 23.0121 25.2778 25.1136 24.016 27.2144C23.9238 27.3679 23.8239 27.5168 23.7085 27.6977Z" fill="#4AB3FF"/>
    <path d="M42.3525 6.06098C42.3525 6.48715 42.3525 6.85042 42.3525 7.2137C42.3525 10.4497 42.353 13.6856 42.3523 16.9216C42.352 18.2654 41.8219 18.8024 40.4948 18.8027C37.4908 18.8036 34.4868 18.8034 31.4828 18.8028C30.12 18.8025 29.6022 18.277 29.6014 16.8965C29.6011 16.4857 29.6013 16.0748 29.6013 15.6113C30.7205 15.6113 31.7952 15.6394 32.8678 15.6039C34.0916 15.5634 35.0247 14.9845 35.5989 13.8991C36.1649 12.8295 36.1137 11.7493 35.4697 10.7301C34.8591 9.76369 33.9496 9.26782 32.8055 9.24765C31.7619 9.22925 30.7176 9.24375 29.6538 9.24375C29.6538 8.54717 29.5874 7.86784 29.6723 7.20792C29.7586 6.53628 30.3088 6.07409 30.9969 6.07046C34.7612 6.05056 38.5256 6.06098 42.3525 6.06098Z" fill="#4AB3FF"/>
    <path d="M29.602 36.3313C29.602 35.7734 29.5981 35.2931 29.6028 34.8129C29.6134 33.7394 30.1979 33.1451 31.2685 33.1425C33.8078 33.1365 36.3471 33.1405 38.8864 33.1405C40.0146 33.1405 41.1429 33.1405 42.3531 33.1405C42.3531 33.3126 42.3531 33.4694 42.3531 33.6261C42.353 37.111 42.3541 40.5959 42.3525 44.0808C42.3519 45.3421 41.7974 45.8893 40.5229 45.8897C37.4857 45.8909 34.4485 45.8911 31.4113 45.8896C30.1489 45.889 29.6042 45.3361 29.602 44.0609C29.6013 43.6311 29.6019 43.2014 29.6019 42.7006C29.8356 42.7006 30.0439 42.7046 30.252 42.6999C31.312 42.6762 32.3884 42.7583 33.4281 42.5999C35.0323 42.3555 36.1067 40.8347 35.9655 39.2375C35.8229 37.6239 34.4721 36.3612 32.8336 36.3346C31.7753 36.3173 30.7166 36.3313 29.602 36.3313Z" fill="#4AB3FF"/>
    <path d="M7.29195 6.05375C7.5128 6.05375 7.67536 6.05375 7.83792 6.05375C11.2901 6.05375 14.7422 6.05321 18.1943 6.05404C19.5005 6.05435 20.0406 6.5929 20.043 7.89329C20.0438 8.32219 20.0431 8.75109 20.0431 9.24337C18.9879 9.24337 17.9618 9.19199 16.9443 9.26333C16.3675 9.30377 15.7514 9.44566 15.2462 9.71605C13.9767 10.3955 13.4141 11.8608 13.7791 13.2529C14.1298 14.5906 15.368 15.5774 16.7709 15.6081C17.8324 15.6313 18.8946 15.6232 19.9564 15.6305C19.9687 15.6306 19.9808 15.6509 20.027 15.6921C20.027 16.27 20.0718 16.8832 20.0158 17.4871C19.9445 18.256 19.3558 18.7892 18.5645 18.7932C15.2951 18.8095 12.0254 18.8133 8.75603 18.7905C7.83947 18.7842 7.29523 18.1228 7.29366 17.1266C7.28909 14.2225 7.29199 11.3184 7.29196 8.41432C7.29195 7.65224 7.29195 6.89017 7.29195 6.05375Z" fill="#4AB3FF"/>
    <path d="M20.0434 36.3297C18.9666 36.3297 17.9712 36.3259 16.9758 36.3305C15.0985 36.3393 13.6685 37.7219 13.6708 39.5202C13.6731 41.316 15.1043 42.6903 16.9874 42.6993C17.9817 42.704 18.9761 42.7001 19.9888 42.7001C19.9888 43.395 20.0589 44.0751 19.9698 44.7336C19.874 45.4419 19.2937 45.8783 18.5477 45.8814C15.2948 45.8949 12.0417 45.8966 8.78885 45.8808C7.95597 45.8768 7.31651 45.3043 7.31101 44.4942C7.28548 40.7304 7.29971 36.9664 7.29971 33.1401C7.5031 33.1401 7.67925 33.1401 7.8554 33.1401C11.2909 33.1401 14.7265 33.1398 18.162 33.1403C19.5257 33.1405 20.0423 33.6648 20.0433 35.0466C20.0436 35.4575 20.0434 35.8683 20.0434 36.3297Z" fill="#4AB3FF"/>
    <path d="M31.2097 4.42762C32.264 3.37974 33.237 2.40646 34.221 1.44436C34.3156 1.35189 34.4779 1.28089 34.609 1.28057C38.2079 1.27183 41.8069 1.27358 45.5373 1.27358C45.2861 1.52665 45.1081 1.70717 44.9288 1.88649C44.1549 2.66081 43.3876 3.4421 42.5997 4.20195C42.4614 4.33527 42.2362 4.45118 42.0507 4.45195C38.5339 4.46652 35.017 4.46269 31.5001 4.46157C31.4393 4.46155 31.3785 4.44789 31.2097 4.42762Z" fill="#4AB3FF"/>
    <path d="M43.9438 17.2036C43.9438 14.0066 44.0147 10.9363 43.9107 7.87191C43.8658 6.54833 44.1821 5.56641 45.2251 4.7445C45.8838 4.22538 46.4231 3.55468 47.0841 2.88266C47.1074 3.09023 47.132 3.20698 47.132 3.32374C47.1341 6.75726 47.1353 10.1908 47.1288 13.6243C47.1284 13.7953 47.1132 14.0213 47.009 14.1284C46.0288 15.1355 45.0277 16.1223 43.9438 17.2036Z" fill="#4AB3FF"/>
    <path d="M45.5335 28.3606C44.4512 29.4453 43.4619 30.4443 42.4587 31.4291C42.3694 31.5167 42.1894 31.545 42.0514 31.5452C38.5346 31.5513 35.0177 31.55 31.5008 31.5489C31.44 31.5489 31.3791 31.5353 31.2222 31.5166C32.0568 30.6833 32.8735 29.9364 33.6054 29.114C34.1223 28.5332 34.6772 28.3302 35.4552 28.3416C38.5899 28.3875 41.7256 28.3606 44.8609 28.3606H45.5335Z" fill="#4AB3FF"/>
    <path d="M47.1335 29.9473V35.6045C47.1335 37.3129 47.1398 39.0214 47.1247 40.7298C47.123 40.9231 47.0545 41.1671 46.9261 41.2999C46.0155 42.242 45.0813 43.1614 44.1538 44.0871C44.1115 44.1293 44.0605 44.1628 43.9436 44.2563V43.746C43.9436 40.3622 43.9366 36.9784 43.9575 33.5948C43.9591 33.3354 44.0957 33.0178 44.2759 32.8284C45.1766 31.8818 46.1129 30.969 47.1335 29.9473Z" fill="#4AB3FF"/>
    <path d="M2.55343 2.90137C3.59424 3.9423 4.58164 4.92288 5.55623 5.91603C5.64629 6.00781 5.69504 6.17949 5.69532 6.31421C5.7027 9.89665 5.70119 13.4791 5.70119 17.1432C5.56169 17.0319 5.46338 16.9674 5.38178 16.8862C4.51181 16.0201 3.63821 15.1574 2.78292 14.277C2.64827 14.1384 2.52359 13.9164 2.52281 13.7324C2.5078 10.1992 2.51191 6.66589 2.51328 3.13261C2.5133 3.08601 2.52884 3.03942 2.55343 2.90137Z" fill="#4AB3FF"/>
    <path d="M5.67407 44.2592C4.62349 43.2111 3.626 42.2231 2.64212 41.2219C2.55348 41.1316 2.51668 40.9551 2.51644 40.8186C2.51002 37.2853 2.51156 33.752 2.51294 30.2187C2.51296 30.1722 2.52864 30.1257 2.56451 29.9262C3.00778 30.3965 3.38131 30.8055 3.76876 31.2008C4.32608 31.7695 4.90377 32.3186 5.44925 32.8982C5.5806 33.0378 5.68979 33.264 5.69054 33.4509C5.70468 36.9509 5.70102 40.4511 5.70006 43.9512C5.70004 44.0264 5.68779 44.1016 5.67407 44.2592Z" fill="#4AB3FF"/>
    <path d="M18.4508 4.46282C14.7295 4.46282 11.1497 4.46481 7.56989 4.4557C7.42277 4.45532 7.23797 4.38935 7.13482 4.28844C6.15209 3.32711 5.18322 2.35163 4.15056 1.3205C4.34491 1.29943 4.46477 1.27516 4.58464 1.27508C8.0159 1.27304 11.4472 1.27169 14.8784 1.27864C15.0484 1.27899 15.272 1.29989 15.3797 1.40466C16.3851 2.38276 17.3707 3.3813 18.4508 4.46282Z" fill="#4AB3FF"/>
    <path d="M18.4603 31.5496C18.1806 31.5496 18.0363 31.5496 17.892 31.5496C14.5104 31.5496 11.1289 31.5567 7.74746 31.5356C7.48852 31.534 7.17194 31.3957 6.98247 31.2155C6.03813 30.3172 5.12735 29.3836 4.13419 28.3921C4.37654 28.3772 4.51631 28.3613 4.6561 28.3612C8.0542 28.3598 11.4523 28.3573 14.8504 28.3675C15.0469 28.3681 15.2999 28.416 15.4303 28.5418C16.4196 29.4963 17.385 30.4757 18.4603 31.5496Z" fill="#4AB3FF"/>
    </svg>