<svg xmlns="http://www.w3.org/2000/svg" width="49" height="48" viewBox="0 0 49 48" fill="none">
    <g clip-path="url(#clip0_338_24876)">
    <g clip-path="url(#clip1_338_24876)">
    <path d="M5.42682 28.2469C6.05781 28.8367 6.63235 29.4532 7.28635 29.9717C10.4512 32.481 15.1254 31.1151 16.4213 27.3116C16.5324 26.9856 16.6959 26.8219 17.0269 26.7111C18.864 26.096 20.0819 24.8501 20.7123 23.0469C20.8058 22.7794 20.9163 22.6204 21.2089 22.5251C23.0837 21.9151 24.3419 20.6723 24.9733 18.8246C25.066 18.5534 25.1874 18.409 25.4831 18.3138C29.6079 16.9857 30.8826 11.9353 27.8854 8.81874C27.4357 8.35119 26.9511 7.91648 26.4296 7.41567C27.5381 6.36059 28.5304 5.28174 29.6628 4.37331C30.9876 3.31044 32.939 3.35129 34.3057 4.2958C35.7555 5.29769 36.382 6.9643 35.9407 8.64489C35.9057 8.77791 35.8721 8.91125 35.8263 9.08932C36.7989 9.55474 37.5772 10.2319 38.0136 11.2433C38.4444 12.242 38.4393 13.2495 38.0733 14.299C39.0639 14.7665 39.8404 15.4486 40.2764 16.4592C40.7069 17.457 40.7037 18.4667 40.3419 19.4869C40.6614 19.6878 40.9954 19.8587 41.2843 20.0857C43.2849 21.6577 43.4082 24.3699 41.554 26.2186C39.419 28.3473 37.2676 30.4598 35.1232 32.5793C34.1948 33.497 33.2549 34.4038 32.3401 35.3347C30.5095 37.1974 28.282 38.0896 25.6629 38.0646C24.9604 38.0579 24.18 37.8943 23.5768 38.1408C22.9743 38.387 22.544 39.0517 22.0471 39.5418C19.7345 41.823 17.4256 44.1078 15.114 46.39C14.2893 47.2042 13.5574 47.2028 12.733 46.3883C8.85224 42.5542 4.97187 38.7197 1.09177 34.8849C0.299264 34.1017 0.302893 33.2706 1.10185 32.4813C2.50601 31.094 3.91099 29.7076 5.31623 28.3215C5.33783 28.3001 5.36727 28.2866 5.42682 28.2469Z" fill="#4AB3FF"/>
    <path d="M21.9151 15.2746C22.6778 16.6761 22.7011 17.9733 21.6085 19.0956C20.4875 20.247 19.1535 20.283 17.6721 19.5115C18.4691 21.0143 18.411 22.3696 17.1671 23.4784C16.0376 24.4852 14.7503 24.4627 13.3466 23.677C13.9113 24.5983 14.0717 25.4664 13.7798 26.3837C13.127 28.4353 10.5302 29.1501 8.92208 27.699C8.08039 26.9394 7.28217 26.1305 6.49491 25.3151C5.47841 24.2622 5.3645 22.7295 6.17755 21.5737C7.0171 20.3802 8.53407 19.9661 9.91493 20.5532C9.99891 20.5889 10.084 20.6221 10.2179 20.6036C9.86383 20.2391 9.49486 19.8876 9.15828 19.508C7.69833 17.8614 8.48908 15.2612 10.6188 14.6791C11.4067 14.4637 12.1577 14.59 12.9459 14.8577C12.7835 14.6931 12.6212 14.5285 12.4586 14.364C12.2949 14.1983 12.1237 14.0393 11.9681 13.8664C10.4033 12.1275 11.2337 9.48454 13.5232 8.94806C14.2755 8.77178 15.0075 8.89683 15.7338 9.21707C15.6654 9.13368 15.5979 9.04966 15.5286 8.96709C15.4588 8.88391 15.3844 8.80437 15.3168 8.71947C14.3689 7.52816 14.5044 5.76454 15.6229 4.72394C16.7696 3.65715 18.5793 3.60422 19.701 4.68624C21.8034 6.71432 23.8785 8.77064 25.9346 10.8446C26.9279 11.8466 26.9902 13.3906 26.1705 14.5513C25.3686 15.6866 23.8481 16.1197 22.5503 15.5785C22.3642 15.501 22.186 15.4049 21.9151 15.2746Z" fill="#4AB3FF"/>
    <path d="M28.1435 40.6334C30.7973 40.1451 32.9118 38.7666 34.7688 36.8846C37.5188 34.0977 40.3311 31.3709 43.1153 28.617C43.2362 28.4974 43.3418 28.3627 43.48 28.2063C43.6231 28.3279 43.7306 28.408 43.825 28.5012C45.1859 29.8434 46.547 31.1855 47.904 32.5316C48.7046 33.3257 48.7005 34.0562 47.8961 34.8513C44.0057 38.6967 40.1147 42.5414 36.223 46.3856C35.3955 47.203 34.6648 47.2043 33.8429 46.3925C32.0517 44.6234 30.2623 42.8526 28.4682 41.0864C28.3487 40.9687 28.1959 40.884 28.0586 40.7839L28.1435 40.6334Z" fill="#4AB3FF"/>
    <path d="M21.9648 2.83813C23.1239 2.26866 24.2873 1.6815 25.4658 1.12535C25.96 0.892143 26.457 0.996277 26.8674 1.33872C27.1856 1.60419 27.4572 1.9242 27.665 2.13445C26.6205 3.24094 25.5822 4.34084 24.5754 5.40732C23.6761 4.52229 22.8393 3.69872 21.9648 2.83813Z" fill="#4AB3FF"/>
    </g>
    </g>
    <defs>
    <clipPath id="clip0_338_24876">
    <rect width="48" height="48" fill="white" transform="translate(0.5)"/>
    </clipPath>
    <clipPath id="clip1_338_24876">
    <rect width="48" height="46" fill="white" transform="translate(0.5 1)"/>
    </clipPath>
    </defs>
    </svg>