<svg xmlns="http://www.w3.org/2000/svg" width="33" height="33" viewBox="0 0 33 33" fill="none">
    <g clip-path="url(#clip0_3028_27374)">
    <path d="M7.38281 25.2344V27.3908L12.2522 29.9006V27.785L7.38281 25.2344Z" fill="#4AB3FF"/>
    <path d="M12.1886 6.65961V4.50781L7.26172 7.05122V9.20308L12.1886 6.65961Z" fill="#4AB3FF"/>
    <path d="M25.7395 9.20314V7.05128L20.8125 4.50781V6.65967L25.7395 9.20314Z" fill="#4AB3FF"/>
    <path d="M20.8789 27.7148V29.8315L25.7337 27.3293V25.1719L20.8789 27.7148Z" fill="#4AB3FF"/>
    <path d="M27.3549 14.8356H25.7379V13.8077L25.035 15.091L24.0997 13.5694L25.7379 12.5808V10.3472L23.0982 11.94L20.811 8.21875V8.25789H18.5907L21.4611 12.9279L17.4545 15.3455V8.25789H15.5425V15.3455L11.536 12.9279L14.4064 8.25789H12.186V8.21875L9.8988 11.94L7.25915 10.3472V12.5808L8.89737 13.5694L7.96204 15.091L7.25915 13.8077V14.8356H5.64206L6.8092 16.9666L5.57812 18.9696H7.38236V19.6856L7.8668 18.8974L8.79261 20.5878L7.38242 21.4369V23.5545L9.71197 22.2663L12.2518 26.9035V25.5034H13.665L11.3514 21.2792L15.5426 18.7555V25.5034H17.4546V18.7555L21.6458 21.2792L19.3321 25.5034H20.8767V26.6638L23.2852 22.2663L25.7314 23.6191V21.5073L24.2045 20.5879L25.1303 18.8975L25.7314 19.8756V18.8422H27.3406L26.1878 16.9667L27.3549 14.8356ZM10.432 19.6007L9.01958 17.022L10.5345 14.5573L14.6667 17.0509L10.432 19.6007ZM22.565 19.6007L18.3303 17.0509L22.4626 14.5573L23.9774 17.022L22.565 19.6007Z" fill="#4AB3FF"/>
    <path d="M14.0508 1.49609H18.9478V6.39248H14.0508V1.49609Z" fill="#4AB3FF"/>
    <path d="M14.1172 27.3672H19.0142V32.2636H14.1172V27.3672Z" fill="#4AB3FF"/>
    <path d="M0.625 20.832H5.52169V25.7287H0.625V20.832Z" fill="#4AB3FF"/>
    <path d="M0.5 8.07422H5.39669V12.9709H0.5V8.07422Z" fill="#4AB3FF"/>
    <path d="M27.5977 20.7031H32.4943V25.5998H27.5977V20.7031Z" fill="#4AB3FF"/>
    <path d="M27.6016 8.07422H32.4983V12.9709H27.6016V8.07422Z" fill="#4AB3FF"/>
    </g>
    <defs>
    <clipPath id="clip0_3028_27374">
    <rect width="32" height="32" fill="white" transform="translate(0.5 0.878906)"/>
    </clipPath>
    </defs>
    </svg>