<svg xmlns="http://www.w3.org/2000/svg" width="44" height="36" viewBox="0 0 44 36" fill="none">
    <rect x="0.391844" y="1.08447" width="43.2415" height="34.4466" rx="6.96261" fill="url(#paint0_linear_447_17946)"/>
    <rect x="0.391844" y="1.08447" width="43.2415" height="34.4466" rx="6.96261" stroke="#081871" stroke-width="0.732906"/>
    <path d="M30.5634 26.6658C35.2497 21.9795 35.2497 14.3815 30.5634 9.69525C25.8771 5.00896 18.2791 5.00896 13.5928 9.69525C8.90655 14.3815 8.90655 21.9795 13.5928 26.6658C18.2791 31.3521 25.8771 31.3521 30.5634 26.6658Z" fill="#C2A633"/>
    <path d="M21.9335 11.6911H18.2037V17.4689H16.6719V18.8842H18.2038V24.6617H22.5497C22.5497 24.6617 28.6602 25.1739 28.6602 18.2848C28.6602 11.5078 22.8159 11.6911 21.9335 11.6911ZM22.4501 22.2641H20.6516V18.8841H23.349V17.4688H20.6516V14.0885H22.3661C23.0074 14.0885 26.2337 14.3467 26.2389 18.3315C26.244 22.3163 22.9122 22.2641 22.4501 22.2641Z" fill="white"/>
    <defs>
    <linearGradient id="paint0_linear_447_17946" x1="22.0126" y1="0.718018" x2="22.0126" y2="35.8975" gradientUnits="userSpaceOnUse">
    <stop stop-color="#020D43"/>
    <stop offset="1" stop-color="#0F2078"/>
    </linearGradient>
    </defs>
    </svg>