<svg xmlns="http://www.w3.org/2000/svg" width="56" height="56" viewBox="0 0 56 56" fill="none">
    <path d="M48.2266 27.6465C48.2266 30.9689 50.9198 33.6621 54.2422 33.6621H55.9977V25.9922H48.2266V27.6465Z" fill="#4AB3FF"/>
    <path d="M32.5949 42.6864C33.6423 40.1594 32.4429 37.2617 29.9158 36.2142C27.3887 35.1667 24.4909 36.3661 23.4435 38.8931C22.396 41.4202 23.5955 44.3179 26.1226 45.3654C28.6497 46.4129 31.5474 45.2135 32.5949 42.6864Z" fill="#4AB3FF"/>
    <path d="M44.9477 27.6465V25.9922H11.0578V27.6465C11.0578 32.7728 6.88723 36.9434 1.76094 36.9434H0V44.5996H1.76094C6.88723 44.5996 11.0578 48.7702 11.0578 53.8965V55.6465H44.9477V53.8965C44.9477 48.7702 49.1182 44.5996 54.2445 44.5996H56V36.9434H54.2445C49.1182 36.9434 44.9477 32.7728 44.9477 27.6465ZM14.8695 42.4423H11.5883C10.6822 42.4423 9.94766 41.7077 9.94766 40.8017C9.94766 39.8956 10.6822 39.161 11.5883 39.161H14.8695C15.7756 39.161 16.5102 39.8956 16.5102 40.8017C16.5102 41.7077 15.7756 42.4423 14.8695 42.4423ZM28.0027 49.0349C23.4629 49.0349 19.7695 45.3414 19.7695 40.8017C19.7695 36.262 23.463 32.5685 28.0027 32.5685C32.5426 32.5685 36.236 36.262 36.236 40.8017C36.236 45.3414 32.5426 49.0349 28.0027 49.0349ZM44.5171 42.4423H41.1359C40.2299 42.4423 39.4953 41.7077 39.4953 40.8017C39.4953 39.8956 40.2299 39.161 41.1359 39.161H44.5171C45.4231 39.161 46.1577 39.8956 46.1577 40.8017C46.1577 41.7077 45.4231 42.4423 44.5171 42.4423Z" fill="#4AB3FF"/>
    <path d="M48.2266 53.8828V55.6328H54.357C55.2631 55.6328 55.9977 54.8983 55.9977 53.9922V47.8672H54.2422C50.9252 47.8672 48.2266 50.5658 48.2266 53.8828Z" fill="#4AB3FF"/>
    <path d="M1.76094 47.8672H0V53.9922C0 54.8983 0.734563 55.6328 1.64063 55.6328H7.77656V53.8828C7.77656 50.5658 5.07795 47.8672 1.76094 47.8672Z" fill="#4AB3FF"/>
    <path d="M7.77656 27.6465V25.9922H0V33.6621H1.76094C5.08331 33.6621 7.77656 30.9689 7.77656 27.6465Z" fill="#4AB3FF"/>
    <path d="M22.5044 8.38887H24.7225V16.0736H31.3047L31.285 8.38559H33.4966C33.9483 8.38559 34.2053 7.87043 33.933 7.50949L28.8722 0.794961C28.4347 0.21418 27.5619 0.21418 27.1255 0.794961L22.068 7.51277C21.7967 7.87262 22.0538 8.38887 22.5044 8.38887Z" fill="#4AB3FF"/>
    <path d="M6.01739 12.8639H8.16661V16.0675H14.7565V12.8661H16.9516C17.4022 12.8661 17.6604 12.3521 17.3891 11.9911L12.3557 5.28098C11.9182 4.69801 11.0432 4.69801 10.6057 5.28098L5.5788 11.9889C5.30865 12.3499 5.56677 12.8639 6.01739 12.8639Z" fill="#4AB3FF"/>
    <path d="M39.0561 12.8661H41.2512V16.0675H47.8411V12.8639H49.9903C50.4409 12.8639 50.699 12.3499 50.4289 11.9889L45.402 5.28098C44.9645 4.69801 44.0895 4.69801 43.652 5.28098L38.6186 11.9911C38.3473 12.3521 38.6054 12.8661 39.0561 12.8661Z" fill="#4AB3FF"/>
    <path d="M11.0547 19.2969H44.9445V22.8278H11.0547V19.2969Z" fill="#4AB3FF"/>
    <path d="M54.357 19.2969H48.2266V22.8278H55.9977V20.9375C55.9977 20.0313 55.2631 19.2969 54.357 19.2969Z" fill="#4AB3FF"/>
    <path d="M7.77656 19.2969H1.64063C0.734563 19.2969 0 20.0314 0 20.9375V22.8278H7.77656V19.2969Z" fill="#4AB3FF"/>
    </svg>