<svg xmlns="http://www.w3.org/2000/svg" width="44" height="36" viewBox="0 0 44 36" fill="none">
    <rect x="0.391844" y="0.545896" width="43.2415" height="34.4466" rx="6.96261" fill="url(#paint0_linear_447_17944)"/>
    <rect x="0.391844" y="0.545896" width="43.2415" height="34.4466" rx="6.96261" stroke="#081871" stroke-width="0.732906"/>
    <path fill-rule="evenodd" clip-rule="evenodd" d="M21.0985 21.7952V17.8098H23.1554C23.9983 17.8098 24.7097 17.5274 25.2896 16.9704L25.4288 16.8292C26.4882 15.676 26.4186 13.8794 25.2896 12.8125C24.7252 12.2476 23.9519 11.9417 23.1554 11.9574H19.8535V21.7952H21.0985ZM21.0996 16.6019V13.1658H23.1878C23.6364 13.1658 24.0617 13.3384 24.3788 13.6522C25.0517 14.3112 25.0671 15.4095 24.4175 16.092C24.1004 16.4294 23.6518 16.6176 23.1878 16.6019H21.0996ZM31.2354 15.5903C30.7019 15.096 29.975 14.845 29.0548 14.845C27.8717 14.845 26.9824 15.2843 26.3947 16.1551L27.4928 16.8533C27.8949 16.2571 28.4439 15.959 29.1398 15.959C29.5806 15.959 30.0059 16.1237 30.3384 16.4218C30.6632 16.7043 30.8488 17.1122 30.8488 17.5437V17.834C30.3694 17.5672 29.7662 17.426 29.0239 17.426C28.1578 17.426 27.4618 17.63 26.9437 18.0458C26.4257 18.4616 26.1627 19.0107 26.1627 19.709C26.1473 20.3444 26.4179 20.9485 26.8973 21.3564C27.3845 21.7958 28.0031 22.0154 28.73 22.0154C29.5883 22.0154 30.2688 21.631 30.7869 20.8622H30.8411V21.7958H32.0319V17.6457C32.0319 16.7749 31.769 16.0845 31.2354 15.5903ZM27.8572 20.5562C27.6019 20.3679 27.4473 20.0619 27.4473 19.7324C27.4473 19.3637 27.6174 19.0578 27.95 18.8146C28.2903 18.5714 28.7156 18.4458 29.2183 18.4458C29.9144 18.438 30.4558 18.5949 30.8425 18.9087C30.8425 19.4422 30.6337 19.905 30.2238 20.2973C29.8525 20.6739 29.3498 20.8857 28.8239 20.8857C28.4759 20.8935 28.1356 20.7758 27.8572 20.5562ZM34.707 24.7535L38.8672 15.0647H37.514L35.5885 19.8973H35.5653L33.5935 15.0647H32.2402L34.9699 21.3644L33.4233 24.7535H34.707Z" fill="white"/>
    <path d="M16.8023 16.9479C16.8023 16.5635 16.7714 16.1791 16.7095 15.8025H11.459V17.9756H14.467C14.3433 18.6738 13.9412 19.3014 13.3535 19.6937V21.1058H15.1475C16.1992 20.1252 16.8023 18.6738 16.8023 16.9479Z" fill="#4285F4"/>
    <path d="M11.4585 22.4704C12.9586 22.4704 14.2268 21.9683 15.147 21.1054L13.353 19.6932C12.8504 20.0384 12.2086 20.2346 11.4585 20.2346C10.0047 20.2346 8.77522 19.2382 8.33446 17.9045H6.48633V19.3637C7.42972 21.2701 9.35518 22.4704 11.4585 22.4704Z" fill="#34A853"/>
    <path d="M8.33454 17.9047C8.10252 17.2065 8.10252 16.4455 8.33454 15.7394V14.2881H6.48612C5.68952 15.8807 5.68952 17.7635 6.48612 19.3561L8.33454 17.9047Z" fill="#FBBC04"/>
    <path d="M11.4585 13.4093C12.255 13.3936 13.0205 13.6996 13.5927 14.2566L15.1857 12.6405C14.1727 11.6834 12.8427 11.1577 11.4585 11.1734C9.35518 11.1734 7.42972 12.3816 6.48633 14.288L8.33446 15.7472C8.77522 14.4056 10.0047 13.4093 11.4585 13.4093Z" fill="#EA4335"/>
    <defs>
    <linearGradient id="paint0_linear_447_17944" x1="22.0126" y1="0.179443" x2="22.0126" y2="35.3589" gradientUnits="userSpaceOnUse">
    <stop stop-color="#020D43"/>
    <stop offset="1" stop-color="#0F2078"/>
    </linearGradient>
    </defs>
    </svg>