<svg xmlns="http://www.w3.org/2000/svg" width="48" height="48" viewBox="0 0 48 48" fill="none">
    <g clip-path="url(#clip0_3941_35011)">
    <path d="M8.99882 38.998C1.77874 31.7779 0.808222 20.4334 6.53468 12.1352C8.06561 12.702 9.80693 12.3459 10.9869 11.166C12.631 9.52179 12.631 6.84632 10.9869 5.20199C9.34266 3.55767 6.6671 3.55767 5.02287 5.20199C3.63692 6.58794 3.41931 8.70647 4.36977 10.3226C-2.28859 19.7472 -1.23458 32.7406 7.01085 40.986C13.8422 47.8173 24.0019 49.8293 32.8695 46.248L31.8167 43.6411C23.952 46.8173 14.9956 44.9948 8.99882 38.998Z" fill="#4AB3FF"/>
    <path d="M40.9916 7.00856C34.1956 0.212441 24.0454 -1.85295 15.1328 1.74656L16.1856 4.35343C24.0501 1.17705 33.0068 2.99971 39.0035 8.99654C46.2235 16.2166 47.1939 27.5611 41.4676 35.8593C39.9694 35.3045 38.2171 35.6268 37.0155 36.8285C35.3711 38.4727 35.3711 41.1482 37.0155 42.7925C38.6596 44.4368 41.3352 44.4368 42.9795 42.7925C44.3654 41.4066 44.583 39.2881 43.6326 37.6719C50.2909 28.2473 49.2369 15.2539 40.9916 7.00856Z" fill="#4AB3FF"/>
    <path d="M23.9963 14.1562C18.5705 14.1562 14.1562 18.5705 14.1562 23.9963C14.1562 29.4221 18.5705 33.8364 23.9963 33.8364C29.4222 33.8364 33.8364 29.4221 33.8364 23.9963C33.8364 18.5705 29.4222 14.1562 23.9963 14.1562Z" fill="#4AB3FF"/>
    </g>
    <defs>
    <clipPath id="clip0_3941_35011">
    <rect width="48" height="48" fill="white"/>
    </clipPath>
    </defs>
    </svg>