<svg xmlns="http://www.w3.org/2000/svg" width="48" height="48" viewBox="0 0 48 48" fill="none">
    <g clip-path="url(#clip0_3941_34179)">
    <path d="M24 0C18.0552 0 13.2188 4.83647 13.2188 10.7812C13.2188 16.726 18.0552 21.5625 24 21.5625C29.9448 21.5625 34.7812 16.726 34.7812 10.7812C34.7812 4.83647 29.9448 0 24 0ZM27.75 12.1875H25.4062V14.5312C25.4062 15.3079 24.7766 15.9375 24 15.9375C23.2234 15.9375 22.5938 15.3079 22.5938 14.5312V12.1875H20.25C19.4734 12.1875 18.8438 11.5579 18.8438 10.7812C18.8438 10.0046 19.4734 9.375 20.25 9.375H22.5938V7.03125C22.5938 6.25462 23.2234 5.625 24 5.625C24.7766 5.625 25.4062 6.25462 25.4062 7.03125V9.375H27.75C28.5266 9.375 29.1562 10.0046 29.1562 10.7812C29.1562 11.5579 28.5266 12.1875 27.75 12.1875Z" fill="#4AB3FF"/>
    <path d="M29.8002 39.3906C28.3459 40.9358 26.2844 41.9035 24 41.9035C21.7156 41.9035 19.6541 40.9358 18.1998 39.3906C15.7765 40.8748 14.1562 43.5471 14.1562 46.591C14.1562 47.3676 14.7859 47.9972 15.5625 47.9972H32.4375C33.2141 47.9972 33.8438 47.3676 33.8438 46.591C33.8438 43.5471 32.2235 40.8748 29.8002 39.3906Z" fill="#4AB3FF"/>
    <path d="M24 39.0938C21.1523 39.0938 18.8438 36.7852 18.8438 33.9375V31.125C18.8438 28.2773 21.1523 25.9688 24 25.9688C26.8477 25.9688 29.1562 28.2773 29.1562 31.125V33.9375C29.1562 36.7852 26.8477 39.0938 24 39.0938Z" fill="#4AB3FF"/>
    <path d="M38.1562 35.8125C35.3085 35.8125 33 33.504 33 30.6562V27.8438C33 24.996 35.3085 22.6875 38.1562 22.6875C41.004 22.6875 43.3125 24.996 43.3125 27.8438V30.6562C43.3125 33.504 41.004 35.8125 38.1562 35.8125Z" fill="#4AB3FF"/>
    <path d="M43.9597 36.1094C42.5054 37.6546 40.4439 38.6222 38.1595 38.6222C35.8751 38.6222 33.8136 37.6546 32.3593 36.1094C31.9523 36.3587 31.5687 36.6421 31.2109 36.9545L31.2724 36.9922C32.8844 37.9796 34.2333 39.3677 35.1735 41.0064C35.8328 42.1558 36.2807 43.4141 36.5011 44.716H46.597C47.3736 44.716 48.0033 44.0864 48.0033 43.3097C48.0033 40.2659 46.383 37.5935 43.9597 36.1094Z" fill="#4AB3FF"/>
    <path d="M16.7308 36.9922L16.7923 36.9545C16.4346 36.6422 16.0508 36.3587 15.644 36.1094C14.1896 37.6547 12.1282 38.6223 9.84375 38.6223C7.55934 38.6223 5.49788 37.6547 4.04353 36.1095C1.62028 37.5936 0 40.266 0 43.3098C0 44.0865 0.629625 44.7161 1.40625 44.7161H11.5022C11.7226 43.4142 12.1703 42.1559 12.8298 41.0065C13.7699 39.3677 15.1189 37.9797 16.7308 36.9922Z" fill="#4AB3FF"/>
    <path d="M9.84375 35.8125C6.996 35.8125 4.6875 33.504 4.6875 30.6562V27.8438C4.6875 24.996 6.996 22.6875 9.84375 22.6875C12.6915 22.6875 15 24.996 15 27.8438V30.6562C15 33.504 12.6915 35.8125 9.84375 35.8125Z" fill="#4AB3FF"/>
    </g>
    <defs>
    <clipPath id="clip0_3941_34179">
    <rect width="48" height="48" fill="white"/>
    </clipPath>
    </defs>
    </svg>