<svg xmlns="http://www.w3.org/2000/svg" width="48" height="48" viewBox="0 0 48 48" fill="none">
    <path d="M31.0131 4.53197L24.5614 1.6134C24.2553 1.4749 23.9048 1.47256 23.5967 1.60693L17.1797 4.40698L24.1018 7.79638L31.0131 4.53197Z" fill="#0094FF"/>
    <path d="M22.6821 10.2405L15.2344 6.59375V14.8233L22.6821 18.1352V10.2405Z" fill="#0094FF"/>
    <path d="M14.5117 41.2597V45.3769C14.5117 45.9993 15.0162 46.5037 15.6385 46.5037H32.1358C32.758 46.5037 33.2625 45.9992 33.2625 45.3769V41.2597C33.2625 39.8823 32.1459 38.7656 30.7685 38.7656H17.0058C15.6284 38.7656 14.5117 39.8823 14.5117 41.2597Z" fill="#0094FF"/>
    <path d="M32.962 6.72656L25.5 10.2512V18.1332L32.962 14.8196V6.72656Z" fill="#0094FF"/>
    <path d="M47.8773 10.6238C47.6505 10.116 47.1464 9.78906 46.5902 9.78906H35.7823V15.7415C35.7823 16.2988 35.454 16.8038 34.9447 17.03L24.6631 21.5957C24.4952 21.5784 24.5207 21.8862 23.5182 21.5955L13.251 17.0297C12.742 16.8033 12.414 16.2986 12.414 15.7415V9.78906H1.40976C0.854814 9.78906 0.351631 10.1145 0.124046 10.6206C-0.10354 11.1267 -0.0130492 11.7192 0.355101 12.1343L21.479 35.9484H26.3074L47.6402 12.1396C48.0112 11.7254 48.1043 11.1317 47.8773 10.6238Z" fill="#0094FF"/>
    </svg>