<svg xmlns="http://www.w3.org/2000/svg" width="49" height="49" viewBox="0 0 49 49" fill="none">
    <g clip-path="url(#clip0_3028_26607)">
    <path d="M29.2305 36.9002C29.0838 36.7791 28.8993 36.6756 28.7816 36.5212C28.2886 35.874 27.8035 35.22 27.3405 34.5512C27.1225 34.2363 26.8693 34.1534 26.4906 34.1638C25.3292 34.1955 24.1653 34.2021 23.0047 34.1587C22.581 34.1429 22.311 34.2364 22.0722 34.5881C21.6253 35.2462 21.1313 35.8722 20.6699 36.5208C20.4159 36.878 20.1274 36.9244 19.758 36.7094C18.5358 35.9979 17.312 35.2891 16.0829 34.5897C15.6801 34.3605 15.6109 34.0726 15.8027 33.6606C16.1381 32.94 16.4321 32.1999 16.7721 31.4816C16.9451 31.1161 16.88 30.8509 16.666 30.5092C16.0505 29.5261 15.4766 28.5151 14.9294 27.4921C14.7505 27.1576 14.5599 26.9743 14.1761 26.9424C13.3658 26.8751 12.559 26.7658 11.7495 26.6864C11.2933 26.6417 11.1103 26.4119 11.1155 25.9522C11.1313 24.572 11.1367 23.1913 11.1133 21.8114C11.1043 21.2868 11.3379 21.0773 11.8247 21.0325C12.5995 20.9614 13.371 20.8505 14.1467 20.7955C14.5788 20.7649 14.7682 20.5503 14.9623 20.1787C15.4912 19.1659 16.0704 18.1773 16.6747 17.2071C16.875 16.8857 16.9487 16.6311 16.7854 16.2817C16.4413 15.5457 16.1378 14.7907 15.7954 14.0538C15.5991 13.6312 15.7066 13.3594 16.1018 13.1349C17.3162 12.4453 18.524 11.7441 19.7294 11.039C20.115 10.8134 20.4136 10.8454 20.6828 11.2299C21.1392 11.8818 21.6336 12.5074 22.0837 13.1635C22.3125 13.497 22.5769 13.5824 22.9764 13.5698C24.1198 13.5338 25.2662 13.5318 26.4093 13.5729C26.8229 13.5878 27.1103 13.5283 27.3539 13.1698C27.8009 12.5117 28.2989 11.8884 28.7539 11.2355C29.0213 10.8517 29.3163 10.8092 29.7044 11.0358C30.9104 11.7399 32.1178 12.4419 33.3335 13.1289C33.7603 13.37 33.8307 13.6665 33.6291 14.0975C33.2923 14.8174 32.9959 15.5563 32.6582 16.2758C32.4958 16.6218 32.5563 16.8758 32.7581 17.2012C33.3787 18.2019 33.96 19.2284 34.5203 20.2645C34.6902 20.5786 34.8725 20.7566 35.2354 20.7879C36.0456 20.8578 36.8526 20.9653 37.6623 21.0423C38.1401 21.0878 38.3328 21.3217 38.3259 21.8073C38.3066 23.1697 38.3012 24.5329 38.328 25.895C38.3388 26.4426 38.101 26.6628 37.5905 26.7085C36.8332 26.7764 36.0794 26.888 35.3212 26.9402C34.8979 26.9694 34.6844 27.1503 34.4861 27.5305C33.9493 28.5591 33.3605 29.5623 32.7516 30.5506C32.5641 30.855 32.4905 31.0977 32.644 31.4284C32.9861 32.1655 33.2911 32.9198 33.6359 33.6555C33.8431 34.0978 33.7331 34.3813 33.317 34.6165C32.1013 35.3036 30.8964 36.0099 29.6851 36.7048C29.5654 36.7734 29.4304 36.8153 29.2305 36.9002ZM24.7271 18.7716C21.9204 18.7681 19.6277 21.0542 19.6243 23.8596C19.6209 26.6647 21.9091 28.9595 24.713 28.9629C27.5188 28.9662 29.8125 26.6787 29.8157 23.8738C29.8188 21.0673 27.5327 18.7751 24.7271 18.7716Z" fill="#4AB3FF"/>
    <path d="M41.7155 3.47076C41.7155 2.2486 41.6969 1.0838 41.7297 -0.0795383C41.7371 -0.342084 41.9239 -0.599564 42.0281 -0.859375C42.2873 -0.753669 42.611 -0.713644 42.7958 -0.532128C44.701 1.34008 46.5838 3.23515 48.4981 5.14914C48.3779 5.28535 48.2819 5.40669 48.1733 5.51546C46.397 7.29421 44.6261 9.0786 42.8314 10.8386C42.6341 11.0322 42.2978 11.084 42.0259 11.2016C41.9224 10.9235 41.738 10.6479 41.7297 10.367C41.6956 9.2217 41.7155 8.07483 41.7155 6.87301C41.5145 6.87301 41.3607 6.87301 41.2068 6.87301C35.9312 6.87303 30.6535 6.77902 25.3805 6.89587C18.0879 7.05747 12.5931 10.3368 9.31174 16.9145C7.21585 21.1159 7.23329 25.5082 8.82946 29.9034C8.8958 30.086 8.96912 30.2662 9.04282 30.4461C9.18237 30.7866 9.07775 31.0358 8.75308 31.1881C8.08103 31.5033 7.41023 31.822 6.729 32.1163C6.33369 32.2871 6.06492 32.1452 5.89469 31.7345C4.66778 28.7741 4.15532 25.6959 4.36765 22.5009C4.96977 13.4408 11.6728 6.10686 20.3927 4.07487C22.0654 3.68508 23.8217 3.52177 25.5429 3.4972C30.6936 3.42368 35.8459 3.47076 40.9976 3.47075C41.2092 3.47075 41.4208 3.47076 41.7155 3.47076Z" fill="#4AB3FF"/>
    <path d="M7.72496 44.2641C7.72496 45.5114 7.74167 46.679 7.71158 47.8453C7.70517 48.0935 7.57162 48.5039 7.41976 48.5434C7.19996 48.6004 6.84217 48.4567 6.66055 48.2789C4.75136 46.4096 2.86555 44.5164 0.945312 42.602C1.05039 42.4728 1.12636 42.3608 1.2203 42.2667C3.0213 40.4624 4.81803 38.6539 6.63671 36.8676C6.82279 36.6849 7.14296 36.6386 7.40091 36.5291C7.50893 36.7861 7.70266 37.0407 7.71023 37.3007C7.74411 38.465 7.72497 39.6308 7.72497 40.8353C7.93113 40.8453 8.10189 40.8608 8.27264 40.8609C13.5306 40.8621 18.7905 40.9521 24.0461 40.84C31.3662 40.6839 36.8683 37.3841 40.1449 30.7824C42.2217 26.5981 42.2045 22.218 40.6112 17.8409C40.5387 17.6416 40.4501 17.4482 40.3789 17.2486C40.2659 16.9319 40.3617 16.6917 40.6679 16.5486C41.3406 16.2343 42.0108 15.9142 42.6909 15.6167C43.1166 15.4304 43.3852 15.5953 43.5519 16.0289C46.3001 23.1768 45.5746 29.9193 40.9175 36.0351C37.1536 40.9779 32.0208 43.621 25.8287 44.1782C25.16 44.2384 24.4859 44.2597 23.8142 44.2605C18.6802 44.2671 13.5461 44.2641 8.41209 44.2641C8.20337 44.2641 7.99465 44.2641 7.72496 44.2641Z" fill="#4AB3FF"/>
    </g>
    <defs>
    <clipPath id="clip0_3028_26607">
    <rect width="48" height="48" fill="white" transform="translate(0.5 0.0976562)"/>
    </clipPath>
    </defs>
    </svg>