<svg xmlns="http://www.w3.org/2000/svg" width="33" height="33" viewBox="0 0 33 33" fill="none">
    <g clip-path="url(#clip0_3028_27354)">
    <path d="M16.5 0.4375C7.71187 0.4375 0.5 7.64937 0.5 16.4375C0.5 25.2256 7.71187 32.4375 16.5 32.4375C25.2881 32.4375 32.5 25.2256 32.5 16.4375C32.5 7.64937 25.2881 0.4375 16.5 0.4375ZM18.375 23.9375C18.375 24.9711 17.5336 25.8125 16.5 25.8125C15.4664 25.8125 14.625 24.9711 14.625 23.9375V14.5625C14.625 13.5289 15.4664 12.6875 16.5 12.6875C17.5336 12.6875 18.375 13.5289 18.375 14.5625V23.9375ZM16.5 10.8125C15.4664 10.8125 14.625 9.97112 14.625 8.9375C14.625 7.90387 15.4664 7.0625 16.5 7.0625C17.5336 7.0625 18.375 7.90387 18.375 8.9375C18.375 9.97112 17.5336 10.8125 16.5 10.8125Z" fill="#4AB3FF"/>
    </g>
    <defs>
    <clipPath id="clip0_3028_27354">
    <rect width="32" height="32" fill="white" transform="translate(0.5 0.4375)"/>
    </clipPath>
    </defs>
    </svg>