<svg xmlns="http://www.w3.org/2000/svg" width="33" height="33" viewBox="0 0 33 33" fill="none">
    <g clip-path="url(#clip0_3028_27369)">
    <path d="M5.13578 21.8765H15.5081V23.838H17.3822V21.8765H27.8615V23.838H29.7355V20.0025H17.3822V17.9883H15.5081V20.0025H3.26172V23.838H5.13578V21.8765Z" fill="#4AB3FF"/>
    <path d="M0.5 32.8807H7.77525V25.6055H0.5V32.8807Z" fill="#4AB3FF"/>
    <path d="M16.4463 25.6055C14.4405 25.6055 12.8086 27.2373 12.8086 29.2431C12.8086 31.2489 14.4405 32.8808 16.4463 32.8808C18.4521 32.8808 20.084 31.2489 20.084 29.2431C20.0839 27.2373 18.452 25.6055 16.4463 25.6055Z" fill="#4AB3FF"/>
    <path d="M30.3289 25.6055H27.3994L25.2266 27.7783V30.7078L27.3994 32.8807H30.3289L32.5018 30.7078V27.7783L30.3289 25.6055Z" fill="#4AB3FF"/>
    <path d="M22.2667 9.83303C22.3695 9.39578 22.4242 8.93991 22.4242 8.47122C22.4242 8.00253 22.3695 7.54672 22.2667 7.10941L23.9279 6.15028L22.2245 3.19978L20.562 4.15966C19.9011 3.53697 19.0971 3.06466 18.2045 2.79709V0.878906H14.7977V2.79716C13.9051 3.06472 13.1011 3.53703 12.4402 4.15972L10.7777 3.19984L9.07422 6.15028L10.7355 7.10941C10.6326 7.54666 10.5779 8.00253 10.5779 8.47122C10.5779 8.93991 10.6326 9.39572 10.7355 9.83303L9.07422 10.7922L10.7777 13.7427L12.4402 12.7828C13.101 13.4055 13.905 13.8777 14.7976 14.1453V16.0636H18.2045V14.1453C19.097 13.8778 19.901 13.4055 20.5619 12.7828L22.2244 13.7427L23.9278 10.7922L22.2667 9.83303ZM16.5011 11.9728C14.6 11.9728 13.0533 10.4261 13.0533 8.52497C13.0533 6.62384 14.6 5.07716 16.5011 5.07716C18.4022 5.07716 19.9489 6.62384 19.9489 8.52497C19.9489 10.4261 18.4022 11.9728 16.5011 11.9728Z" fill="#4AB3FF"/>
    <path d="M16.5025 10.0988C17.3711 10.0988 18.0753 9.39458 18.0753 8.52594C18.0753 7.6573 17.3711 6.95312 16.5025 6.95312C15.6339 6.95312 14.9297 7.6573 14.9297 8.52594C14.9297 9.39458 15.6339 10.0988 16.5025 10.0988Z" fill="#4AB3FF"/>
    </g>
    <defs>
    <clipPath id="clip0_3028_27369">
    <rect width="32" height="32" fill="white" transform="translate(0.5 0.878906)"/>
    </clipPath>
    </defs>
    </svg>