<svg xmlns="http://www.w3.org/2000/svg" width="51" height="50" viewBox="0 0 51 50" fill="none">
    <g clip-path="url(#clip0_3028_27332)">
    <path d="M50.3451 27.3694L46.7814 20.4388C47.8255 17.3417 47.6954 14.2304 46.3923 11.1805C44.6642 7.13656 40.9777 4.13821 36.772 3.35429C32.6598 2.5902 28.5467 3.772 25.4999 6.53995C22.4516 3.77352 18.3432 2.58601 14.2275 3.35429C10.0222 4.13821 6.33565 7.13656 4.60759 11.179C3.30449 14.2304 3.17403 17.3417 4.21849 20.4384L0.6548 27.3694C0.427443 27.8229 0.451857 28.3623 0.719268 28.7941C0.986678 29.2264 1.55507 29.4892 2.06281 29.4892H6.45734V33.8837C6.45734 36.3072 8.4284 38.2783 10.8519 38.2783H16.7109C17.5192 38.2783 18.1757 38.9348 18.1757 39.7431V45.6025C18.1757 46.412 18.8311 47.0673 19.6406 47.0673H31.3593C32.1688 47.0673 32.8242 46.412 32.8242 45.6025V39.7431C32.8242 38.9348 33.4807 38.2783 34.289 38.2783H40.148C42.5715 38.2783 44.5426 36.3072 44.5426 33.8837V29.4892H49.0347C49.5425 29.4892 50.0132 29.2264 50.2806 28.7941C50.548 28.3623 50.5725 27.8229 50.3451 27.3694ZM25.4999 20.7005C27.923 20.7005 29.8945 22.6716 29.8945 25.095C29.8945 27.002 28.6661 28.6129 26.9648 29.2195V30.954C26.9648 31.7639 26.3094 32.4189 25.4999 32.4189C24.6901 32.4189 24.0351 31.7639 24.0351 30.954V29.2195C22.3337 28.6129 21.1054 27.002 21.1054 25.095C21.1054 24.2852 21.7608 23.6302 22.5703 23.6302C23.3801 23.6302 24.0351 24.2852 24.0351 25.095C24.0351 25.903 24.6916 26.5599 25.4999 26.5599C26.3083 26.5599 26.9648 25.903 26.9648 25.095C26.9648 24.2867 26.3083 23.6302 25.4999 23.6302C23.0768 23.6302 21.1054 21.6587 21.1054 19.2357C21.1054 17.3283 22.3337 15.7177 24.0351 15.1108V13.3763C24.0351 12.5668 24.6901 11.9114 25.4999 11.9114C26.3094 11.9114 26.9648 12.5668 26.9648 13.3763V15.1108C28.6661 15.7177 29.8945 17.3283 29.8945 19.2357C29.8945 20.0451 29.2391 20.7005 28.4296 20.7005C27.6198 20.7005 26.9648 20.0451 26.9648 19.2357C26.9648 18.4273 26.3083 17.7708 25.4999 17.7708C24.6916 17.7708 24.0351 18.4273 24.0351 19.2357C24.0351 20.044 24.6916 20.7005 25.4999 20.7005Z" fill="#4AB3FF"/>
    </g>
    <defs>
    <clipPath id="clip0_3028_27332">
    <rect width="50" height="50" fill="white" transform="translate(0.5)"/>
    </clipPath>
    </defs>
    </svg>