<svg xmlns="http://www.w3.org/2000/svg" width="51" height="50" viewBox="0 0 51 50" fill="none">
    <g clip-path="url(#clip0_3028_27321)">
    <path d="M35.8516 0H5.87109C2.90947 0 0.5 2.40947 0.5 5.37109V7.8125H35.8516V0Z" fill="#4AB3FF"/>
    <path d="M45.1289 0H38.7812V7.8125H50.5V5.37109C50.5 2.40947 48.0905 0 45.1289 0Z" fill="#4AB3FF"/>
    <path d="M23.0586 23.7812L14.2695 27.4434V31.3496L23.0586 35.0117V23.7812Z" fill="#4AB3FF"/>
    <path d="M9.875 30.8594H11.3398V27.9297H9.875C9.06729 27.9297 8.41016 28.5868 8.41016 29.3945C8.41016 30.2022 9.06729 30.8594 9.875 30.8594Z" fill="#4AB3FF"/>
    <path d="M0.5 44.6289C0.5 47.5905 2.90947 50 5.87109 50H45.1289C48.0905 50 50.5 47.5905 50.5 44.6289V10.7422H0.5V44.6289ZM32.3359 22.0703H44.0547C44.8637 22.0703 45.5195 22.7262 45.5195 23.5352C45.5195 24.3441 44.8637 25 44.0547 25H32.3359C31.527 25 30.8711 24.3441 30.8711 23.5352C30.8711 22.7262 31.527 22.0703 32.3359 22.0703ZM32.3359 27.9297H44.0547C44.8637 27.9297 45.5195 28.5855 45.5195 29.3945C45.5195 30.2035 44.8637 30.8594 44.0547 30.8594H32.3359C31.527 30.8594 30.8711 30.2035 30.8711 29.3945C30.8711 28.5855 31.527 27.9297 32.3359 27.9297ZM32.3359 33.7891H44.0547C44.8637 33.7891 45.5195 34.4449 45.5195 35.2539C45.5195 36.0629 44.8637 36.7188 44.0547 36.7188H32.3359C31.527 36.7188 30.8711 36.0629 30.8711 35.2539C30.8711 34.4449 31.527 33.7891 32.3359 33.7891ZM9.875 25H12.5117L23.0586 20.6055V20.1172C23.0586 19.3082 23.7145 18.6523 24.5234 18.6523C25.3324 18.6523 25.9883 19.3082 25.9883 20.1172V38.6719C25.9883 39.4809 25.3324 40.1367 24.5234 40.1367C23.7145 40.1367 23.0586 39.4809 23.0586 38.6719V38.1836L14.2695 34.5215V40.625C14.2695 41.434 13.6137 42.0898 12.8047 42.0898C11.9957 42.0898 11.3398 41.434 11.3398 40.625V33.7891H9.875C7.45186 33.7891 5.48047 31.8177 5.48047 29.3945C5.48047 26.9714 7.45186 25 9.875 25Z" fill="#4AB3FF"/>
    </g>
    <defs>
    <clipPath id="clip0_3028_27321">
    <rect width="50" height="50" fill="white" transform="translate(0.5)"/>
    </clipPath>
    </defs>
    </svg>