<svg xmlns="http://www.w3.org/2000/svg" width="45" height="36" viewBox="0 0 45 36" fill="none">
    <rect x="1.32739" y="0.366453" width="43.2415" height="34.4466" rx="6.96261" fill="url(#paint0_linear_447_17943)"/>
    <rect x="1.32739" y="0.366453" width="43.2415" height="34.4466" rx="6.96261" stroke="#081871" stroke-width="0.732906"/>
    <path fill-rule="evenodd" clip-rule="evenodd" d="M23.316 24.1802C21.8799 25.4192 20.0173 26.1671 17.982 26.1671C13.4399 26.1671 9.75781 22.4423 9.75781 17.8475C9.75781 13.2527 13.4399 9.52783 17.982 9.52783C20.0173 9.52783 21.8799 10.2758 23.316 11.5148C24.752 10.2758 26.6146 9.52783 28.6499 9.52783C33.192 9.52783 36.8741 13.2527 36.8741 17.8475C36.8741 22.4423 33.192 26.1671 28.6499 26.1671C26.6146 26.1671 24.752 25.4192 23.316 24.1802Z" fill="#ED0006"/>
    <path fill-rule="evenodd" clip-rule="evenodd" d="M23.3164 24.1802C25.0851 22.6542 26.2066 20.3833 26.2066 17.8475C26.2066 15.3116 25.0851 13.0407 23.3164 11.5148C24.7524 10.2758 26.6151 9.52783 28.6504 9.52783C33.1925 9.52783 36.8746 13.2527 36.8746 17.8475C36.8746 22.4423 33.1925 26.1671 28.6504 26.1671C26.6151 26.1671 24.7524 25.4192 23.3164 24.1802Z" fill="#F9A000"/>
    <path fill-rule="evenodd" clip-rule="evenodd" d="M23.316 24.1806C25.0846 22.6546 26.2061 20.3837 26.2061 17.8479C26.2061 15.312 25.0846 13.0411 23.316 11.5151C21.5473 13.0411 20.4258 15.312 20.4258 17.8479C20.4258 20.3837 21.5473 22.6546 23.316 24.1806Z" fill="#FF5E00"/>
    <defs>
    <linearGradient id="paint0_linear_447_17943" x1="22.9481" y1="0" x2="22.9481" y2="35.1795" gradientUnits="userSpaceOnUse">
    <stop stop-color="#020D43"/>
    <stop offset="1" stop-color="#0F2078"/>
    </linearGradient>
    </defs>
    </svg>