<svg xmlns="http://www.w3.org/2000/svg" width="51" height="50" viewBox="0 0 51 50" fill="none">
    <g clip-path="url(#clip0_3028_27327)">
    <path d="M40.9582 23.5352H38.1094C38.1648 24.0159 38.1944 24.5046 38.1944 25C38.1944 25.4954 38.1649 25.9841 38.1094 26.4648H40.9582C41.5819 28.4438 43.4341 29.8828 45.6162 29.8828C48.3086 29.8828 50.499 27.6924 50.499 25C50.499 22.3076 48.3086 20.1172 45.6162 20.1172C43.434 20.1172 41.5818 21.5562 40.9582 23.5352Z" fill="#4AB3FF"/>
    <path d="M42.201 33.3963C40.4404 33.3963 38.8074 33.9488 37.4628 34.8873L35.4505 32.875C34.8417 33.6423 34.1462 34.3378 33.3789 34.9466L35.3912 36.9589C34.4527 38.3035 33.9002 39.9366 33.9002 41.6971C33.9002 46.2741 37.6239 49.9979 42.201 49.9979C46.778 49.9979 50.5018 46.2741 50.5018 41.6971C50.5018 37.12 46.778 33.3963 42.201 33.3963Z" fill="#4AB3FF"/>
    <path d="M7.82422 14.6484C9.31484 14.6484 10.7021 14.1998 11.8603 13.4319L15.5513 17.1229C16.1601 16.3557 16.8556 15.6602 17.6229 15.0514L13.9318 11.3604C14.6998 10.2021 15.1484 8.81484 15.1484 7.32422C15.1484 3.28564 11.8628 0 7.82422 0C3.78564 0 0.5 3.28564 0.5 7.32422C0.5 11.3628 3.78564 14.6484 7.82422 14.6484Z" fill="#4AB3FF"/>
    <path d="M25.5 34.7656C30.8934 34.7656 35.2656 30.3934 35.2656 25C35.2656 19.6066 30.8934 15.2344 25.5 15.2344C20.1066 15.2344 15.7344 19.6066 15.7344 25C15.7344 30.3934 20.1066 34.7656 25.5 34.7656Z" fill="#4AB3FF"/>
    <path d="M12.8897 26.4648C12.8343 25.9841 12.8047 25.4954 12.8047 25C12.8047 24.5046 12.8342 24.0159 12.8897 23.5352H8.02646C7.4457 22.1052 6.04228 21.0938 4.40625 21.0938C2.25234 21.0938 0.5 22.8461 0.5 25C0.5 27.1539 2.25234 28.9062 4.40625 28.9062C6.04228 28.9062 7.4457 27.8948 8.02646 26.4648H12.8897Z" fill="#4AB3FF"/>
    <path d="M33.6886 15.3074L38.1014 8.65674C38.444 8.74277 38.8023 8.78906 39.1714 8.78906C41.5945 8.78906 43.5659 6.81768 43.5659 4.39453C43.5659 1.97139 41.5945 0 39.1714 0C36.7482 0 34.7769 1.97139 34.7769 4.39453C34.7769 5.38486 35.1064 6.29951 35.6612 7.03525L31.25 13.6837C32.1265 14.1308 32.9439 14.6772 33.6886 15.3074Z" fill="#4AB3FF"/>
    <path d="M17.3109 34.6953L12.8981 41.346C12.5555 41.26 12.1972 41.2137 11.8281 41.2137C9.40498 41.2137 7.43359 43.1851 7.43359 45.6082C7.43359 48.0313 9.40498 50.0027 11.8281 50.0027C14.2513 50.0027 16.2227 48.0313 16.2227 45.6082C16.2227 44.6179 15.8931 43.7032 15.3382 42.9675L19.7494 36.319C18.873 35.8719 18.0556 35.3255 17.3109 34.6953Z" fill="#4AB3FF"/>
    </g>
    <defs>
    <clipPath id="clip0_3028_27327">
    <rect width="50" height="50" fill="white" transform="translate(0.5)"/>
    </clipPath>
    </defs>
    </svg>