<svg xmlns="http://www.w3.org/2000/svg" width="48" height="48" viewBox="0 0 48 48" fill="none">
    <g clip-path="url(#clip0_1_834)">
    <path d="M32.3732 43.9752L28.2113 33.2291L25.5081 40.2091L28.5254 48L32.3732 43.9752Z" fill="#4AB3FF"/>
    <path d="M32.7112 28.611C31.7743 29.1531 30.7989 29.4655 29.8387 29.6436L34.9959 42.9595L40.5509 43.3427L34.3629 27.3652C33.8789 27.8279 33.3347 28.2502 32.7112 28.611Z" fill="#4AB3FF"/>
    <path d="M13.0041 42.9594L18.1613 29.6435C17.2011 29.4654 16.2257 29.153 15.2888 28.611C14.6653 28.2502 14.1211 27.8278 13.6371 27.3651L7.4491 43.3426L13.0041 42.9594Z" fill="#4AB3FF"/>
    <path d="M26.4979 29.8659C26.1253 29.861 24.4502 29.8156 24 29.8156C23.5499 29.8156 21.6029 29.8684 21.0901 29.869L15.6268 43.9754L19.4746 48L26.4979 29.8659Z" fill="#4AB3FF"/>
    <path d="M24 0.053625C23.0244 0.053625 22.0311 0 21.0607 0C19.4873 0 17.9745 0.141 16.6971 0.880031C14.5666 2.11266 13.5607 4.65994 12.3281 6.7905C11.1333 8.85562 9.39709 10.9709 9.39709 13.5283C9.39709 16.0857 11.1333 18.201 12.3281 20.2661C13.5607 22.3967 14.5666 24.9439 16.6971 26.1766C17.9745 26.9156 19.4871 27.0565 21.0604 27.0565C22.0308 27.0565 23.0243 27.0029 23.9999 27.0029C24.9754 27.0029 25.9689 27.0565 26.9392 27.0565C28.5126 27.0565 30.0253 26.9156 31.3026 26.1765C33.4332 24.9439 34.439 22.3966 35.6717 20.266C36.8665 18.2009 38.6027 16.0856 38.6027 13.5282C38.6027 10.9708 36.8665 8.85553 35.6717 6.79041C34.439 4.65984 33.4332 2.11266 31.3026 0.879937C30.0253 0.140906 28.5128 0 26.9393 0C25.9691 0 24.9754 0.053625 24 0.053625ZM27.7233 9.10209L25.5222 10.8529C25.2956 10.5679 24.4518 9.88491 23.7396 10.2054C23.3773 10.3684 23.2783 10.6297 23.2514 10.7709C23.23 10.8833 23.2479 11.1035 23.4411 11.3267C23.8283 11.774 24.7805 11.9671 25.4803 12.1822C26.5257 12.5034 27.3111 13.2642 27.7322 14.2025C28.1427 15.1177 28.1588 16.1796 27.7764 17.1161C27.3571 18.1431 26.4753 18.9311 25.4061 19.3052V21.8408H22.5936V19.3641C21.4973 19.0747 20.5298 18.439 19.7493 17.4812L21.9297 15.7046C22.5008 16.4056 23.1587 16.732 24 16.732C24.6152 16.732 25.0391 16.3801 25.1726 16.0531C25.2656 15.8253 25.2708 15.5668 25.166 15.3537C24.9999 15.0157 24.7499 14.9063 24.0472 14.6622C23.0173 14.3045 22.1249 14.0036 21.3932 13.2533C20.6197 12.4602 20.2814 11.3362 20.4882 10.2465C20.7043 9.10837 21.4883 8.13431 22.5857 7.64062C22.5884 7.63941 22.591 7.63856 22.5936 7.63734V5.21578H25.4061V7.51275C26.4097 7.83994 27.2436 8.499 27.7233 9.10209Z" fill="#4AB3FF"/>
    </g>
    <defs>
    <clipPath id="clip0_1_834">
    <rect width="48" height="48" fill="white"/>
    </clipPath>
    </defs>
    </svg>