<svg xmlns="http://www.w3.org/2000/svg" width="51" height="50" viewBox="0 0 51 50" fill="none">
    <g clip-path="url(#clip0_3028_27316)">
    <path d="M29.4852 30.6744C37.8751 30.6744 44.7008 23.7941 44.7008 15.3373C44.7008 6.88037 37.8751 0 29.4852 0C21.0953 0 14.2695 6.88028 14.2695 15.3372C14.2695 23.794 21.0953 30.6744 29.4852 30.6744ZM24.5959 20.1232C25.0385 19.4466 25.9459 19.2567 26.6224 19.6995C27.6084 20.3443 27.9802 20.4038 29.2811 20.3947C30.5508 20.3863 31.2876 19.4399 31.4348 18.564C31.5064 18.138 31.5339 17.0977 30.2446 16.6419C28.7323 16.1073 27.1846 15.4962 26.1079 14.6517C25.0312 13.8072 24.5381 12.3493 24.8213 10.8472C25.1282 9.21873 26.2641 7.92243 27.7859 7.46411C27.7997 7.46001 27.8131 7.45669 27.8269 7.45259V6.89765C27.8269 6.08915 28.4824 5.43368 29.2909 5.43368C30.0994 5.43368 30.7548 6.08915 30.7548 6.89765V7.36036C31.7492 7.59772 32.4436 8.05262 32.7255 8.26334C33.3731 8.74752 33.5056 9.66485 33.0215 10.3125C32.5375 10.9602 31.6201 11.0927 30.9725 10.6084C30.6725 10.3841 29.8434 9.90201 28.6303 10.2675C27.9217 10.4811 27.7379 11.1803 27.6984 11.3894C27.6211 11.8004 27.7079 12.1856 27.9148 12.3478C28.6612 12.9332 30.0047 13.4516 31.2204 13.8813C33.4621 14.6737 34.7086 16.7506 34.3222 19.0494C34.1326 20.1773 33.5652 21.2238 32.7244 21.9963C32.1517 22.5225 31.4851 22.8977 30.7548 23.1119V23.7767C30.7548 24.5852 30.0994 25.2406 29.2909 25.2406C28.4824 25.2406 27.8269 24.5852 27.8269 23.7767V23.2579C26.8803 23.1431 26.0856 22.8471 25.0195 22.1497C24.343 21.7071 24.1533 20.7997 24.5959 20.1232Z" fill="#4AB3FF"/>
    <path d="M6.04812 35.5938H2.71007C1.90156 35.5938 1.24609 36.2492 1.24609 37.0577V48.5343C1.24609 49.3428 1.90156 49.9983 2.71007 49.9983H6.04821L6.04812 35.5938Z" fill="#4AB3FF"/>
    <path d="M49.3236 35.4906C46.5798 32.7466 42.1149 32.7465 39.3712 35.4906L34.9857 39.876L33.1882 41.6734C32.4618 42.3999 31.4764 42.808 30.4491 42.808H21.7088C20.9194 42.808 20.2402 42.2013 20.203 41.4128C20.1634 40.571 20.8341 39.876 21.6673 39.876H30.5513C32.3376 39.876 33.8868 38.6043 34.1939 36.8447C34.2644 36.4406 34.3012 36.0251 34.3012 35.6012C34.3013 34.7912 33.6451 34.134 32.8352 34.134H27.9673C26.3765 34.134 24.8488 33.4123 23.2313 32.6481C21.5347 31.8468 19.7805 31.0181 17.7293 30.8816C15.9352 30.7621 14.1371 30.9585 12.3845 31.4646C10.508 32.0064 9.15907 33.6736 8.9955 35.5984C8.98925 35.598 8.98291 35.5979 8.97656 35.5975V49.9923L34.1986 49.9992C35.9327 49.9992 37.5632 49.3239 38.7896 48.0975L49.3233 37.5638C49.8961 36.9915 49.8961 36.0631 49.3236 35.4906Z" fill="#4AB3FF"/>
    <path d="M-4 15.375C-0.898251 15.375 1.625 12.8517 1.625 9.75C1.625 6.64825 -0.898251 4.125 -4 4.125C-7.10175 4.125 -9.625 6.64825 -9.625 9.75C-9.625 12.8517 -7.10175 15.375 -4 15.375ZM-4 7.875C-2.9645 7.875 -2.125 8.71425 -2.125 9.75C-2.125 10.7855 -2.9645 11.625 -4 11.625C-5.0355 11.625 -5.875 10.7855 -5.875 9.75C-5.875 8.71438 -5.0355 7.875 -4 7.875Z" fill="black"/>
    </g>
    <defs>
    <clipPath id="clip0_3028_27316">
    <rect width="50" height="50" fill="white" transform="translate(0.5)"/>
    </clipPath>
    </defs>
    </svg>