<svg xmlns="http://www.w3.org/2000/svg" width="49" height="48" viewBox="0 0 49 48" fill="none">
    <g clip-path="url(#clip0_338_24861)">
    <g clip-path="url(#clip1_338_24861)">
    <path d="M29.184 36.1852C23.4722 30.5908 17.7757 25.0115 12.0586 19.4119C13.0138 17.5829 14.1605 15.8404 15.4656 14.2001C18.4194 10.4876 21.8805 7.32104 26.027 4.91063C28.9876 3.18959 32.1919 2.07729 35.5481 1.3761C39.0602 0.642337 42.6106 0.337824 46.1987 0.583881C47.4162 0.667376 48.3131 1.55331 48.4116 2.74392C48.595 4.96164 48.4731 7.17275 48.2271 9.38093C47.8809 12.4897 47.1545 15.5061 46.0096 18.4276C44.5814 22.0723 42.3977 25.2472 39.7322 28.1182C36.7471 31.3333 33.3401 34.0306 29.4106 36.0742C29.3289 36.1166 29.2453 36.1552 29.184 36.1852ZM26.3665 15.2973C26.3659 19.1182 29.468 22.1654 33.3617 22.1691C37.2695 22.1727 40.4283 19.0911 40.4168 15.2864C40.4054 11.5084 37.2331 8.41365 33.3748 8.41667C29.5044 8.4197 26.3671 11.4998 26.3665 15.2973Z" fill="#4AB3FF"/>
    <path d="M26.3028 37.4759C24.495 38.1943 22.57 38.733 20.5811 39.0317C19.832 39.1443 19.1513 38.883 18.616 38.3611C15.6838 35.5027 12.7562 32.6397 9.84176 29.7639C9.19127 29.1221 9.04206 28.3318 9.21486 27.4349C9.56207 25.6326 10.0694 23.8815 10.7415 22.236C15.9192 27.3067 21.1015 32.382 26.3028 37.4759Z" fill="#4AB3FF"/>
    <path d="M35.5391 35.5433C35.4137 37.0674 35.332 38.4852 35.1693 39.894C35.0516 40.9132 34.5036 41.7428 33.6372 42.3129C31.1919 43.9219 28.7404 45.5227 26.2641 47.0853C24.6615 48.0966 22.645 47.1627 22.345 45.3183C22.1491 44.114 21.9578 42.909 21.7539 41.639C26.8141 40.6678 31.3304 38.534 35.5391 35.5433Z" fill="#4AB3FF"/>
    <path d="M6.49361 26.6875C5.1091 26.4749 3.78938 26.3305 2.49742 26.0592C0.786478 25.7 -0.0486968 23.7966 0.893092 22.3476C2.50889 19.8616 4.18155 17.4102 5.87166 14.9718C6.48686 14.0842 7.41039 13.6114 8.51805 13.5235C9.88274 13.4152 11.2474 13.307 12.7162 13.1905C9.66526 17.3024 7.48689 21.7149 6.49361 26.6875Z" fill="#4AB3FF"/>
    <path d="M10.8808 36.1079C11.8284 36.1052 12.4954 37.2206 11.95 38.1541C11.8511 38.3233 11.7127 38.4758 11.5709 38.6149C8.73866 41.3926 5.90219 44.1662 3.06975 46.9438C2.66003 47.3456 2.1978 47.5946 1.60463 47.4494C0.591898 47.2013 0.192421 46.1037 0.807885 45.278C0.899102 45.1556 1.01353 45.0488 1.12355 44.941C3.9351 42.1862 6.74868 39.4333 9.55813 36.6765C9.88804 36.3527 10.2428 36.1001 10.8808 36.1079Z" fill="#4AB3FF"/>
    <path d="M8.03089 33.4148C7.8479 33.7362 7.72514 34.1151 7.47198 34.3697C5.99208 35.8578 4.48654 37.3217 2.97911 38.7833C2.37391 39.3701 1.54026 39.3756 0.970802 38.8288C0.401565 38.2821 0.38696 37.4483 0.976178 36.8642C2.48883 35.3645 4.01176 33.8748 5.54142 32.3918C6.00093 31.9463 6.59012 31.8565 7.13297 32.1135C7.65919 32.3626 7.91936 32.7853 8.03089 33.4148Z" fill="#4AB3FF"/>
    <path d="M14.895 40.1382C15.5301 40.2362 15.9656 40.4903 16.2133 41.0085C16.4693 41.5441 16.3924 42.0606 15.9906 42.4964C15.5834 42.9381 15.1417 43.3494 14.7119 43.7708C13.6096 44.8515 12.5164 45.9414 11.3986 47.0066C10.5519 47.8135 9.30491 47.4922 9.00148 46.4107C8.85988 45.906 9.01335 45.4651 9.3731 45.1093C10.8875 43.6114 12.4039 42.1149 13.9456 40.6442C14.1941 40.4072 14.5752 40.3035 14.895 40.1382Z" fill="#4AB3FF"/>
    <path d="M33.3778 19.419C31.0264 19.4204 29.1709 17.5967 29.1758 15.289C29.1806 13.0223 31.0453 11.1843 33.358 11.1666C35.6602 11.1491 37.596 13.0301 37.6052 15.2938C37.6145 17.5664 35.7173 19.4177 33.3778 19.419Z" fill="#4AB3FF"/>
    </g>
    </g>
    <defs>
    <clipPath id="clip0_338_24861">
    <rect width="48" height="48" fill="white" transform="translate(0.5)"/>
    </clipPath>
    <clipPath id="clip1_338_24861">
    <rect width="48" height="47" fill="white" transform="translate(0.5 0.5)"/>
    </clipPath>
    </defs>
    </svg>