<svg xmlns="http://www.w3.org/2000/svg" width="44" height="36" viewBox="0 0 44 36" fill="none">
    <rect x="0.366453" y="1.08447" width="43.2415" height="34.4466" rx="6.96261" fill="url(#paint0_linear_447_17947)"/>
    <rect x="0.366453" y="1.08447" width="43.2415" height="34.4466" rx="6.96261" stroke="#081871" stroke-width="0.732906"/>
    <path d="M22.0781 30.1799C28.7055 30.1799 34.0781 24.8074 34.0781 18.1799C34.0781 11.5525 28.7055 6.17993 22.0781 6.17993C15.4507 6.17993 10.0781 11.5525 10.0781 18.1799C10.0781 24.8074 15.4507 30.1799 22.0781 30.1799Z" fill="#F30504"/>
    <path d="M26.7771 19.1022C26.7686 19.1473 26.6362 19.2825 26.5038 19.3812C26.115 19.6657 25.4191 19.9305 24.7119 20.0573C24.309 20.1306 23.9061 20.1418 23.785 20.0827C23.7061 20.0432 23.6948 20.0122 23.723 19.9108C23.7822 19.6995 23.9737 19.4685 24.2724 19.2515C24.4245 19.1416 25.0415 18.7669 25.3289 18.6092C25.8023 18.35 26.1854 18.195 26.4446 18.1584C26.5263 18.1471 26.6249 18.1443 26.6559 18.1584C26.7066 18.1781 26.763 18.3274 26.7855 18.5077C26.7968 18.6035 26.7912 19.0262 26.7771 19.1022Z" fill="black"/>
    <path d="M20.1403 20.0348C20.1234 20.0686 20.0389 20.1052 19.9431 20.1193C19.8473 20.1334 19.5543 20.125 19.3881 20.1052C18.7908 20.0264 18.1568 19.8432 17.6948 19.6178C17.4356 19.491 17.2496 19.3643 17.1116 19.2262L17.0327 19.1445L17.0242 19.0374C17.0102 18.8515 17.013 18.5585 17.0355 18.4542C17.0496 18.3669 17.0806 18.2824 17.1229 18.2063C17.1379 18.1875 17.1792 18.1781 17.2468 18.1781C17.3708 18.1781 17.475 18.1978 17.6441 18.2514C17.9906 18.3584 18.5062 18.6177 19.1345 18.9952C19.6529 19.3051 19.8473 19.4572 19.9966 19.6657C20.098 19.7953 20.1657 19.9785 20.1403 20.0348Z" fill="black"/>
    <path d="M24.131 23.9564C24.131 23.9648 24.0972 24.1001 24.055 24.2607C24.0127 24.4213 23.9789 24.5509 23.9789 24.5565C23.9479 24.5593 23.9197 24.5621 23.8887 24.5593H23.7986L23.6746 24.8523C23.607 25.0129 23.545 25.1622 23.5365 25.1848L23.5196 25.2242L23.4605 25.1284L23.4013 25.0327V24.2522L23.3788 24.2579C23.3309 24.2691 22.99 24.3142 22.8406 24.3283C22.2236 24.3903 21.6038 24.3762 20.9896 24.2889C20.891 24.2747 20.8065 24.2635 20.8036 24.2663C20.8008 24.2691 20.8037 24.4494 20.8093 24.672L20.8177 25.0721L20.7698 25.1454C20.7445 25.1848 20.7191 25.2186 20.7191 25.2214C20.7107 25.2299 20.6825 25.1848 20.6177 25.0552C20.5473 24.92 20.4965 24.7763 20.4599 24.627L20.4402 24.5452L20.3529 24.5509L20.2655 24.5593L20.243 24.4551C20.2317 24.3987 20.2176 24.3114 20.212 24.2635L20.2035 24.1733L20.1303 24.1085C20.088 24.0719 20.0458 24.0353 20.0373 24.0296C20.0232 24.0184 20.0176 23.9986 20.0176 23.9818V23.9479L20.3697 23.9508L20.722 23.9536L20.7332 23.9902L20.7445 24.0268L20.8656 24.0325C20.9332 24.0353 21.1474 24.0409 21.3389 24.0466L21.6911 24.055L21.7813 23.9141L21.8743 23.7733H21.9926L21.9898 23.4802L21.987 23.1872L21.832 23.1196C21.3333 22.8999 21.0403 22.6491 20.9304 22.3448C20.9079 22.2828 20.9079 22.2603 20.9023 21.9785C20.8994 21.6996 20.8994 21.6743 20.9191 21.6123C20.9586 21.4714 21.0685 21.3615 21.2094 21.3249C21.2572 21.3108 21.384 21.3108 22.049 21.3108L22.8322 21.3136L22.9195 21.3559C23.0238 21.4066 23.0717 21.4432 23.1309 21.5221C23.1985 21.6123 23.2182 21.6827 23.2182 21.8546C23.2182 22.0997 23.2013 22.311 23.1759 22.3955C23.1393 22.511 23.0829 22.6209 23.0125 22.7195C22.8716 22.8999 22.6152 23.0802 22.3814 23.1619L22.3138 23.1872L22.3166 23.4831L22.3194 23.7789L22.3814 23.7845L22.4434 23.7902L22.5279 23.9169L22.6096 24.0437H22.9872C23.1956 24.0437 23.3788 24.0466 23.3957 24.0494C23.4238 24.055 23.4295 24.0522 23.4577 24.0043L23.4915 23.9536H23.8155C24.0578 23.9423 24.131 23.9479 24.131 23.9564Z" fill="black"/>
    <path d="M22.6431 24.7655C22.5896 24.7965 22.553 24.8106 22.5445 24.805C22.5361 24.8022 22.4966 24.7683 22.4544 24.7373L22.3783 24.6754L22.2994 24.7599C22.1275 24.9459 22.1219 24.9543 22.0712 24.9571C21.9923 24.9656 21.9754 24.9515 21.8796 24.8078C21.8289 24.7345 21.7895 24.6726 21.7895 24.6726C21.7895 24.6726 21.7528 24.6669 21.7105 24.6641L21.6317 24.6556L21.595 24.7317L21.5584 24.8078L21.4936 24.7881C21.4429 24.7712 21.3922 24.7515 21.3443 24.7289L21.2598 24.6866V24.5261L22.0092 24.5289L22.7586 24.5317L22.7615 24.6078C22.7643 24.6979 22.7671 24.6951 22.6431 24.7655Z" fill="black"/>
    <path d="M29.6859 21.3296C29.683 21.3183 29.683 21.2986 29.6802 21.2676C29.004 21.1943 27.0741 21.1493 25.2822 22.6284C25.2822 22.6284 24.7046 19.98 21.9999 19.98C19.2952 19.98 18.2922 22.6284 18.2922 22.6284C16.7764 20.9971 14.7478 21.1154 14.0153 21.2225C14.0153 21.2394 14.0125 21.2591 14.0125 21.276C13.99 21.6846 14.0012 21.879 14.0689 22.1353C14.2801 22.9383 14.931 23.823 15.9509 24.6908C17.6216 26.1108 19.8868 27.1363 21.6026 27.2546C23.3917 27.3758 26.0316 26.3305 27.7897 24.8035C28.0658 24.5584 28.325 24.2991 28.5673 24.023C28.742 23.8202 29.0012 23.4708 28.9815 23.4708C28.9759 23.4708 28.9815 23.4652 28.9928 23.4596C29.0012 23.4539 29.0097 23.4455 29.004 23.4398C29.0012 23.437 29.0068 23.4286 29.0153 23.4258C29.0237 23.4229 29.0294 23.4173 29.0266 23.4116C29.0237 23.406 29.0266 23.4004 29.0378 23.3976C29.0463 23.3948 29.0491 23.3863 29.0463 23.3806C29.0435 23.375 29.0463 23.3694 29.0519 23.3694C29.0576 23.3694 29.0632 23.3609 29.0632 23.3553C29.0632 23.3497 29.0688 23.3412 29.0745 23.3412C29.0801 23.3412 29.0857 23.3356 29.0857 23.3299C29.0942 23.3074 29.1083 23.2849 29.1224 23.2651C29.1646 23.2004 29.3337 22.8989 29.3562 22.8482C29.5168 22.4847 29.6182 22.1607 29.6661 21.8367C29.683 21.6818 29.6971 21.3972 29.6859 21.3296ZM22.6423 24.7668C22.5887 24.7978 22.5521 24.8119 22.5437 24.8063C22.5352 24.8035 22.4958 24.7696 22.4535 24.7386L22.3774 24.6767L22.2986 24.7612C22.1267 24.9472 22.121 24.9556 22.0703 24.9584C21.9914 24.9669 21.9746 24.9528 21.8787 24.8091C21.828 24.7358 21.7886 24.6739 21.7886 24.6739C21.7886 24.6739 21.752 24.6682 21.7097 24.6654L21.6308 24.6569L21.5942 24.733L21.5576 24.8091L21.4928 24.7894C21.442 24.7725 21.3913 24.7528 21.3434 24.7302L21.2589 24.6879V24.5274L22.0083 24.5302L22.7578 24.533L22.7606 24.6091C22.7634 24.6992 22.7662 24.6964 22.6423 24.7668ZM24.051 24.2597C24.0087 24.4203 23.9749 24.5499 23.9749 24.5555C23.9439 24.5584 23.9158 24.5612 23.8848 24.5584H23.7946L23.6734 24.8542C23.6058 25.0148 23.5439 25.1641 23.5354 25.1866L23.5185 25.2261L23.4593 25.1303L23.4002 25.0345V24.2541L23.3776 24.2597C23.3297 24.271 22.9888 24.3161 22.8395 24.3301C22.2225 24.3921 21.6026 24.378 20.9884 24.2907C20.8898 24.2766 20.8053 24.2653 20.8025 24.2681C20.7997 24.271 20.8025 24.4513 20.8081 24.6739L20.8166 25.0739L20.7687 25.1472C20.7433 25.1866 20.718 25.2204 20.718 25.2233C20.7095 25.2317 20.6813 25.1866 20.6166 25.057C20.5461 24.9218 20.4954 24.7781 20.4588 24.6288L20.4391 24.5471L20.3517 24.5527L20.2644 24.5612L20.2418 24.4569C20.2306 24.4006 20.2165 24.3132 20.2108 24.2653L20.2024 24.1752L20.1291 24.1104C20.0869 24.0737 20.0446 24.0371 20.0362 24.0315C20.0221 24.0202 20.0164 24.0005 20.0164 23.9836V23.9498L20.3686 23.9526L20.7208 23.9554L20.7321 23.992L20.7433 24.0287L20.8645 24.0343C20.9321 24.0371 21.1462 24.0428 21.3378 24.0484L21.69 24.0568L21.7802 23.916L21.8731 23.7751H21.9915L21.9886 23.4821L21.9858 23.1891L21.8309 23.1215C21.3322 22.9017 21.0392 22.651 20.9293 22.3467C20.9067 22.2847 20.9067 22.2621 20.9011 21.9804C20.8983 21.7015 20.8983 21.6761 20.918 21.6141C20.9575 21.4732 21.0673 21.3634 21.2082 21.3267C21.2561 21.3127 21.3829 21.3127 22.0478 21.3127L22.8311 21.3155L22.9184 21.3577C23.0227 21.4085 23.0705 21.4451 23.1297 21.524C23.1973 21.6141 23.2171 21.6846 23.2171 21.8564C23.2171 22.1015 23.2001 22.3129 23.1748 22.3974C23.1382 22.5129 23.0818 22.6228 23.0114 22.7214C22.8705 22.9017 22.6141 23.082 22.3803 23.1637L22.3126 23.1891L22.3155 23.4849L22.3183 23.7807L22.3803 23.7864L22.4423 23.792L22.5268 23.9188L22.6085 24.0456H22.986C23.1945 24.0456 23.3776 24.0484 23.3945 24.0512C23.4227 24.0568 23.4283 24.054 23.4565 24.0061L23.4903 23.9554H23.8143C24.0651 23.9554 24.1383 23.9582 24.1383 23.9667C24.1299 23.9639 24.0932 24.1019 24.051 24.2597Z" fill="white"/>
    <path d="M29.6614 21.0412C29.6558 20.9144 29.6446 20.7369 29.6361 20.6496C29.5149 19.3705 29.1881 18.3252 28.5683 17.2179C28.5429 17.1757 28.5204 17.1334 28.5063 17.0996C28.5007 17.0912 28.4978 17.0827 28.495 17.0771C28.5824 16.815 28.9402 15.7191 29.2247 14.4653C29.6107 12.7636 29.8558 10.7745 29.1064 10.1772C29.1064 10.1772 27.8104 10.0814 26.0749 11.7831C25.6043 12.2536 25.1733 12.7636 24.7901 13.3073L24.669 13.2679C23.9702 13.0397 23.2461 12.8988 22.5165 12.8509C22.2967 12.834 21.4768 12.834 21.2092 12.8509C20.4006 12.9045 19.7807 13.0256 19.0764 13.2707C19.0482 13.282 19.0228 13.2904 18.9975 13.2989C18.6002 12.7579 18.1579 12.2508 17.6705 11.7859C15.8645 10.0758 14.5206 10.1744 14.5206 10.1744C13.7261 10.7914 13.9965 12.8706 14.4079 14.6287C14.6784 15.7923 15.0108 16.815 15.1348 17.1841C15.1263 17.2039 15.1151 17.2264 15.1038 17.2461C14.4473 18.5759 14.0924 19.8579 14.0078 21.2215C14.7432 21.1144 16.7689 20.9933 18.2875 22.6274C18.2875 22.6274 19.2905 19.979 21.9952 19.979C24.7 19.979 25.2775 22.6274 25.2775 22.6274C27.0694 21.1483 28.9993 21.1961 29.6755 21.2666C29.6727 21.2102 29.6671 21.1257 29.6614 21.0412ZM15.6673 16.122C15.6673 16.122 14.6136 13.4877 14.884 11.9831C14.9291 11.7296 15.0136 11.507 15.1461 11.338C15.1461 11.338 16.3407 11.4563 18.2678 13.5975C18.2678 13.5975 17.9015 13.7751 17.4113 14.1526C17.4113 14.1526 17.4085 14.1554 17.4056 14.1554C16.8731 14.5639 16.1913 15.2119 15.6673 16.122ZM20.1385 20.0354C20.1216 20.0692 20.0371 20.1058 19.9413 20.1199C19.8455 20.134 19.5525 20.1255 19.3863 20.1058C18.789 20.0269 18.1551 19.8438 17.693 19.6184C17.4338 19.4916 17.2479 19.3648 17.1098 19.2268L17.0309 19.1451L17.0225 19.038C17.0084 18.852 17.0112 18.559 17.0337 18.4548C17.0478 18.3674 17.0788 18.2829 17.1211 18.2069C17.1361 18.1881 17.1774 18.1787 17.245 18.1787C17.369 18.1787 17.4733 18.1984 17.6423 18.2519C17.9888 18.359 18.5044 18.6182 19.1327 18.9957C19.6511 19.3056 19.8455 19.4578 19.9949 19.6663C20.0963 19.7959 20.1639 19.979 20.1385 20.0354ZM26.7764 19.1028C26.7679 19.1479 26.6355 19.2831 26.5031 19.3817C26.1143 19.6663 25.4184 19.9311 24.7112 20.0579C24.3083 20.1311 23.9054 20.1424 23.7843 20.0833C23.7054 20.0438 23.6941 20.0128 23.7223 19.9114C23.7815 19.7001 23.973 19.4691 24.2717 19.2521C24.4238 19.1422 25.0409 18.7675 25.3282 18.6097C25.8016 18.3505 26.1847 18.1956 26.4439 18.159C26.5256 18.1477 26.6243 18.1449 26.6553 18.159C26.706 18.1787 26.7623 18.328 26.7849 18.5083C26.7961 18.6041 26.7905 19.0267 26.7764 19.1028ZM26.3087 14.1526L26.3031 14.1498C25.8297 13.7722 25.4747 13.5947 25.4747 13.5947C27.3371 11.4535 28.4894 11.3352 28.4894 11.3352C28.6162 11.507 28.6979 11.7268 28.743 11.9803C29.005 13.4848 27.9879 16.122 27.9879 16.122C27.5625 15.3641 26.9905 14.6935 26.3087 14.1526Z" fill="#FFA409"/>
    <path d="M28.7457 11.9848C28.5259 11.9566 27.4863 11.951 26.3086 14.1571L26.303 14.1543C25.8296 13.7767 25.4746 13.5992 25.4746 13.5992C27.3369 11.458 28.4893 11.3396 28.4893 11.3396C28.6189 11.5115 28.7006 11.7312 28.7457 11.9848Z" fill="#FF9300"/>
    <path d="M27.9906 16.1246C27.5623 15.3639 26.9932 14.6961 26.3086 14.1552C27.4863 11.9492 28.5231 11.9548 28.7457 11.983C29.0077 13.4903 27.9906 16.1246 27.9906 16.1246Z" fill="#FF8300"/>
    <path d="M28.7883 11.9911C28.7742 11.9883 28.7602 11.9855 28.7461 11.9827L28.7883 11.9911Z" fill="#FF8300"/>
    <path d="M18.2694 13.5992C18.2694 13.5992 17.9031 13.7767 17.4129 14.1543C17.4129 14.1543 17.41 14.1571 17.4072 14.1571C16.1873 11.9482 15.1138 11.9566 14.8828 11.9848C14.9279 11.7312 15.0124 11.5087 15.1448 11.3396C15.1476 11.3396 16.3422 11.458 18.2694 13.5992Z" fill="#FF9300"/>
    <path d="M17.4126 14.1552C16.8773 14.5665 16.1954 15.2117 15.6714 16.1246C15.6714 16.1246 14.6177 13.4903 14.8881 11.983C15.1164 11.9548 16.1926 11.9492 17.4126 14.1552Z" fill="#FF8300"/>
    <path d="M14.8868 11.9827C14.8728 11.9855 14.8559 11.9883 14.8418 11.9911L14.8868 11.9827Z" fill="#FF8300"/>
    <path d="M25.1404 17.5845C25.1404 17.5845 24.2388 17.6409 24.3515 16.9365C24.4642 16.2322 25.1686 16.1477 25.3658 16.1758C25.563 16.204 26.3519 16.4857 26.2111 17.0774C26.0702 17.6691 25.873 17.5564 25.7603 17.5845C25.6476 17.6127 25.1404 17.5845 25.1404 17.5845Z" fill="white"/>
    <path d="M18.492 17.5845C18.492 17.5845 17.5904 17.6409 17.7031 16.9365C17.8158 16.2322 18.5202 16.1477 18.7174 16.1758C18.9146 16.204 19.7035 16.4857 19.5626 17.0774C19.4217 17.6691 19.2245 17.5564 19.1118 17.5845C18.9991 17.6127 18.492 17.5845 18.492 17.5845Z" fill="white"/>
    <defs>
    <linearGradient id="paint0_linear_447_17947" x1="21.9872" y1="0.718018" x2="21.9872" y2="35.8975" gradientUnits="userSpaceOnUse">
    <stop stop-color="#020D43"/>
    <stop offset="1" stop-color="#0F2078"/>
    </linearGradient>
    </defs>
    </svg>