<svg xmlns="http://www.w3.org/2000/svg" width="45" height="36" viewBox="0 0 45 36" fill="none">
    <rect x="1.34106" y="1.08447" width="43.2415" height="34.4466" rx="6.96261" fill="url(#paint0_linear_447_17948)"/>
    <rect x="1.34106" y="1.08447" width="43.2415" height="34.4466" rx="6.96261" stroke="#081871" stroke-width="0.732906"/>
    <path d="M23.0781 30.1799C29.7055 30.1799 35.0781 24.8073 35.0781 18.1799C35.0781 11.5525 29.7055 6.17993 23.0781 6.17993C16.4507 6.17993 11.0781 11.5525 11.0781 18.1799C11.0781 24.8073 16.4507 30.1799 23.0781 30.1799Z" fill="url(#paint1_linear_447_17948)"/>
    <path d="M17.3959 21.6518C17.4974 21.5502 17.6372 21.4909 17.7853 21.4909H31.2225C31.468 21.4909 31.5908 21.7872 31.4172 21.9608L28.7628 24.6152C28.6612 24.7168 28.5215 24.7761 28.3733 24.7761H14.9362C14.6906 24.7761 14.5679 24.4798 14.7414 24.3062L17.3959 21.6518Z" fill="white"/>
    <path d="M17.3959 11.7412C17.5017 11.6396 17.6414 11.5803 17.7853 11.5803H31.2225C31.468 11.5803 31.5908 11.8767 31.4172 12.0503L28.7628 14.7047C28.6612 14.8063 28.5215 14.8656 28.3733 14.8656H14.9362C14.6906 14.8656 14.5679 14.5692 14.7414 14.3956L17.3959 11.7412Z" fill="white"/>
    <path d="M28.7628 16.6666C28.6612 16.565 28.5215 16.5057 28.3733 16.5057H14.9362C14.6906 16.5057 14.5679 16.802 14.7414 16.9756L17.3959 19.63C17.4974 19.7316 17.6372 19.7909 17.7853 19.7909H31.2225C31.468 19.7909 31.5908 19.4946 31.4172 19.321L28.7628 16.6666Z" fill="white"/>
    <defs>
    <linearGradient id="paint0_linear_447_17948" x1="22.9618" y1="0.718018" x2="22.9618" y2="35.8975" gradientUnits="userSpaceOnUse">
    <stop stop-color="#020D43"/>
    <stop offset="1" stop-color="#0F2078"/>
    </linearGradient>
    <linearGradient id="paint1_linear_447_17948" x1="33.5963" y1="7.45413" x2="14.0883" y2="27.3472" gradientUnits="userSpaceOnUse">
    <stop stop-color="#00FFA3"/>
    <stop offset="1" stop-color="#DC1FFF"/>
    </linearGradient>
    </defs>
    </svg>