<svg xmlns="http://www.w3.org/2000/svg" width="48" height="48" viewBox="0 0 48 48" fill="none">
    <g clip-path="url(#clip0_3941_34052)">
    <path d="M12.6484 27.9701H47.998V0H12.6484V27.9701ZM36.1059 10.5068L38.0946 8.51803L43.5616 13.985L38.0946 19.4519L36.1059 17.4632L39.5842 13.9849L36.1059 10.5068ZM30.5446 6.51497L33.2898 7.12584L30.1018 21.4552L27.3565 20.8443L30.5446 6.51497ZM22.5517 8.51803L24.5404 10.5068L21.0621 13.9851L24.5404 17.4634L22.5517 19.4521L17.0848 13.9852L22.5517 8.51803Z" fill="#4AB3FF"/>
    <path d="M44.8374 30.7884H9.83794V12.6562H0V42.0326H7.30669V48.0058L15.3576 42.0326H44.8374V30.7884Z" fill="#4AB3FF"/>
    </g>
    <defs>
    <clipPath id="clip0_3941_34052">
    <rect width="48" height="48" fill="white"/>
    </clipPath>
    </defs>
    </svg>