<svg xmlns="http://www.w3.org/2000/svg" width="49" height="49" viewBox="0 0 49 49" fill="none">
    <g clip-path="url(#clip0_338_24364)">
    <g clip-path="url(#clip1_338_24364)">
    <path d="M32.7588 24.4678V10.0506C32.3169 10.0506 31.8843 10.0454 31.4518 10.0523C31.0944 10.058 30.8081 9.94877 30.6376 9.62924C30.4652 9.30629 30.5611 9.02071 30.7665 8.74518C32.4439 6.49515 34.1159 4.24134 35.7978 1.9944C36.2531 1.3861 36.8286 1.38745 37.2799 1.99158C38.9503 4.22784 40.6125 6.46985 42.2817 8.70704C42.4952 8.99331 42.6216 9.27736 42.4411 9.62622C42.2498 9.99624 41.9166 10.0595 41.5363 10.0525C41.1486 10.0454 40.7607 10.051 40.3374 10.051V24.4703C41.0478 24.4703 41.7467 24.4543 42.4446 24.4748C43.1303 24.495 43.5098 25.1316 43.1292 25.6391C42.9983 25.8136 42.7375 25.9149 42.5159 26.0023C42.3808 26.0555 42.2073 26.0215 42.0511 26.0215C32.4493 26.022 22.8476 26.0221 13.2459 26.0207C13.0592 26.0207 12.8676 26.0242 12.6869 25.9873C12.2547 25.8991 12.0114 25.5811 12.037 25.1751C12.0622 24.7738 12.3504 24.4891 12.8038 24.4776C13.5036 24.4597 14.2043 24.4729 14.9686 24.4729C14.9686 24.2619 14.9686 24.1019 14.9686 23.942C14.9687 21.937 14.9673 19.9319 14.9693 17.9269C14.9701 17.1194 15.2295 16.8611 16.0533 16.8593C17.8517 16.8554 19.65 16.8554 21.4484 16.8593C22.2725 16.8611 22.5335 17.1202 22.5342 17.9239C22.5359 19.9139 22.5348 21.9039 22.5348 23.8938V24.4275H23.8677V23.9126C23.8677 20.3397 23.8675 16.7668 23.8678 13.1939C23.8679 12.3184 24.102 12.0852 24.9894 12.0845C26.7721 12.0828 28.5548 12.0824 30.3376 12.0847C31.1783 12.0858 31.4177 12.3175 31.4183 13.1419C31.4207 16.7148 31.4193 20.2876 31.4196 23.8605C31.4196 24.2651 31.6315 24.4675 32.0552 24.4678C32.2717 24.4679 32.4881 24.4678 32.7588 24.4678Z" fill="#4AB3FF"/>
    <path d="M7.35547 33.6398C8.60325 32.8159 9.77141 31.9188 11.0561 31.2209C14.3892 29.4101 17.8652 29.4712 21.3481 30.7893C24.4123 31.9489 27.5049 33.0171 30.7117 33.7432C32.121 34.0623 33.5504 34.3041 34.9782 34.538C35.5019 34.6237 35.8564 34.8975 36.182 35.2476C36.5105 35.6008 36.5037 35.7566 36.0859 35.9818C35.2748 36.419 34.3981 36.7819 33.4678 36.7013C31.98 36.5722 30.5026 36.3247 29.0236 36.1096C27.2679 35.8542 25.5392 35.338 23.7456 35.4608C23.0171 35.5106 22.2866 35.7464 21.5935 35.9931C21.0679 36.1802 20.9324 36.6476 21.1498 37.0613C21.3638 37.4684 21.8146 37.5883 22.312 37.3523C23.381 36.8449 24.4953 36.9313 25.6147 37.1113C27.8138 37.465 30.0123 37.8229 32.2095 38.1876C33.7473 38.4429 35.1936 38.151 36.5685 37.499C38.0184 36.8114 38.3338 35.9242 37.658 34.4857C38.8848 34.0973 39.7618 33.2432 40.6543 32.4004C42.0769 31.0567 43.6421 29.8861 45.3537 28.9009C46.0343 28.5092 47.8252 28.7348 48.3454 29.3068C48.4673 29.4409 48.504 29.6849 48.4987 29.8763C48.4946 30.0267 48.3861 30.1881 48.2887 30.3205C46.7354 32.4322 45.1807 34.543 43.6167 36.6474C42.9867 37.4951 42.1331 38.1114 41.2311 38.6588C38.8143 40.1254 36.3939 41.5868 33.9587 43.0247C33.1664 43.4925 32.3651 43.9977 31.4962 44.2822C29.6516 44.8862 27.7531 44.7058 25.905 44.2486C23.6878 43.7002 21.5032 43.0306 19.29 42.4664C17.556 42.0244 15.8036 41.6127 13.9893 41.6901C13.4893 41.7115 12.9734 41.844 12.5065 42.0253C11.67 42.3503 10.8651 42.7509 10.0008 43.1407C9.11879 39.9728 8.2441 36.8313 7.35547 33.6398Z" fill="#4AB3FF"/>
    <path d="M5.49058 32.8935C6.63767 37.0256 7.77133 41.1093 8.92191 45.254C7.24658 45.6855 5.60666 46.1078 3.93504 46.5383C2.78143 42.3902 1.64636 38.3087 0.5 34.1866C2.15807 33.757 3.79167 33.3337 5.49058 32.8935Z" fill="#4AB3FF"/>
    </g>
    </g>
    <defs>
    <clipPath id="clip0_338_24364">
    <rect width="48" height="48" fill="white" transform="translate(0.5 0.0383301)"/>
    </clipPath>
    <clipPath id="clip1_338_24364">
    <rect width="48" height="45" fill="white" transform="translate(0.5 1.53833)"/>
    </clipPath>
    </defs>
    </svg>