<svg xmlns="http://www.w3.org/2000/svg" width="51" height="50" viewBox="0 0 51 50" fill="none">
    <g clip-path="url(#clip0_3028_27337)">
    <path d="M19.6406 20.6055C22.0639 20.6055 24.0352 18.6342 24.0352 16.2109C24.0352 13.7877 22.0639 11.8164 19.6406 11.8164C17.2174 11.8164 15.2461 13.7877 15.2461 16.2109C15.2461 18.6342 17.2174 20.6055 19.6406 20.6055ZM19.6406 14.7461C20.4496 14.7461 21.1055 15.4018 21.1055 16.2109C21.1055 17.0199 20.4496 17.6758 19.6406 17.6758C18.8316 17.6758 18.1758 17.0199 18.1758 16.2109C18.1758 15.4019 18.8316 14.7461 19.6406 14.7461Z" fill="#4AB3FF"/>
    <path d="M0.5 16.2109C0.5 20.5039 2.6376 24.6152 6.22959 27.635L3.59033 36.291C3.41006 36.8875 3.62471 37.5327 4.12822 37.9018C4.62246 38.2635 5.30469 38.2832 5.82334 37.9246L14.7283 31.7834C16.3232 32.1426 17.9727 32.3242 19.6406 32.3242C30.1406 32.3242 38.6836 25.0958 38.6836 16.2109C38.6836 7.32607 30.1406 0 19.6406 0C9.14062 0 0.5 7.32607 0.5 16.2109ZM10.8516 14.7461H12.4646C12.6549 13.8127 13.0273 12.9465 13.5366 12.1783L12.3908 11.0325C11.8187 10.4604 11.8187 9.5333 12.3908 8.96113C12.963 8.38896 13.89 8.38896 14.4622 8.96113L15.608 10.1069C16.3762 9.59766 17.2424 9.22519 18.1758 9.03496V7.42188C18.1758 6.61221 18.831 5.95703 19.6406 5.95703C20.4503 5.95703 21.1055 6.61221 21.1055 7.42188V9.03496C22.0389 9.22519 22.9051 9.59766 23.6732 10.1069L24.819 8.96113C25.3912 8.38896 26.3183 8.38896 26.8904 8.96113C27.4626 9.5333 27.4626 10.4604 26.8904 11.0325L25.7446 12.1783C26.2539 12.9465 26.6264 13.8127 26.8166 14.7461H28.4297C29.2394 14.7461 29.8945 15.4013 29.8945 16.2109C29.8945 17.0206 29.2394 17.6758 28.4297 17.6758H26.8166C26.6264 18.6092 26.2539 19.4754 25.7446 20.2436L26.8904 21.3894C27.4626 21.9615 27.4626 22.8886 26.8904 23.4607C26.3183 24.0329 25.3912 24.0329 24.819 23.4607L23.6732 22.3149C22.9051 22.8242 22.0389 23.1967 21.1055 23.3869V25C21.1055 25.8097 20.4503 26.4648 19.6406 26.4648C18.831 26.4648 18.1758 25.8097 18.1758 25V23.3869C17.2424 23.1967 16.3762 22.8242 15.608 22.3149L14.4622 23.4607C13.89 24.0329 12.963 24.0329 12.3908 23.4607C11.8187 22.8886 11.8187 21.9615 12.3908 21.3894L13.5366 20.2436C13.0273 19.4754 12.6549 18.6092 12.4646 17.6758H10.8516C10.0419 17.6758 9.38672 17.0206 9.38672 16.2109C9.38672 15.4013 10.0419 14.7461 10.8516 14.7461Z" fill="#4AB3FF"/>
    <path d="M39.6641 24.0117C36.4097 30.2609 29.3842 34.7123 21.1098 35.1901C21.1096 35.212 21.1055 35.2326 21.1055 35.2546C21.1055 41.7266 27.6639 46.9733 35.7539 46.9733C37.3887 46.9733 39.5406 46.5764 40.2814 46.3812L45.1952 49.7547C45.7142 50.1016 46.4013 50.08 46.8976 49.7003C47.3939 49.3198 47.5956 48.666 47.3968 48.0724L45.9545 43.6449C48.6905 41.5158 50.5 38.5492 50.5 35.2546C50.5 29.8733 45.8426 25.3873 39.6641 24.0117Z" fill="#4AB3FF"/>
    </g>
    <defs>
    <clipPath id="clip0_3028_27337">
    <rect width="50" height="50" fill="white" transform="translate(0.5)"/>
    </clipPath>
    </defs>
    </svg>