<svg width="32" height="32" viewBox="0 0 32 32" fill="none" xmlns="http://www.w3.org/2000/svg">
<rect width="32" height="32" rx="16" fill="#0094FF"/>
<path d="M24.9107 11.3989L13.5329 22.7767C13.4329 22.8765 13.2973 22.9326 13.156 22.9326C13.0147 22.9326 12.8791 22.8765 12.7791 22.7767L7.80134 17.7989C7.70714 17.6978 7.65585 17.564 7.65829 17.4259C7.66072 17.2877 7.7167 17.1559 7.81441 17.0582C7.91213 16.9604 8.04396 16.9045 8.18213 16.902C8.3203 16.8996 8.45402 16.9509 8.55512 17.0451L13.156 21.6451L24.1569 10.6451C24.258 10.5509 24.3917 10.4996 24.5299 10.502C24.6681 10.5045 24.7999 10.5604 24.8976 10.6582C24.9953 10.7559 25.0513 10.8877 25.0537 11.0259C25.0562 11.164 25.0049 11.2978 24.9107 11.3989Z" fill="white"/>
</svg>
