<svg xmlns="http://www.w3.org/2000/svg" width="45" height="36" viewBox="0 0 45 36" fill="none">
    <rect x="0.405515" y="0.366453" width="43.2415" height="34.4466" rx="6.96261" fill="url(#paint0_linear_447_17940)"/>
    <rect x="0.405515" y="0.366453" width="43.2415" height="34.4466" rx="6.96261" stroke="#081871" stroke-width="0.732906"/>
    <path fill-rule="evenodd" clip-rule="evenodd" d="M22.3002 29.8635C28.9273 29.8635 34.2996 24.4909 34.2996 17.8635C34.2996 11.2361 28.9273 5.86353 22.3002 5.86353C15.6731 5.86353 10.3008 11.2361 10.3008 17.8635C10.3008 24.4909 15.6731 29.8635 22.3002 29.8635Z" fill="#50AF95"/>
    <path fill-rule="evenodd" clip-rule="evenodd" d="M23.5401 18.4001C23.4635 18.4059 23.0678 18.4295 22.1852 18.4295C21.4831 18.4295 20.9847 18.4084 20.8098 18.4001C18.0968 18.2808 16.0717 17.8085 16.0717 17.243C16.0717 16.6776 18.0968 16.2059 20.8098 16.0847V17.9298C20.9872 17.9425 21.4953 17.9725 22.1973 17.9725C23.0397 17.9725 23.4616 17.9374 23.5375 17.9304V16.086C26.2448 16.2066 28.2654 16.6789 28.2654 17.243C28.2654 17.8072 26.2455 18.2795 23.5375 18.3995L23.5401 18.4001ZM23.5401 15.8951V14.2441H27.3183V11.7263H17.0316V14.2441H20.8092V15.8945C17.7387 16.0355 15.4297 16.6438 15.4297 17.3726C15.4297 18.1014 17.7387 18.709 20.8092 18.8507V24.1415H23.5395V18.8488C26.6029 18.7077 28.9081 18.1002 28.9081 17.372C28.9081 16.6438 26.6048 16.0362 23.5395 15.8945L23.5401 15.8951Z" fill="white"/>
    <defs>
    <linearGradient id="paint0_linear_447_17940" x1="22.0262" y1="0" x2="22.0262" y2="35.1795" gradientUnits="userSpaceOnUse">
    <stop stop-color="#020D43"/>
    <stop offset="1" stop-color="#0F2078"/>
    </linearGradient>
    </defs>
    </svg>