<svg xmlns="http://www.w3.org/2000/svg" width="32" height="32" viewBox="0 0 32 32" fill="none">
    <g clip-path="url(#clip0_3941_34975)">
    <path d="M27.3137 4.68625C24.2917 1.66431 20.2738 0 16 0C11.7262 0 7.70825 1.66431 4.68625 4.68625C1.66431 7.70825 0 11.7262 0 16C0 20.2738 1.66431 24.2917 4.68625 27.3137C7.70825 30.3357 11.7262 32 16 32C20.2738 32 24.2917 30.3357 27.3137 27.3137C30.3357 24.2917 32 20.2738 32 16C32 11.7262 30.3357 7.70831 27.3137 4.68625ZM23.6441 12.1921L14.7026 21.1337C14.5195 21.3167 14.2796 21.4083 14.0397 21.4083C13.7997 21.4083 13.5598 21.3167 13.3767 21.1337L8.35588 16.1129C7.98975 15.7468 7.98975 15.1532 8.35588 14.7871C8.72194 14.4209 9.31556 14.4209 9.68169 14.7871L14.0397 19.145L22.3183 10.8663C22.6844 10.5001 23.278 10.5001 23.6441 10.8663C24.0103 11.2324 24.0103 11.8259 23.6441 12.1921Z" fill="#14C45B"/>
    </g>
    <defs>
    <clipPath id="clip0_3941_34975">
    <rect width="32" height="32" fill="white"/>
    </clipPath>
    </defs>
    </svg>