<svg xmlns="http://www.w3.org/2000/svg" width="45" height="36" viewBox="0 0 45 36" fill="none">
    <rect x="1.35278" y="0.366453" width="43.2415" height="34.4466" rx="6.96261" fill="url(#paint0_linear_447_17942)"/>
    <rect x="1.35278" y="0.366453" width="43.2415" height="34.4466" rx="6.96261" stroke="#081871" stroke-width="0.732906"/>
    <path fill-rule="evenodd" clip-rule="evenodd" d="M15.4631 22.4387H12.7356L10.6904 14.636C10.5933 14.2771 10.3872 13.9598 10.084 13.8102C9.32735 13.4344 8.49357 13.1353 7.58398 12.9845V12.6841H11.9776C12.584 12.6841 13.0388 13.1353 13.1146 13.6594L14.1758 19.2877L16.9019 12.6841H19.5535L15.4631 22.4387ZM21.07 22.4382H18.4941L20.6152 12.6836H23.191L21.07 22.4382ZM26.5237 15.3863C26.5995 14.8609 27.0543 14.5605 27.5849 14.5605C28.4187 14.4851 29.327 14.6359 30.085 15.0105L30.5397 12.9102C29.7818 12.6098 28.948 12.459 28.1913 12.459C25.6913 12.459 23.8721 13.8101 23.8721 15.6854C23.8721 17.112 25.1607 17.861 26.0703 18.3123C27.0543 18.7623 27.4333 19.0627 27.3575 19.5126C27.3575 20.1875 26.5995 20.4879 25.8429 20.4879C24.9333 20.4879 24.0237 20.263 23.1913 19.8871L22.7365 21.9887C23.6461 22.3632 24.6301 22.514 25.5397 22.514C28.3429 22.5882 30.085 21.2383 30.085 19.2122C30.085 16.6607 26.5237 16.5112 26.5237 15.3863V15.3863ZM39.0964 22.4382L37.0511 12.6836H34.8543C34.3995 12.6836 33.9447 12.984 33.7931 13.434L30.0059 22.4382H32.6575L33.1867 21.013H36.4448L36.748 22.4382H39.0964ZM35.2374 15.311L35.9941 18.9874H33.873L35.2374 15.311Z" fill="white"/>
    <defs>
    <linearGradient id="paint0_linear_447_17942" x1="22.9735" y1="0" x2="22.9735" y2="35.1795" gradientUnits="userSpaceOnUse">
    <stop stop-color="#020D43"/>
    <stop offset="1" stop-color="#0F2078"/>
    </linearGradient>
    </defs>
    </svg>