<svg xmlns="http://www.w3.org/2000/svg" width="45" height="36" viewBox="0 0 45 36" fill="none">
    <rect x="1.31567" y="1.08447" width="43.2415" height="34.4466" rx="6.96261" fill="url(#paint0_linear_447_17949)"/>
    <rect x="1.31567" y="1.08447" width="43.2415" height="34.4466" rx="6.96261" stroke="#081871" stroke-width="0.732906"/>
    <path d="M34.7164 21.0818C33.1137 27.5104 26.6026 31.4228 20.1732 29.8197C13.7465 28.217 9.83412 21.7054 11.4375 15.2773C13.0395 8.84798 19.5507 4.93535 25.9781 6.53804C32.407 8.14072 36.3191 14.653 34.7162 21.0819L34.7164 21.0818H34.7164Z" fill="#23292F"/>
    <path d="M28.9786 11.179H31.4002L26.3607 16.1687C24.5357 17.9748 21.5768 17.9748 19.7505 16.1687L14.709 11.179H17.1325L20.9612 14.9694C22.122 16.1134 23.9862 16.1134 25.147 14.9694L28.9786 11.179Z" fill="white"/>
    <path d="M17.101 25.054H14.6777L19.75 20.0335C21.575 18.2274 24.5339 18.2274 26.3602 20.0335L31.4325 25.054H29.0109L25.1494 21.2328C23.9887 20.0888 22.1244 20.0888 20.9637 21.2328L17.101 25.054Z" fill="white"/>
    <defs>
    <linearGradient id="paint0_linear_447_17949" x1="22.9364" y1="0.718018" x2="22.9364" y2="35.8975" gradientUnits="userSpaceOnUse">
    <stop stop-color="#020D43"/>
    <stop offset="1" stop-color="#0F2078"/>
    </linearGradient>
    </defs>
    </svg>