<svg width="175" height="32" viewBox="0 0 175 32" fill="none" xmlns="http://www.w3.org/2000/svg">
<path fill-rule="evenodd" clip-rule="evenodd" d="M21.0346 0.963278C20.8977 0.928907 20.7326 0.928907 20.5956 0.963278L11.6269 3.70444L11.6222 3.706C11.2021 3.84657 10.9964 4.27044 11.0986 4.68084L11.101 4.69025L11.1043 4.69938C11.2414 5.07797 11.6585 5.33167 12.0863 5.19004L20.8282 2.52252L29.7576 5.27052C30.1895 5.41361 30.6068 5.1542 30.7416 4.7483C30.8852 4.31568 30.6281 3.89554 30.222 3.75963L21.0436 0.965537L21.0346 0.963278ZM7.44543 5.66881C7.40404 5.34988 7.57559 5.03735 7.84063 4.87771L7.8498 4.87219L7.85953 4.86775C7.94803 4.82736 8.04044 4.80386 8.1328 4.79637C8.20907 4.78558 8.2886 4.7862 8.36946 4.79972C8.69547 4.85427 8.93933 5.10018 9.00062 5.4055L14.1314 15.4566H27.7287C27.7564 15.4566 27.7837 15.4581 27.8107 15.461L32.6537 5.42166C32.6915 5.2153 32.8143 5.03532 32.9964 4.9277C33.2175 4.77462 33.5146 4.7509 33.7707 4.86775C34.0268 4.98463 34.1726 5.21798 34.1997 5.46965L34.3581 6.39754C34.3943 6.55992 34.5489 7.64175 34.5489 9.28055C34.5489 10.9038 34.3873 13.0403 33.7946 15.4471C33.2288 17.7193 32.2043 20.4538 30.3432 23.1345C28.4821 25.8151 25.7861 28.4667 21.9079 30.5489L21.9067 30.5495L21.1891 30.9497L21.1881 30.9504C20.9438 31.0901 20.6864 31.0901 20.442 30.9504L20.441 30.9497L19.7235 30.5495L19.7222 30.5489C15.844 28.4667 13.148 25.8151 11.287 23.1345C9.42648 20.4547 8.40143 17.7205 7.88856 15.4183C7.29633 13.0121 7.13477 10.8495 7.13477 9.2537C7.13477 7.61492 7.28933 6.53309 7.32557 6.37069L7.44543 5.66881ZM14.9258 17.0129H26.986L20.8319 28.5827L14.9258 17.0129ZM8.70889 8.23885C8.69532 8.5423 8.68644 8.88235 8.68644 9.2537C8.68644 10.7467 8.81927 12.7982 9.37625 15.0348C9.90681 17.192 10.8616 19.7212 12.5846 22.2229C14.0542 24.3335 16.0837 26.4456 18.922 28.2448L8.70889 8.23885ZM22.7753 28.215C25.5782 26.4274 27.6118 24.3431 29.0721 22.2231C30.795 19.7218 31.7499 17.1661 32.2806 15.0348C32.8376 12.7982 32.9705 10.7467 32.9705 9.2537C32.9705 8.9223 32.9634 8.61583 32.9523 8.33805L29.1999 16.1163V16.1471L22.7753 28.215Z" fill="black"/>
<path fill-rule="evenodd" clip-rule="evenodd" d="M20.6752 1.5073L11.8824 4.19466L11.8813 4.19504C11.6176 4.28326 11.4819 4.54605 11.5472 4.81743C11.6389 5.06359 11.9037 5.21127 12.1618 5.12581L12.1649 5.1248L20.8304 2.48063L29.6794 5.2039L29.6822 5.20485C29.9397 5.29016 30.2065 5.14335 30.2978 4.868C30.3839 4.60889 30.2381 4.34151 29.9662 4.24878L20.9672 1.50933L20.965 1.50878C20.8769 1.48666 20.7644 1.48617 20.6752 1.5073ZM21.1 0.971142L21.1155 0.975038L30.1352 3.72082L30.1388 3.72202C30.6622 3.89714 31.0195 4.4535 30.8239 5.04267C30.6511 5.56327 30.1001 5.92539 29.5109 5.73203L20.8296 3.06038L12.3327 5.65315C11.7536 5.8428 11.2031 5.49514 11.0243 5.0017L11.0162 4.97925L11.0104 4.95608C10.8778 4.42343 11.1459 3.85661 11.7054 3.66937L11.7134 3.66668L20.5274 0.972846L20.5342 0.971142C20.7129 0.926286 20.9213 0.926286 21.1 0.971142ZM8.33756 4.72695C8.4379 4.7136 8.54166 4.71495 8.64619 4.73245C9.06658 4.80278 9.38754 5.11328 9.48284 5.50572L14.4261 15.1894H27.512L32.1732 5.52685C32.2317 5.26669 32.3916 5.03879 32.6246 4.89792C32.9247 4.69462 33.3163 4.6685 33.6493 4.82043C33.995 4.97817 34.1913 5.29315 34.2299 5.62463L34.383 6.5215C34.4269 6.72856 34.5753 7.80552 34.5753 9.40417C34.5753 11.0157 34.4148 13.1356 33.8269 15.5235C33.2652 17.779 32.2475 20.4965 30.3975 23.1613C28.5473 25.8262 25.8689 28.4593 22.0215 30.525L22.0196 30.5261L21.3221 30.915L21.3211 30.9156C20.996 31.1015 20.6384 31.1017 20.3134 30.9158L20.3121 30.9151L19.6144 30.526L19.6132 30.5253C15.7659 28.4597 13.0868 25.8262 11.2366 23.1613C9.38805 20.4986 8.36895 17.7817 7.85856 15.4922C7.27153 13.106 7.11133 10.9616 7.11133 9.37782C7.11133 7.77924 7.2597 6.7023 7.30361 6.49518L7.41379 5.84995C7.37846 5.43386 7.6053 5.04556 7.93835 4.84495L7.9609 4.83136L7.98485 4.82043C8.09861 4.76853 8.21785 4.7376 8.33756 4.72695ZM8.55472 5.27916C8.50336 5.27057 8.4538 5.27031 8.40696 5.27694L8.39879 5.2781L8.39058 5.27876C8.33337 5.28341 8.27571 5.29769 8.21983 5.32253C8.04717 5.42894 7.9434 5.63155 7.96828 5.82324L7.97364 5.86453L7.84781 6.60141L7.84628 6.60824C7.81679 6.74038 7.66564 7.7801 7.66564 9.37782C7.66564 10.9263 7.82248 13.0264 8.39753 15.3627L8.39826 15.3656L8.39893 15.3686C8.89562 17.5982 9.88881 20.2478 11.6919 22.8451C13.4953 25.4427 16.1094 28.015 19.8754 30.0369L19.8805 30.0397L20.5875 30.4341L20.5885 30.4346C20.743 30.523 20.8911 30.523 21.0456 30.4346L21.0493 30.4325L21.7575 30.0375L21.7587 30.0369C25.5247 28.015 28.1388 25.4427 29.9422 22.8451C31.7458 20.2471 32.7395 17.5957 33.2888 15.3902C33.8641 13.0535 34.0209 10.9792 34.0209 9.40417C34.0209 7.80644 33.8698 6.76672 33.8403 6.6346L33.8388 6.62776L33.6806 5.70157L33.6798 5.69301C33.6626 5.53375 33.5731 5.39499 33.4192 5.32472C33.2525 5.24866 33.065 5.26722 32.9319 5.35931L32.9237 5.36499L32.9152 5.37005C32.8071 5.43387 32.7334 5.54078 32.7105 5.66617L32.7037 5.703L27.8485 15.7674L27.6542 15.7464C27.6375 15.7446 27.6207 15.7437 27.6034 15.7437H14.0867L8.95579 5.69243L8.94827 5.65499C8.9105 5.46688 8.76013 5.31353 8.55472 5.27916ZM8.70362 7.3215L19.6666 28.7962L18.8105 28.2535C15.9909 26.4662 13.9726 24.3664 12.5106 22.2667L12.5098 22.2655C10.796 19.7773 9.84684 17.2623 9.31965 15.119C8.76612 12.8959 8.63444 10.8589 8.63444 9.37782C8.63444 9.00888 8.64327 8.67095 8.65677 8.36927L8.70362 7.3215ZM32.9633 7.35946L33.0078 8.4679C33.0189 8.74403 33.0259 9.04857 33.0259 9.37782C33.0259 10.859 32.8942 12.8963 32.3406 15.1195C31.8134 17.2363 30.8644 19.7773 29.1503 22.2658C27.6964 24.3766 25.6736 26.4488 22.8903 28.2238L22.0009 28.7911L28.7704 16.0752V16.0509L32.9633 7.35946ZM9.18902 9.49142C9.19571 10.9308 9.33182 12.8739 9.85766 14.9855C10.372 17.077 11.2974 19.5278 12.966 21.9505C14.233 23.7702 15.9302 25.5919 18.2298 27.2009L9.18902 9.49142ZM29.3248 16.1775V16.2136L23.5058 27.1438C25.7596 25.5547 27.4444 23.7653 28.6938 21.9514C30.3622 19.5292 31.2879 17.0529 31.8027 14.9855C32.3086 12.9541 32.4537 11.0786 32.47 9.65764L29.3248 16.1775ZM14.5835 16.717H27.3359L20.8285 28.9507L14.5835 16.717ZM15.4888 17.2714L20.8386 27.7514L26.4131 17.2714H15.4888Z" fill="black"/>
<path d="M21.0325 1.23996L21.1 0.971142M21.1 0.971142C20.9213 0.926286 20.7129 0.926286 20.5342 0.971142L20.5274 0.972846L11.7134 3.66668L11.7054 3.66937C11.1459 3.85661 10.8778 4.42343 11.0104 4.95608L11.0162 4.97925L11.0243 5.0017C11.2031 5.49514 11.7536 5.8428 12.3327 5.65315L20.8296 3.06038L29.5109 5.73203C30.1001 5.92539 30.6511 5.56327 30.8239 5.04267C31.0195 4.4535 30.6622 3.89714 30.1388 3.72202L30.1352 3.72082L21.1155 0.975038L21.1 0.971142ZM7.98485 4.82043L8.09991 5.07257M7.98485 4.82043C8.09861 4.76853 8.21785 4.7376 8.33756 4.72695C8.4379 4.7136 8.54166 4.71495 8.64619 4.73245C9.06658 4.80278 9.38754 5.11328 9.48284 5.50572L14.4261 15.1894H27.512L32.1732 5.52685C32.2317 5.26669 32.3916 5.03879 32.6246 4.89792C32.9247 4.69462 33.3163 4.6685 33.6493 4.82043C33.995 4.97817 34.1913 5.29315 34.2299 5.62463L34.383 6.5215C34.4269 6.72856 34.5753 7.80552 34.5753 9.40417C34.5753 11.0157 34.4148 13.1356 33.8269 15.5235C33.2652 17.779 32.2475 20.4965 30.3975 23.1613C28.5473 25.8262 25.8689 28.4593 22.0215 30.525L22.0196 30.5261L21.3221 30.915L21.3211 30.9156C20.996 31.1015 20.6384 31.1017 20.3134 30.9158L20.3121 30.9151L19.6144 30.526L19.6132 30.5253C15.7659 28.4597 13.0868 25.8262 11.2366 23.1613C9.38805 20.4986 8.36895 17.7817 7.85856 15.4922C7.27153 13.106 7.11133 10.9616 7.11133 9.37781C7.11133 7.77924 7.2597 6.7023 7.30361 6.49518L7.41379 5.84995C7.37846 5.43386 7.6053 5.04556 7.93835 4.84495L7.9609 4.83136L7.98485 4.82043ZM8.10098 5.07494L8.13797 5.15599M11.8824 4.19466L20.6752 1.5073C20.7644 1.48617 20.8769 1.48666 20.965 1.50878L20.9672 1.50933L29.9662 4.24878C30.2381 4.34151 30.3839 4.60889 30.2978 4.868C30.2065 5.14335 29.9397 5.29016 29.6822 5.20485L29.6794 5.2039L20.8304 2.48063L12.1649 5.1248L12.1618 5.12582C11.9037 5.21127 11.6389 5.06359 11.5472 4.81743C11.4819 4.54605 11.6176 4.28326 11.8813 4.19504L11.8824 4.19466ZM8.40696 5.27694C8.4538 5.27031 8.50336 5.27057 8.55472 5.27916C8.76013 5.31353 8.9105 5.46688 8.94827 5.65499L8.95579 5.69243L14.0867 15.7437H27.6034C27.6207 15.7437 27.6375 15.7446 27.6542 15.7464L27.8485 15.7674L32.7037 5.703L32.7105 5.66617C32.7334 5.54078 32.8071 5.43387 32.9152 5.37005L32.9237 5.36499L32.9319 5.35931C33.065 5.26722 33.2525 5.24866 33.4192 5.32472C33.5731 5.39499 33.6626 5.53375 33.6798 5.69301L33.6806 5.70157L33.8388 6.62776L33.8403 6.6346C33.8698 6.76672 34.0209 7.80644 34.0209 9.40417C34.0209 10.9792 33.8641 13.0535 33.2888 15.3902C32.7395 17.5957 31.7458 20.2471 29.9422 22.8451C28.1388 25.4427 25.5247 28.015 21.7587 30.0369L21.7575 30.0375L21.0493 30.4325L21.0465 30.4342C20.8919 30.5227 20.743 30.523 20.5885 30.4346L20.5875 30.4341L19.8805 30.0397L19.8754 30.0369C16.1094 28.015 13.4953 25.4427 11.6919 22.8451C9.88881 20.2478 8.89562 17.5982 8.39893 15.3686L8.39826 15.3656L8.39753 15.3627C7.82248 13.0264 7.66564 10.9263 7.66564 9.37781C7.66564 7.7801 7.81679 6.74038 7.84628 6.60824L7.84781 6.60141L7.97364 5.86453L7.96828 5.82324C7.9434 5.63155 8.04717 5.42894 8.21983 5.32253C8.27571 5.29769 8.33337 5.28341 8.39058 5.27876L8.39879 5.2781L8.40696 5.27694ZM8.70362 7.3215L8.65677 8.36927C8.64327 8.67095 8.63444 9.00888 8.63444 9.37781C8.63444 10.8589 8.76612 12.8959 9.31965 15.119C9.84684 17.2623 10.796 19.7773 12.5098 22.2655L12.5106 22.2667C13.9726 24.3664 15.9909 26.4662 18.8105 28.2535L19.6666 28.7962L8.70362 7.3215ZM33.0078 8.4679L32.9633 7.35946L28.7704 16.0509V16.0752L22.0009 28.7911L22.8903 28.2238C25.6736 26.4488 27.6964 24.3766 29.1503 22.2658C30.8644 19.7773 31.8134 17.2363 32.3406 15.1195C32.8942 12.8963 33.0259 10.859 33.0259 9.37781C33.0259 9.04857 33.0189 8.74403 33.0078 8.4679ZM9.85766 14.9855C9.33182 12.8739 9.19571 10.9308 9.18902 9.49142L18.2298 27.2009C15.9302 25.5919 14.233 23.7702 12.966 21.9505C11.2974 19.5278 10.372 17.077 9.85766 14.9855ZM29.3248 16.2136V16.1775L32.47 9.65764C32.4537 11.0786 32.3086 12.9541 31.8027 14.9855C31.2879 17.0529 30.3622 19.5292 28.6938 21.9514C27.4444 23.7653 25.7596 25.5547 23.5058 27.1438L29.3248 16.2136ZM14.5835 16.717H27.3359L20.8285 28.9507L14.5835 16.717ZM20.8386 27.7514L15.4888 17.2714H26.4131L20.8386 27.7514Z" stroke="black" stroke-width="0.369543" stroke-miterlimit="10"/>
<path d="M61.3374 10.1857H48.9473C48.7293 10.1857 48.5476 10.2587 48.366 10.441C48.2207 10.587 48.1117 10.8058 48.1117 11.0247V20.9828C48.1117 21.2017 48.1843 21.3841 48.366 21.5664C48.5113 21.7124 48.7293 21.8218 48.9473 21.8218H61.3374V23.4997H48.9473C48.257 23.4997 47.6756 23.2443 47.2032 22.7702C46.7309 22.296 46.4766 21.7124 46.4766 21.0193V10.9882C46.4766 10.2952 46.7309 9.71154 47.2032 9.23735C47.6756 8.76315 48.257 8.50781 48.9473 8.50781H61.3374V10.1857Z" fill="black"/>
<path d="M60.8022 23.1169H60.9584V22.9608V22.3536V22.1975H60.8022H48.9476C48.6109 22.1975 48.3004 22.0341 48.0976 21.8305C47.8497 21.5817 47.7327 21.3048 47.7327 20.9792V11.0211C47.7327 10.6845 47.8947 10.3735 48.0976 10.1699C48.3455 9.92096 48.622 9.80294 48.9476 9.80294H60.8022H60.9584V9.6468V9.03968V8.88351H60.8022H48.9476C48.3619 8.88351 47.8762 9.09596 47.4722 9.50148C47.0683 9.90694 46.8562 10.3953 46.8562 10.9847V21.0157C46.8562 21.6051 47.0683 22.0935 47.4722 22.4989C47.8762 22.9045 48.3619 23.1169 48.9476 23.1169H60.8022ZM46.9348 8.96614C47.4756 8.4232 48.1526 8.125 48.9476 8.125H61.717V10.5614H48.9476C48.9067 10.5614 48.8534 10.5641 48.7935 10.5898C48.7363 10.6141 48.686 10.6539 48.635 10.7051C48.5878 10.7525 48.5531 10.8072 48.5298 10.8588C48.5075 10.9085 48.4912 10.9661 48.4912 11.0211V20.9792C48.4912 21.0217 48.4941 21.0754 48.5197 21.1356C48.5441 21.1932 48.5839 21.2439 48.635 21.2953C48.6822 21.3426 48.7364 21.3773 48.7876 21.4005C48.8366 21.4226 48.8934 21.439 48.9476 21.439H61.717V23.8754H48.9476C48.1526 23.8754 47.4756 23.5772 46.9348 23.0343C46.394 22.4914 46.0977 21.8124 46.0977 21.0157V10.9847C46.0977 10.188 46.394 9.50901 46.9348 8.96614Z" fill="black" stroke="black" stroke-width="0.312331" stroke-miterlimit="10"/>
<path d="M84.591 8.50781V10.1857H72.6734V15.1466H82.2657V16.861H72.6734V21.8218H84.591V23.4997H71.002V8.54429H84.591V8.50781Z" fill="black"/>
<path d="M73.2091 10.564H73.053V10.7202V14.6101V14.7664H73.2091H82.6453V17.2392H73.2091H73.053V17.3955V21.2854V21.4416H73.2091H84.9707V23.878H70.623V8.16406H84.9707V8.50685V10.564H73.2091ZM84.2122 9.07874V8.92258H84.056H71.5378H71.3816V9.07874V22.9634V23.1195H71.5378H84.056H84.2122V22.9634V22.3562V22.2001H84.056H72.2945V16.4807H81.7306H81.8868V16.3246V15.681V15.5249H81.7306H72.2945V9.80552H84.056H84.2122V9.64938V9.07874Z" fill="black" stroke="black" stroke-width="0.312331" stroke-miterlimit="10"/>
<path d="M109.153 10.9882V15.3655C109.153 16.0585 108.899 16.6421 108.427 17.1163C107.954 17.5905 107.372 17.8458 106.683 17.8458H104.394L109.081 23.4267H106.864L102.177 17.8823H96.7266C96.6176 17.8823 96.3269 17.8458 95.9273 17.8093V23.4633H94.2559V8.50781H106.683C107.372 8.50781 107.954 8.76315 108.427 9.23735C108.899 9.71154 109.153 10.2952 109.153 10.9882ZM96.7266 16.1679H106.646C106.864 16.1679 107.046 16.095 107.191 15.9491C107.337 15.8031 107.409 15.6207 107.409 15.4019V11.0247C107.409 10.8058 107.337 10.6234 107.191 10.441C107.046 10.2952 106.864 10.1857 106.646 10.1857H96.7266C96.5087 10.1857 96.3269 10.2587 96.1453 10.441C96 10.587 95.891 10.8058 95.891 11.0247V15.4019C95.891 15.6207 95.9636 15.8031 96.1453 15.9491C96.2906 16.095 96.5087 16.1679 96.7266 16.1679Z" fill="black"/>
<path d="M105.423 18.4781L109.894 23.8025H106.689L102.048 18.3133L102.002 18.258H101.929H96.7269C96.6665 18.258 96.5775 18.2508 96.478 18.2412L96.3069 18.2247V18.3966V23.8389H93.877V8.125H106.683C107.477 8.125 108.155 8.42319 108.695 8.96614C109.236 9.50901 109.533 10.188 109.533 10.9847V15.3619C109.533 16.1585 109.236 16.8375 108.695 17.3804C108.155 17.9233 107.477 18.2216 106.683 18.2216H105.542H105.207L105.423 18.4781ZM94.6354 22.9243V23.0804H94.7917H95.3922H95.5483V22.9243V17.3903L95.962 17.4281C96.117 17.4423 96.2568 17.4565 96.374 17.4684L96.4741 17.4786C96.5421 17.4854 96.5981 17.4908 96.6432 17.4945C96.6656 17.4963 96.6839 17.4976 96.6988 17.4985L96.7171 17.4993L96.7227 17.4994L96.7246 17.4995H96.7257H96.727H102.354L106.994 22.9886L107.041 23.044H107.113H107.932H108.267L108.051 22.7873L103.58 17.463H106.683C107.268 17.463 107.754 17.2506 108.158 16.8451C108.562 16.4395 108.774 15.9513 108.774 15.3619V10.9847C108.774 10.3953 108.562 9.90694 108.158 9.50148C107.754 9.09596 107.268 8.88351 106.683 8.88351H94.7917H94.6354V9.03968V22.9243ZM95.8958 16.2316L95.8884 16.225C95.621 16.0009 95.512 15.7104 95.512 15.3983V11.0211C95.512 10.6845 95.674 10.3735 95.8769 10.1699C96.1249 9.92096 96.4014 9.80294 96.7269 9.80294H106.646C107.001 9.80294 107.273 9.98242 107.46 10.1699L107.475 10.1848L107.488 10.2012C107.678 10.4394 107.789 10.703 107.789 11.0211V15.3983C107.789 15.7106 107.681 15.9914 107.46 16.2131C107.239 16.4349 106.959 16.5436 106.646 16.5436H96.7269C96.441 16.5436 96.1265 16.4516 95.8958 16.2316ZM96.3831 15.6498L96.3995 15.663L96.4143 15.6779C96.4719 15.7355 96.5835 15.7851 96.7269 15.7851H106.646C106.703 15.7851 106.755 15.7776 106.805 15.7576C106.856 15.7371 106.893 15.7074 106.923 15.6779C106.952 15.6481 106.982 15.6105 107.002 15.5592C107.023 15.5091 107.03 15.4556 107.03 15.3983V11.0211C107.03 10.9132 107.002 10.8179 106.916 10.7023L106.908 10.6905L106.897 10.6804C106.802 10.593 106.719 10.5614 106.646 10.5614H96.7269C96.686 10.5614 96.6327 10.5641 96.5728 10.5898C96.5157 10.6141 96.4653 10.6539 96.4143 10.7051C96.3671 10.7525 96.3324 10.8072 96.3092 10.8588C96.2869 10.9085 96.2706 10.9661 96.2706 11.0211V15.3983C96.2706 15.4656 96.2816 15.5111 96.2964 15.5441C96.3105 15.5757 96.3348 15.611 96.3831 15.6498Z" fill="black"/>
<path d="M96.6988 17.4985C96.6839 17.4976 96.6656 17.4963 96.6432 17.4945C96.5981 17.4908 96.5421 17.4854 96.4741 17.4786L96.374 17.4684C96.2568 17.4565 96.117 17.4423 95.962 17.4281L95.5483 17.3903V22.9243V23.0804H95.3922H94.7917H94.6354V22.9243V9.03968V8.88351H94.7917H106.683C107.268 8.88351 107.754 9.09596 108.158 9.50148C108.562 9.90694 108.774 10.3953 108.774 10.9847V15.3619C108.774 15.9513 108.562 16.4395 108.158 16.8451C107.754 17.2506 107.268 17.463 106.683 17.463H103.58L108.051 22.7873L108.267 23.044H107.932H107.113H107.041L106.994 22.9886L102.354 17.4995H96.727H96.7257M96.6988 17.4985L96.7074 17.3453M96.6988 17.4985L96.7171 17.4993L96.7227 17.4994L96.7246 17.4995H96.7257M96.7257 17.4995L96.727 17.3434M107.46 10.1699C107.273 9.98242 107.001 9.80294 106.646 9.80294H96.7269C96.4014 9.80294 96.1249 9.92096 95.8769 10.1699C95.674 10.3735 95.512 10.6845 95.512 11.0211V15.3983C95.512 15.7104 95.621 16.0009 95.8884 16.225L95.8958 16.2316C96.1265 16.4516 96.441 16.5436 96.7269 16.5436H106.646C106.959 16.5436 107.239 16.4349 107.46 16.2131C107.681 15.9914 107.789 15.7106 107.789 15.3983V11.0211C107.789 10.703 107.678 10.4394 107.488 10.2012M107.46 10.1699L107.567 10.0635M107.46 10.1699L107.475 10.1848L107.488 10.2012M107.488 10.2012L107.61 10.1038M96.3831 15.6498L96.4796 15.5296M96.3831 15.6498L96.3995 15.663L96.4143 15.6779C96.4719 15.7355 96.5835 15.7851 96.7269 15.7851H106.646C106.703 15.7851 106.755 15.7776 106.805 15.7576C106.856 15.7371 106.893 15.7074 106.923 15.6779C106.952 15.6481 106.982 15.6105 107.002 15.5592C107.023 15.5091 107.03 15.4556 107.03 15.3983V11.0211C107.03 10.9132 107.002 10.8179 106.916 10.7023L106.908 10.6905L106.897 10.6804C106.802 10.593 106.719 10.5614 106.646 10.5614H96.7269C96.686 10.5614 96.6327 10.5641 96.5728 10.5898C96.5157 10.6141 96.4653 10.6539 96.4143 10.7051C96.3671 10.7525 96.3324 10.8072 96.3092 10.8588C96.2869 10.9085 96.2706 10.9661 96.2706 11.0211V15.3983C96.2706 15.4656 96.2816 15.5111 96.2964 15.5441M96.3831 15.6498C96.3348 15.611 96.3105 15.5757 96.2964 15.5441M96.2964 15.5441L96.4284 15.4849M105.423 18.4781L109.894 23.8025H106.689L102.048 18.3133L102.002 18.258H101.929H96.7269C96.6665 18.258 96.5775 18.2508 96.478 18.2412L96.3069 18.2247V18.3966V23.8389H93.877V8.125H106.683C107.477 8.125 108.155 8.42319 108.695 8.96614C109.236 9.50901 109.533 10.188 109.533 10.9847V15.3619C109.533 16.1585 109.236 16.8375 108.695 17.3804C108.155 17.9233 107.477 18.2216 106.683 18.2216H105.542H105.207L105.423 18.4781Z" stroke="black" stroke-width="0.312331" stroke-miterlimit="10"/>
<path d="M118.055 8.50781H132.952V10.1857H126.339V23.4633H124.667V10.1857H118.055V8.50781Z" fill="black"/>
<path d="M126.875 10.5614H126.719V10.7176V23.8389H124.288V10.7176V10.5614H124.132H117.676V8.125H133.331V10.5614H126.875ZM118.434 9.6468V9.80294H118.591H125.047V22.9243V23.0804H125.203H125.804H125.96V22.9243V9.80294H132.416H132.573V9.6468V9.03968V8.88351H132.416H118.591H118.434V9.03968V9.6468Z" fill="black" stroke="black" stroke-width="0.312331" stroke-miterlimit="10"/>
<path d="M141.963 23.4633V8.50781H143.634V23.4633H141.963Z" fill="black"/>
<path d="M142.343 22.9243V23.0804H142.499H143.099H143.256V22.9243V9.03968V8.88351H143.099H142.499H142.343V9.03968V22.9243ZM141.584 23.8389V8.125H144.014V23.8389H141.584Z" fill="black" stroke="black" stroke-width="0.312331" stroke-miterlimit="10"/>
<path d="M166.016 8.50781H168.16L161.947 15.9855L168.197 23.4633H166.016L160.458 16.8245H155.661V23.4633H153.953V8.50781H155.661V15.1466H160.458L166.016 8.50781Z" fill="black"/>
<path d="M165.84 8.125H168.969L162.524 15.8812L162.441 15.9813L162.525 16.0812L169.008 23.8389H165.84L160.327 17.2561L160.28 17.2002H160.208H156.197H156.041V17.3564V23.8389H153.574V8.125H156.041V14.6076V14.7638H156.197H160.208H160.28L160.327 14.7079L165.84 8.125ZM154.333 22.9243V23.0804H154.489H155.126H155.282V22.9243V16.4416H160.635L166.147 23.0245L166.194 23.0804H166.267H167.052H167.386L167.171 22.8241L161.454 15.9827L167.139 9.13948L167.352 8.88351H167.02H166.267H166.194L166.147 8.93942L160.635 15.5223H155.282V9.03968V8.88351H155.126H154.489H154.333V9.03968V22.9243Z" fill="black" stroke="black" stroke-width="0.312331" stroke-miterlimit="10"/>
</svg>
