<svg width="164" height="24" viewBox="0 0 164 24" fill="none" xmlns="http://www.w3.org/2000/svg">
<path d="M142.685 4H138.895L135.352 20H139.142L142.685 4Z" fill="black"/>
<path d="M159.111 4H155.32L151.777 20H155.568L159.111 4Z" fill="black"/>
<path d="M146.474 4L151.776 20H147.986L142.684 4H146.474Z" fill="black"/>
<path d="M52.7287 16.2097L55.4329 4H51.6426L48.0996 20H68.3124L69.1513 16.2097H52.7287Z" fill="black"/>
<path d="M73.4559 4.00313L69.916 20.0031H84.0162C87.3933 20.0031 90.7361 17.2645 91.4841 13.8873L88.5326 10.097H92.3229C93.0678 6.72926 90.9426 4 87.578 4L73.4559 4.00313ZM84.8706 16.2128H74.542L75.0553 13.8873H87.6875L87.6844 13.9061C87.4058 15.18 86.1445 16.2128 84.8706 16.2128ZM88.5326 10.1002H75.9004L76.4105 7.79343H86.7392C88.0099 7.79343 88.8143 8.82629 88.5326 10.1002Z" fill="black"/>
<path d="M133.752 20L135.104 13.8842L132.156 10.097H135.946C136.691 6.72926 134.566 4 131.201 4H117.082L113.539 20H117.329L118.681 13.8842H131.314L129.962 20H133.752ZM132.156 10.097H119.523L120.034 7.7903H130.362C131.633 7.7903 132.437 8.82316 132.156 10.097Z" fill="black"/>
<path d="M95.2676 4L91.7246 20H111.937L115.48 4H95.2676ZM108.989 16.2097H96.3568L98.2223 7.7903H110.854L108.989 16.2097Z" fill="black"/>
<path d="M39.5345 4H35.3435L25.4844 20H29.2715L39.5345 4H43.7254L46.5016 20H42.7113L39.5345 4Z" fill="black"/>
<path d="M23.6335 4L22.2814 10.1064H9.64919L11.0013 4H7.211L3.66797 20H7.45827L9.64919 10.1064L12.6007 13.8967H21.4426L20.0905 20H23.8808L27.4238 4H23.6335Z" fill="black"/>
</svg>
