<svg xmlns="http://www.w3.org/2000/svg" xmlns:xlink="http://www.w3.org/1999/xlink" width="90" height="70" viewBox="0 0 90 70" fill="none">
    <rect x="19.375" y="2.72705" width="50.7053" height="47.7273" fill="url(#pattern0)"/>
    <path d="M3.84808 66.8389V53.9463H9.01014C9.95862 53.9463 10.7497 54.0869 11.3834 54.3681C12.0172 54.6493 12.4935 55.0396 12.8124 55.539C13.1314 56.0342 13.2909 56.605 13.2909 57.2513C13.2909 57.7549 13.1902 58.1977 12.9887 58.5796C12.7873 58.9573 12.5103 59.2678 12.1577 59.5113C11.8094 59.7505 11.4107 59.9204 10.9617 60.0212V60.1471C11.4527 60.1681 11.9122 60.3066 12.3403 60.5626C12.7726 60.8186 13.123 61.1774 13.3916 61.639C13.6602 62.0965 13.7945 62.6421 13.7945 63.2758C13.7945 63.9599 13.6245 64.5705 13.2846 65.1077C12.9488 65.6407 12.4515 66.0625 11.7926 66.373C11.1337 66.6836 10.3216 66.8389 9.35638 66.8389H3.84808ZM6.5739 64.6104H8.79611C9.55573 64.6104 10.1097 64.4656 10.458 64.176C10.8064 63.8822 10.9805 63.4919 10.9805 63.0051C10.9805 62.6484 10.8945 62.3336 10.7224 62.0608C10.5504 61.788 10.3049 61.574 9.9859 61.4187C9.67114 61.2634 9.29553 61.1858 8.85906 61.1858H6.5739V64.6104ZM6.5739 59.3413H8.59466C8.96818 59.3413 9.29972 59.2762 9.5893 59.1461C9.88308 59.0118 10.1139 58.823 10.2818 58.5796C10.4538 58.3362 10.5399 58.0445 10.5399 57.7045C10.5399 57.2387 10.3741 56.8631 10.0426 56.5777C9.71521 56.2923 9.24936 56.1496 8.64502 56.1496H6.5739V59.3413ZM17.845 53.9463V66.8389H15.1633V53.9463H17.845ZM24.0076 67.0277C23.0297 67.0277 22.1841 66.82 21.4706 66.4045C20.7613 65.9848 20.2137 65.4015 19.8276 64.6544C19.4415 63.9032 19.2484 63.0324 19.2484 62.0419C19.2484 61.0431 19.4415 60.1702 19.8276 59.4231C20.2137 58.6719 20.7613 58.0885 21.4706 57.6731C22.1841 57.2534 23.0297 57.0435 24.0076 57.0435C24.9854 57.0435 25.829 57.2534 26.5382 57.6731C27.2517 58.0885 27.8015 58.6719 28.1876 59.4231C28.5737 60.1702 28.7667 61.0431 28.7667 62.0419C28.7667 63.0324 28.5737 63.9032 28.1876 64.6544C27.8015 65.4015 27.2517 65.9848 26.5382 66.4045C25.829 66.82 24.9854 67.0277 24.0076 67.0277ZM24.0202 64.9503C24.465 64.9503 24.8364 64.8244 25.1344 64.5726C25.4324 64.3166 25.6569 63.9683 25.808 63.5276C25.9633 63.0869 26.0409 62.5854 26.0409 62.023C26.0409 61.4607 25.9633 60.9592 25.808 60.5185C25.6569 60.0778 25.4324 59.7295 25.1344 59.4735C24.8364 59.2175 24.465 59.0895 24.0202 59.0895C23.5711 59.0895 23.1934 59.2175 22.887 59.4735C22.5849 59.7295 22.3561 60.0778 22.2008 60.5185C22.0498 60.9592 21.9742 61.4607 21.9742 62.023C21.9742 62.5854 22.0498 63.0869 22.2008 63.5276C22.3561 63.9683 22.5849 64.3166 22.887 64.5726C23.1934 64.8244 23.5711 64.9503 24.0202 64.9503ZM34.5248 67.0277C33.5344 67.0277 32.6824 66.8179 31.969 66.3982C31.2597 65.9743 30.7141 65.3868 30.3322 64.6355C29.9545 63.8843 29.7657 63.0198 29.7657 62.0419C29.7657 61.0515 29.9566 60.1827 30.3385 59.4357C30.7246 58.6845 31.2723 58.099 31.9816 57.6794C32.6908 57.2555 33.5344 57.0435 34.5122 57.0435C35.3558 57.0435 36.0944 57.1967 36.7281 57.5031C37.3619 57.8095 37.8634 58.2396 38.2327 58.7936C38.602 59.3476 38.8056 59.9981 38.8433 60.7451H36.3127C36.2413 60.2625 36.0525 59.8743 35.7461 59.5805C35.4439 59.2825 35.0473 59.1335 34.5563 59.1335C34.1408 59.1335 33.7778 59.2469 33.4672 59.4735C33.1609 59.6959 32.9216 60.0212 32.7496 60.4492C32.5775 60.8773 32.4915 61.3956 32.4915 62.0042C32.4915 62.6211 32.5754 63.1457 32.7433 63.578C32.9154 64.0102 33.1567 64.3397 33.4672 64.5663C33.7778 64.7929 34.1408 64.9062 34.5563 64.9062C34.8627 64.9062 35.1376 64.8433 35.381 64.7174C35.6286 64.5915 35.8321 64.4089 35.9916 64.1697C36.1553 63.9263 36.2623 63.6346 36.3127 63.2947H38.8433C38.8014 64.0333 38.5999 64.6838 38.239 65.2462C37.8823 65.8044 37.3891 66.2408 36.7596 66.5556C36.1301 66.8703 35.3852 67.0277 34.5248 67.0277ZM42.6357 64.0564L42.642 60.8395H43.0323L46.1296 57.1694H49.2079L45.0468 62.0293H44.411L42.6357 64.0564ZM40.2058 66.8389V53.9463H42.8876V66.8389H40.2058ZM46.2492 66.8389L43.4038 62.6274L45.1916 60.7325L49.3905 66.8389H46.2492ZM54.7898 66.8389H50.2194V53.9463H54.8275C56.1243 53.9463 57.2407 54.2044 58.1766 54.7206C59.1125 55.2326 59.8322 55.9692 60.3358 56.9302C60.8436 57.8913 61.0975 59.0412 61.0975 60.38C61.0975 61.723 60.8436 62.8771 60.3358 63.8424C59.8322 64.8076 59.1083 65.5484 58.164 66.0646C57.2239 66.5808 56.0992 66.8389 54.7898 66.8389ZM52.9453 64.5033H54.6764C55.4822 64.5033 56.16 64.3607 56.7098 64.0753C57.2638 63.7857 57.6792 63.3387 57.9562 62.7344C58.2374 62.1259 58.378 61.3411 58.378 60.38C58.378 59.4273 58.2374 58.6488 57.9562 58.0445C57.6792 57.4401 57.2659 56.9953 56.7161 56.7099C56.1663 56.4245 55.4885 56.2818 54.6827 56.2818H52.9453V64.5033ZM64.2573 66.8389H61.3363L65.787 53.9463H69.2997L73.7441 66.8389H70.8232L67.5937 56.8925H67.493L64.2573 66.8389ZM64.0747 61.7712H70.9743V63.899H64.0747V61.7712ZM82.8843 58.1137C82.7962 57.8074 82.6724 57.5367 82.5129 57.3016C82.3534 57.0624 82.1583 56.861 81.9275 56.6973C81.7008 56.5294 81.4406 56.4014 81.1469 56.3133C80.8573 56.2252 80.5362 56.1811 80.1837 56.1811C79.5248 56.1811 78.9456 56.3448 78.4462 56.6721C77.951 56.9995 77.5649 57.4758 77.2879 58.1011C77.0109 58.7223 76.8724 59.4819 76.8724 60.38C76.8724 61.2781 77.0088 62.0419 77.2816 62.6714C77.5544 63.301 77.9405 63.7815 78.4399 64.113C78.9393 64.4404 79.529 64.6041 80.2089 64.6041C80.8258 64.6041 81.3525 64.495 81.789 64.2767C82.2296 64.0543 82.5654 63.7416 82.7962 63.3387C83.0312 62.9358 83.1487 62.4595 83.1487 61.9097L83.7027 61.9916H80.3788V59.9393H85.7738V61.5635C85.7738 62.6966 85.5346 63.6703 85.0562 64.4845C84.5777 65.2944 83.9188 65.9198 83.0795 66.3604C82.2401 66.7969 81.2791 67.0151 80.1963 67.0151C78.9876 67.0151 77.9258 66.7486 77.0109 66.2156C76.096 65.6785 75.3826 64.9167 74.8705 63.9305C74.3627 62.94 74.1088 61.7649 74.1088 60.4052C74.1088 59.3602 74.2599 58.4285 74.5621 57.6101C74.8685 56.7875 75.2965 56.0909 75.8463 55.5201C76.3961 54.9493 77.0361 54.515 77.7663 54.217C78.4966 53.919 79.2877 53.77 80.1396 53.77C80.8699 53.77 81.5498 53.8771 82.1793 54.0911C82.8088 54.3009 83.367 54.5989 83.8538 54.985C84.3448 55.3711 84.7456 55.8307 85.0562 56.3637C85.3667 56.8925 85.5661 57.4758 85.6542 58.1137H82.8843Z" fill="white"/>
    <defs>
    <pattern id="pattern0" patternContentUnits="objectBoundingBox" width="1" height="1">
    <use xlink:href="#image0_2171_7818" transform="matrix(0.000699804 0 0 0.00074347 -0.433539 -0.243842)"/>
    </pattern></defs></svg>