<svg width="68" height="32" viewBox="0 0 68 32" fill="none" xmlns="http://www.w3.org/2000/svg">
<g clip-path="url(#clip0_129_267)">
<path d="M4.33161 0.211884H15.3797C19.6805 0.211884 23.7952 1.91592 26.834 4.95662C28.3387 6.46039 29.5323 8.24604 30.3465 10.2115C31.1606 12.1769 31.5793 14.2835 31.5787 16.4109V27.459C31.5787 28.0308 31.4721 28.593 31.2491 29.1155C31.0353 29.6429 30.7153 30.1206 30.3089 30.519C29.9079 30.9223 29.4308 31.2419 28.9054 31.4593C28.3829 31.6725 27.8207 31.7888 27.2498 31.7888H16.2724C14.1322 31.7888 12.0221 31.372 10.0447 30.5491C8.07021 29.7359 6.27797 28.5349 4.76683 27.0247C3.25569 25.5145 2.05569 23.7242 1.24342 21.7469C0.422123 19.7778 0.000699989 17.6651 0.00367778 15.5317V4.53982C0.00367778 3.38635 0.45925 2.29298 1.27152 1.47973C1.67311 1.07749 2.15013 0.758445 2.67523 0.540884C3.20034 0.323323 3.76322 0.211521 4.33161 0.211884Z" fill="#1C8D57"/>
<path d="M23.0004 8.63607C21.2673 6.83511 18.8179 5.9259 15.719 5.9259C12.7946 5.9259 10.413 6.86516 8.63147 8.71362C6.86056 10.5621 5.95911 13.1394 5.95911 16.3934V28.1045C7.44753 29.3277 9.14316 30.2741 10.9656 30.899V25.0987H14.9736C16.2531 25.0987 17.5016 24.9339 18.6822 24.6044C19.8628 24.2748 20.9969 23.7611 22.0418 23.0651C23.1371 22.3478 24.0075 21.3223 24.6472 20.0147C25.2773 18.7265 25.5962 17.2057 25.5962 15.4929C25.5962 12.743 24.7238 10.439 23.0004 8.63801V8.63607ZM19.0689 18.9397H19.0592C18.1791 19.8703 16.9772 20.3239 15.4001 20.3239H10.9656V16.2383C10.9656 14.5537 11.392 13.1782 12.2441 12.1711C13.0757 11.1824 14.2001 10.6997 15.6812 10.6997C17.1623 10.6997 18.373 11.1262 19.1765 11.9976C19.9994 12.8884 20.3978 14.0031 20.3978 15.4154C20.3978 16.8276 19.9616 18.0015 19.0709 18.9397H19.0689Z" fill="white"/>
<path fill-rule="evenodd" clip-rule="evenodd" d="M66.9833 18.3766C66.4706 17.5158 65.7349 16.8373 64.7859 16.3537C66.1216 15.3262 66.7904 13.8742 66.7904 12.0538C66.7904 10.2335 66.1604 8.733 64.9313 7.49326C63.6809 6.24383 61.8422 5.62445 59.5081 5.62445C57.3494 5.62445 55.5097 6.36112 54.0276 7.80344C52.5466 9.25546 51.8002 11.1437 51.8002 13.4099V28.5446H60.206C62.6457 28.5446 64.563 28.0018 65.8609 26.8987C67.1956 25.7646 67.8547 24.0809 67.8547 21.931C67.8547 20.5362 67.5736 19.3459 66.9921 18.3679L66.9833 18.3766ZM56.1097 13.468C56.1097 12.2574 56.4102 11.3569 56.9617 10.7666L57.0296 10.7084C57.6499 10.0978 58.4234 9.7973 59.4499 9.7973C60.5937 9.7973 61.3478 10.059 61.7646 10.5146C62.2202 11.0186 62.4528 11.6283 62.4528 12.4125C62.4528 13.1976 62.1717 13.7588 61.5901 14.2037C60.9504 14.6981 60.1963 14.9404 59.2667 14.9404H56.1097V13.468ZM62.7136 23.7223C62.2386 24.1391 61.406 24.3814 60.1769 24.3814H56.1194V18.9679H60.331C61.3488 18.9679 62.1233 19.2102 62.6554 19.6658C63.1594 20.0913 63.4212 20.701 63.4212 21.5821C63.4212 22.6386 63.1594 23.3346 62.7136 23.7223ZM39.8128 23.9452C40.249 23.4412 40.7424 22.9468 41.2745 22.4632L41.5072 22.2596C42.1566 21.6984 42.7178 21.2341 43.153 20.8754C43.6086 20.5071 44.3928 19.8683 45.5065 18.9776C46.6784 18.0189 47.5498 17.0506 48.082 16.0919C48.6248 15.0945 48.8962 13.8548 48.8962 12.3931C48.8962 10.3013 48.2177 8.61669 46.8422 7.42541C45.4968 6.25353 43.6571 5.67292 41.3909 5.67292C38.2726 5.67292 35.862 7.21217 34.2258 10.1947L33.9253 10.7375L37.3721 13.6328L37.7986 12.7508C38.2639 11.7737 38.8057 11.0661 39.4154 10.6115C40.0094 10.156 40.7393 9.9136 41.4878 9.9233C42.4755 9.9233 43.1821 10.1656 43.6474 10.6018C44.1224 11.0477 44.3453 11.5798 44.3453 12.238C44.3453 13.7676 43.6765 15.0364 42.2623 16.1307C39.3573 18.3485 37.566 19.8877 36.8303 20.8367C36.1227 21.7478 35.5906 22.5601 35.2523 23.2667C34.913 23.9743 34.6998 24.5559 34.5931 25.0493C34.4962 25.5242 34.4381 25.9982 34.4381 26.4722V28.5543H48.711V24.206H39.5899C39.6577 24.1284 39.7256 24.0412 39.8031 23.954L39.8128 23.9452Z" fill="#000A1E"/>
</g>
<defs>
<clipPath id="clip0_129_267">
<rect width="67.8541" height="32" fill="white"/>
</clipPath>
</defs>
</svg>
