<svg width="153" height="32" viewBox="0 0 153 32" fill="none" xmlns="http://www.w3.org/2000/svg">
<g clip-path="url(#clip0_129_236)">
<path d="M54.0902 15.0674C55.5186 15.4311 56.5393 16.2582 57.0174 17.5693C57.8211 19.7662 57.343 22.4998 55.0816 23.6877C53.9611 24.2567 52.7644 24.5852 51.4621 24.5882L42.6863 24.6058V6.86353L51.7818 6.87232C52.7879 6.87232 53.703 7.1539 54.5624 7.57627C55.5919 8.13355 56.2812 9.04281 56.4777 10.1984C56.642 11.0813 56.6214 11.97 56.3105 12.8089C55.9292 13.8472 55.1432 14.5013 54.0902 15.0615V15.0674ZM53.1956 13.0729C53.6033 12.1343 53.5534 11.0725 53.0577 10.2219C52.6236 9.68809 52.0106 9.5209 51.339 9.41238H45.8013V14.2842H51.072C51.952 14.2197 52.7263 13.8531 53.1956 13.0729ZM53.8467 20.8866C54.404 19.8806 54.3982 18.6751 53.8673 17.7042C53.3804 16.9563 52.6002 16.6395 51.7056 16.5369H45.8013V22.0599H51.6557C52.5415 21.9572 53.3276 21.6668 53.8467 20.8866Z" fill="#000A1E"/>
<path d="M62.4627 11.7531H59.6176V24.6059H62.4627V11.7531Z" fill="#000A1E"/>
<path d="M61.0401 5.80571L58.6155 8.23022L61.0463 10.661L63.4708 8.23645L61.0401 5.80571Z" fill="#000A1E"/>
<path d="M76.8341 14.1845L76.8399 16.7334L68.8179 16.7363L68.815 24.6087L65.703 24.597V6.86353H77.9516L77.9574 9.55024H68.8179L68.815 14.1845H76.8341Z" fill="#000A1E"/>
<path d="M82.7285 11.7562H79.8864V24.6061H82.7285V11.7562Z" fill="#000A1E"/>
<path d="M82.7285 6.86353H79.8864V9.55024H82.7285V6.86353Z" fill="#000A1E"/>
<path d="M101.222 24.5733C99.6503 23.9662 98.8291 22.5847 98.9083 20.9568C98.9669 19.7278 99.4743 18.6367 100.589 18.0325C101.064 17.7744 101.601 17.5398 102.158 17.4576L106.121 16.8681C106.611 16.7948 107.124 16.6217 107.438 16.2521C107.752 15.8826 107.772 15.3223 107.608 14.8061C107.49 14.4424 107.086 14.0377 106.605 13.8822C105.1 13.3953 102.39 13.5332 102.231 15.689H99.4127C99.401 13.979 100.477 12.5036 102.129 11.9053C103.78 11.3069 105.663 11.2571 107.4 11.6824C108.963 12.0666 110.377 13.2575 110.38 14.9821L110.394 22.1388C110.394 22.4556 110.688 22.7137 110.952 22.7079L111.746 22.6873V24.629C110.371 25.0837 108.127 25.3447 107.754 23.4118C106.171 24.9106 103.217 25.3418 101.222 24.5733ZM106.341 22.2092C106.924 21.8191 107.502 21.3 107.508 20.5638L107.529 18.2202C106.974 18.4754 106.505 18.6279 105.951 18.6837C104.994 18.7775 104.076 18.8978 103.158 19.1647C102.07 19.4815 101.451 20.5872 101.897 21.6549C102.404 22.8692 105.194 22.9718 106.338 22.2092H106.341Z" fill="#000A1E"/>
<path d="M92.0653 13.6914C91.0651 13.5594 90.1265 13.7794 89.4343 14.4599C88.7421 15.1403 88.4634 15.9645 88.4165 16.9002V24.5995H85.5656V11.7614L88.2493 11.7526L88.2992 13.6679C89.3932 11.9697 91.1238 11.21 93.0391 11.4388C94.1478 11.5708 95.2095 11.9345 95.9487 12.8173C96.5529 13.5418 96.855 14.4804 96.855 15.4659L96.8667 24.6025H94.0246L94.0216 16.5013C94.0216 15.1961 93.5758 13.8908 92.0653 13.6914Z" fill="#000A1E"/>
<path d="M119.686 13.6889C118.706 13.5598 117.788 13.7651 117.096 14.4163C116.404 15.0674 116.081 15.9385 116.037 16.8977V24.5999H113.186V11.7647L115.87 11.753L115.917 13.6683C116.996 11.9965 118.698 11.2251 120.592 11.4362C121.669 11.5565 122.701 11.8733 123.458 12.7004C124.074 13.375 124.455 14.2989 124.458 15.261L124.479 24.6058L121.645 24.6117V16.5046C121.64 15.2023 121.194 13.8912 119.686 13.6947V13.6889Z" fill="#000A1E"/>
<path d="M149.586 20.5726H152.296C151.53 24.2243 147.753 25.6146 144.429 24.679C142.643 24.1745 141.282 22.8663 140.669 21.1182C139.851 18.7805 140.038 15.9765 141.496 13.9145C142.605 12.3453 144.309 11.4595 146.227 11.4067C150.357 11.2924 152.953 15.0203 152.475 18.9272H143.057C143.024 19.5549 143.162 20.1767 143.391 20.7457C143.945 22.1242 145.256 22.7813 146.702 22.7197C148.049 22.661 149.181 21.9893 149.586 20.5785V20.5726ZM149.624 17.0353C149.521 15.821 149.081 14.9382 148.272 14.2841C146.984 13.3103 145.168 13.4834 144.027 14.6155C143.426 15.2843 143.08 16.0528 143.033 17.0383H149.624V17.0353Z" fill="#000A1E"/>
<path d="M131.338 22.3385C132.353 22.887 133.614 22.8284 134.535 22.2153C135.371 21.658 135.743 20.7752 135.896 19.775L138.735 19.7691C138.406 22.142 137.095 24.1541 134.684 24.7349C131.396 25.5268 128.006 24.2245 126.979 20.8309C126.416 18.9625 126.483 16.971 127.17 15.1437C128.528 11.5301 132.611 10.6472 135.899 11.9877C137.544 12.718 138.632 14.1875 138.732 16.0588L135.893 16.0646C135.761 14.9383 135.066 14.0701 133.978 13.7856C133.083 13.551 132.109 13.6155 131.282 14.0731C129.296 15.1701 129.153 18.4287 129.783 20.3792C130.047 21.2005 130.552 21.9132 131.338 22.3385Z" fill="#000A1E"/>
<path d="M11.0453 31.636C10.7608 31.8823 10.5232 31.9703 10.1976 31.9967H2.46012C1.14023 32.0026 0.00512695 31.0347 0.00512695 29.6532V11.8757C0.0139262 11.1249 0.547748 10.6614 1.26929 10.6614H10.6786V19.9945C10.6317 20.7073 11.0951 21.2616 11.7991 21.3174L21.3404 21.3291L11.0423 31.633L11.0453 31.636Z" fill="#274AEF"/>
<path d="M24.1793 21.3353V8.92246C24.1294 8.31531 23.6601 7.82255 23.0324 7.82255L13.5322 7.80788L20.9617 0.369569C21.2081 0.12319 21.5131 0.0117324 21.8592 0H29.6055C30.8697 0 31.996 0.973786 31.996 2.29661L32.0018 20.2354C31.9373 20.8953 31.4416 21.3236 30.7963 21.3353H24.1822H24.1793Z" fill="#07F0C6"/>
</g>
<defs>
<clipPath id="clip0_129_236">
<rect width="152.532" height="32" fill="white"/>
</clipPath>
</defs>
</svg>
