<svg width="128" height="30" viewBox="0 0 128 30" fill="none" xmlns="http://www.w3.org/2000/svg">
<path d="M36.8578 27.1229L41.1701 2.64923H54.4759C56.6379 2.64923 58.2412 3.19006 59.2859 4.27101C60.33 5.35253 60.668 6.9743 60.2994 9.13619C60.1025 10.2177 59.7956 11.096 59.3781 11.7716C58.96 12.4478 58.5239 12.9822 58.0696 13.375C57.6145 13.7683 57.1724 14.0511 56.7428 14.2227C56.3125 14.3949 55.9872 14.5055 55.766 14.5545C56.1588 14.6282 56.6012 14.7757 57.0928 14.9967C57.5841 15.2179 58.0328 15.568 58.4381 16.0472C58.8437 16.5264 59.1441 17.1346 59.3412 17.8718C59.5375 18.6089 59.5375 19.5304 59.3412 20.6361C58.9229 22.8723 57.9775 24.5125 56.5031 25.5567C55.0288 26.6014 53.1611 27.1232 50.9007 27.1232H36.8578V27.1229ZM43.6764 16.8027L42.6076 22.9212H50.5689C52.6082 22.9212 53.8124 21.9018 54.1809 19.8619C54.5494 17.8226 53.7017 16.8027 51.6377 16.8027H43.6764ZM45.4086 6.85099L44.4136 12.6008H51.4535C52.4607 12.6008 53.2469 12.3739 53.8124 11.9189C54.3773 11.4646 54.7579 10.7337 54.955 9.72589C55.1266 8.71868 55.004 7.98781 54.5864 7.53285C54.1682 7.07847 53.4559 6.85099 52.4486 6.85099H45.4086Z" fill="#000A1E"/>
<path d="M67.7082 27.1229L71.2467 6.92472H63.2853L64.0593 2.64923H84.9578L84.1839 6.92472H76.2593L72.721 27.1229H67.7082Z" fill="#000A1E"/>
<path d="M93.5802 27.1229C89.5011 27.1229 86.663 26.1341 85.066 24.1558C83.4683 22.1781 83.0387 19.0879 83.776 14.886C84.5131 10.7337 86.0363 7.65616 88.3464 5.65316C90.6557 3.65073 93.8256 2.64923 97.8557 2.64923H105.227L104.453 6.92472H98.1506C96.7252 6.92472 95.4969 7.06632 94.4648 7.34867C93.4328 7.63144 92.5603 8.09211 91.848 8.73082C91.135 9.3701 90.5517 10.193 90.0972 11.2004C89.6422 12.2081 89.292 13.4365 89.0467 14.8861C88.7759 16.3363 88.6903 17.5647 88.7886 18.5719C88.8866 19.5797 89.1814 20.4028 89.6733 21.0415C90.1645 21.6807 90.8769 22.1414 91.811 22.4236C92.7445 22.7064 93.924 22.8474 95.3493 22.8474H101.8L101.062 27.1229H93.5802Z" fill="#000A1E"/>
<path d="M115.364 27.1229C111.285 27.1229 108.447 26.1341 106.85 24.1558C105.252 22.1781 104.823 19.0879 105.56 14.886C106.297 10.7337 107.82 7.65616 110.13 5.65316C112.44 3.65073 115.61 2.64923 119.64 2.64923H127.011L126.237 6.92472H119.935C118.509 6.92472 117.281 7.06632 116.249 7.34867C115.217 7.63144 114.344 8.09211 113.632 8.73082C112.919 9.3701 112.336 10.193 111.881 11.2004C111.426 12.2081 111.076 13.4365 110.831 14.8861C110.56 16.3363 110.474 17.5647 110.573 18.5719C110.671 19.5797 110.965 20.4028 111.457 21.0415C111.949 21.6807 112.661 22.1414 113.595 22.4236C114.529 22.7064 115.708 22.8474 117.133 22.8474H123.584L122.846 27.1229H115.364Z" fill="#000A1E"/>
<path d="M23.2268 1.09766C21.8392 0.316782 20.9473 0 20.9473 0C20.9473 0 19.0362 1.0408 18.0128 1.66521C16.8597 2.36879 14.9996 3.75266 14.9996 3.75266C14.9996 3.75266 13.1395 2.36879 11.9864 1.66521C10.9633 1.0408 9.05219 0 9.05219 0C9.05219 0 8.16029 0.316782 6.77285 1.09766C5.38526 1.87855 4.47192 2.8166 4.47192 2.8166C4.47192 2.8166 7.92638 5.5832 9.74348 7.19655C11.5606 8.80989 14.9999 12.0099 14.9999 12.0099C14.9999 12.0099 18.4391 8.80989 20.2562 7.19655C22.0733 5.5832 25.5277 2.8166 25.5277 2.8166C25.5277 2.8166 24.6142 1.87855 23.2268 1.09766Z" fill="#000A1E"/>
<path d="M6.77285 28.9023C8.16043 29.6832 9.05219 30 9.05219 30C9.05219 30 10.9633 28.9592 11.9865 28.3348C13.1396 27.6312 14.9998 26.2473 14.9998 26.2473C14.9998 26.2473 16.8597 27.6312 18.013 28.3348C19.0363 28.9592 20.9475 30 20.9475 30C20.9475 30 21.8394 29.6831 23.2268 28.9023C24.6142 28.1215 25.5277 27.1834 25.5277 27.1834C25.5277 27.1834 22.0733 24.4168 20.2562 22.8035C18.4391 21.1901 14.9999 17.9901 14.9999 17.9901C14.9999 17.9901 11.5607 21.1901 9.74348 22.8035C7.92638 24.4168 4.47192 27.1834 4.47192 27.1834C4.47192 27.1834 5.38526 28.1215 6.77285 28.9023Z" fill="#000A1E"/>
<path d="M28.9024 23.2372C29.6833 21.8497 30.0001 20.9579 30.0001 20.9579C30.0001 20.9579 28.9593 19.0468 28.3349 18.0236C27.6313 16.8705 26.2474 15.0103 26.2474 15.0103C26.2474 15.0103 27.6313 13.1502 28.3349 11.9971C28.9593 10.9738 30.0001 9.06263 30.0001 9.06263C30.0001 9.06263 29.6832 8.17072 28.9024 6.78328C28.1216 5.3957 27.1835 4.48236 27.1835 4.48236C27.1835 4.48236 24.4169 7.93682 22.8036 9.75392C21.1902 11.571 17.9902 15.0102 17.9902 15.0102C17.9902 15.0102 21.1903 18.4494 22.8036 20.2666C24.4169 22.0839 27.1835 25.5382 27.1835 25.5382C27.1835 25.5382 28.1216 24.6247 28.9024 23.2372Z" fill="#000A1E"/>
<path d="M1.09766 6.78343C0.316925 8.17101 0 9.06277 0 9.06277C0 9.06277 1.0408 10.9739 1.66521 11.9973C2.36879 13.1504 3.75266 15.0105 3.75266 15.0105C3.75266 15.0105 2.36879 16.8704 1.66521 18.0237C1.0408 19.0469 0 20.9579 0 20.9579C0 20.9579 0.316925 21.8498 1.09766 23.2372C1.87855 24.6248 2.8166 25.5382 2.8166 25.5382C2.8166 25.5382 5.5832 22.0837 7.19655 20.2666C8.80989 18.4495 12.0099 15.0102 12.0099 15.0102C12.0099 15.0102 8.80989 11.5712 7.19655 9.75406C5.5832 7.93682 2.8166 4.48236 2.8166 4.48236C2.8166 4.48236 1.87869 5.39599 1.09766 6.78343Z" fill="#000A1E"/>
</svg>
