<svg width="84" height="24" viewBox="0 0 84 24" fill="none" xmlns="http://www.w3.org/2000/svg">
<path d="M0 0.313469H11.6461C14.5004 0.313469 16.5122 1.04816 17.842 2.41714C18.7494 3.35265 19.3016 4.58816 19.3016 6.18979V6.25592C19.3016 8.96082 17.809 10.5624 15.7984 11.4649C18.5559 12.4004 20.3069 14.0033 20.3069 17.1747V17.242C20.3069 21.2486 17.1282 23.6865 11.7098 23.6865H0V0.314695V0.313469ZM41.1784 20.1539L44.7147 15.878C46.9751 17.7012 49.4951 18.6624 52.1486 18.6624C53.8518 18.6624 54.769 18.0649 54.769 17.0706V17.0045C54.769 16.0433 54.0159 15.5131 50.9045 14.7833C46.0249 13.6567 42.2596 12.2645 42.2596 7.49143V7.42531C42.2596 3.1151 45.6331 0 51.1335 0C55.031 0 58.0763 1.06163 60.5645 3.08326L57.3882 7.6249C55.2918 6.13224 52.9996 5.33632 50.9682 5.33632C49.429 5.33632 48.6759 6 48.6759 6.82898V6.8951C48.6759 7.95673 49.462 8.42081 52.6384 9.14938C57.9122 10.309 61.1865 12.0331 61.1865 16.3751V16.4412C61.1865 21.1825 57.4861 24 51.9184 24C47.858 24 43.9935 22.7069 41.1771 20.1539M10.0886 9.62939C12.0025 9.62939 13.0739 8.96082 13.0739 7.59306V7.52571C13.0739 6.25714 12.1004 5.52245 10.2184 5.52245H6.13102V9.63062H10.0873L10.0886 9.62939ZM10.9971 18.4776C12.911 18.4776 14.0143 17.7098 14.0143 16.3396V16.2735C14.0143 15.0037 13.0408 14.1698 10.9322 14.1698H6.13102V18.4763H10.9971V18.4776ZM21 0L23.1771 5.54326H27.8743V24H34.3053V5.54326H39.0747L41.2506 0H21.0012H21ZM63.7506 24H83.9951L81.5596 18.3429H70.6555V14.5371H79.1216V9.29143H70.6555V5.65714H81.5559L84 0.0379589L63.7506 0V24Z" fill="#000A1E"/>
</svg>
