<svg width="154" height="32" viewBox="0 0 154 32" fill="none" xmlns="http://www.w3.org/2000/svg">
<path fill-rule="evenodd" clip-rule="evenodd" d="M83.7027 20.1207L87.4923 6H92.6925L86.1368 25.3333H80.9366L77.2578 12.1778L73.5236 25.3333H68.3233L61.7954 6H67.2445L71.0617 20.1207L74.879 6H79.8302L83.7027 20.1207ZM95.3791 25.3333V6H110.553V10.0266H100.4V13.6396H109.565V17.6386L100.4 17.6661V21.3067H110.828V25.3333H95.3791ZM115.529 6V25.3333H130.978V21.3067H120.551V17.6661L129.715 17.6386V13.6396H120.551V10.0266H130.703V6H115.529ZM139.332 6H133.436L139.885 15.4873L132.993 25.3333H138.917L142.957 19.3486L147.082 25.3333H153.143L146.196 15.2392L152.589 6H146.611L142.957 11.4883L139.332 6Z" fill="#D8AE15"/>
<path fill-rule="evenodd" clip-rule="evenodd" d="M32.1696 20.411L40.4816 11.9993L28.882 0L17.2825 11.9993L25.5946 20.3863L20.3961 25.6691L6.52327 11.9993L12.882 5.52601H18.5563L22.8538 0.870983H10.8208L0 11.9993L20.3961 31.9754L28.882 23.7337L37.368 32L57.7641 11.9993L46.9433 0.895515H34.9104L39.2079 5.55064H44.882L51.2408 11.9993L37.368 25.6937L32.1696 20.411ZM28.8816 16.7422L24.0489 11.9977L28.8816 6.89028L33.7144 11.9977L28.8816 16.7422Z" fill="#D8AE15"/>
</svg>
